<svg xmlns="http://www.w3.org/2000/svg" xmlns:xlink="http://www.w3.org/1999/xlink" viewBox="0 0 724.6 725.33"><defs><linearGradient id="a" x1="-123.83" y1="397.39" x2="1141.42" y2="406.14" gradientUnits="userSpaceOnUse"><stop offset="0" stop-color="#8e2de2"/><stop offset="0.23" stop-color="#8426e2"/><stop offset="0.64" stop-color="#6814e1"/><stop offset="1" stop-color="#4a00e0"/></linearGradient><linearGradient id="b" x1="-123.45" y1="342.74" x2="1141.8" y2="351.49" xlink:href="#a"/><linearGradient id="c" x1="-121.88" y1="115.55" x2="1143.37" y2="124.31" xlink:href="#a"/><linearGradient id="d" x1="-125.78" y1="679.16" x2="1139.47" y2="687.92" xlink:href="#a"/><linearGradient id="e" x1="-125.6" y1="653.84" x2="1139.65" y2="662.6" xlink:href="#a"/><linearGradient id="f" x1="-122.12" y1="150.88" x2="1143.13" y2="159.63" xlink:href="#a"/><linearGradient id="g" x1="-125.74" y1="674.08" x2="1139.51" y2="682.83" xlink:href="#a"/><linearGradient id="h" x1="-124.96" y1="561.81" x2="1140.28" y2="570.57" xlink:href="#a"/><linearGradient id="i" x1="-126.02" y1="713.99" x2="1139.23" y2="722.75" xlink:href="#a"/><linearGradient id="j" x1="-121.59" y1="73.64" x2="1143.66" y2="82.4" xlink:href="#a"/><linearGradient id="k" x1="-121.61" y1="77.84" x2="1143.63" y2="86.6" xlink:href="#a"/><linearGradient id="l" x1="-124.98" y1="563.6" x2="1140.27" y2="572.36" xlink:href="#a"/><linearGradient id="m" x1="-122.9" y1="262.95" x2="1142.35" y2="271.71" xlink:href="#a"/><linearGradient id="n" x1="-124.92" y1="556.17" x2="1140.32" y2="564.93" xlink:href="#a"/><linearGradient id="o" x1="-122.14" y1="153.35" x2="1143.11" y2="162.11" xlink:href="#a"/><linearGradient id="p" x1="-122.31" y1="179.02" x2="1142.93" y2="187.78" xlink:href="#a"/><linearGradient id="q" x1="-122.06" y1="142.12" x2="1143.19" y2="150.88" xlink:href="#a"/><linearGradient id="r" x1="-121.52" y1="63.6" x2="1143.73" y2="72.35" xlink:href="#a"/><linearGradient id="s" x1="-124.54" y1="500.51" x2="1140.71" y2="509.27" xlink:href="#a"/><linearGradient id="t" x1="-122.15" y1="154.79" x2="1143.1" y2="163.55" xlink:href="#a"/><linearGradient id="u" x1="-121.52" y1="64.24" x2="1143.73" y2="73" xlink:href="#a"/><linearGradient id="v" x1="-122.58" y1="216.92" x2="1142.67" y2="225.67" xlink:href="#a"/><linearGradient id="w" x1="-125.96" y1="705.32" x2="1139.29" y2="714.08" xlink:href="#a"/><linearGradient id="x" x1="-125.44" y1="630.17" x2="1139.81" y2="638.93" xlink:href="#a"/><linearGradient id="y" x1="-124.31" y1="466.76" x2="1140.94" y2="475.52" xlink:href="#a"/><linearGradient id="z" x1="-126.18" y1="737.11" x2="1139.07" y2="745.86" xlink:href="#a"/><linearGradient id="aa" x1="-124.43" y1="484.79" x2="1140.82" y2="493.55" xlink:href="#a"/><linearGradient id="ab" x1="-125.7" y1="668.5" x2="1139.55" y2="677.25" xlink:href="#a"/><linearGradient id="ac" x1="-122.67" y1="229.67" x2="1142.58" y2="238.42" xlink:href="#a"/><linearGradient id="ad" x1="-125.46" y1="633.18" x2="1139.79" y2="641.94" xlink:href="#a"/><linearGradient id="ae" x1="-121.34" y1="38.84" x2="1143.9" y2="47.59" xlink:href="#a"/><linearGradient id="af" x1="-122.43" y1="196.21" x2="1142.81" y2="204.96" xlink:href="#a"/><linearGradient id="ag" x1="-125.32" y1="613.23" x2="1139.93" y2="621.99" xlink:href="#a"/><linearGradient id="ah" x1="-126.22" y1="743.97" x2="1139.02" y2="752.72" xlink:href="#a"/><linearGradient id="ai" x1="-122.89" y1="262.23" x2="1142.36" y2="270.99" xlink:href="#a"/><linearGradient id="aj" x1="-122.4" y1="191.16" x2="1142.85" y2="199.92" xlink:href="#a"/><linearGradient id="ak" x1="-123.77" y1="388.93" x2="1141.48" y2="397.69" xlink:href="#a"/><linearGradient id="al" x1="-122.77" y1="244.13" x2="1142.48" y2="252.89" xlink:href="#a"/><linearGradient id="am" x1="-126.24" y1="746.18" x2="1139.01" y2="754.93" xlink:href="#a"/><linearGradient id="an" x1="-123.25" y1="314" x2="1142" y2="322.76" xlink:href="#a"/><linearGradient id="ao" x1="-122.35" y1="183.86" x2="1142.9" y2="192.62" xlink:href="#a"/><linearGradient id="ap" x1="-121.81" y1="105.52" x2="1143.44" y2="114.27" xlink:href="#a"/><linearGradient id="aq" x1="-125.86" y1="691.81" x2="1139.38" y2="700.57" xlink:href="#a"/><linearGradient id="ar" x1="-125.73" y1="671.97" x2="1139.52" y2="680.73" xlink:href="#a"/><linearGradient id="as" x1="-126.26" y1="749.42" x2="1138.99" y2="758.17" xlink:href="#a"/><linearGradient id="at" x1="-126.12" y1="728.83" x2="1139.13" y2="737.59" xlink:href="#a"/><linearGradient id="au" x1="-124.57" y1="504.84" x2="1140.68" y2="513.59" xlink:href="#a"/><linearGradient id="av" x1="-125.15" y1="588.61" x2="1140.1" y2="597.36" xlink:href="#a"/><linearGradient id="aw" x1="-122.37" y1="186.83" x2="1142.88" y2="195.59" xlink:href="#a"/><linearGradient id="ax" x1="-122.4" y1="190.9" x2="1142.85" y2="199.65" xlink:href="#a"/><linearGradient id="ay" x1="-125.38" y1="621.54" x2="1139.87" y2="630.29" xlink:href="#a"/><linearGradient id="az" x1="-125.57" y1="649.83" x2="1139.67" y2="658.59" xlink:href="#a"/><linearGradient id="ba" x1="-121.51" y1="62.68" x2="1143.74" y2="71.44" xlink:href="#a"/><linearGradient id="bb" x1="-121.88" y1="115.49" x2="1143.37" y2="124.24" xlink:href="#a"/><linearGradient id="bc" x1="-125.37" y1="621.13" x2="1139.87" y2="629.88" xlink:href="#a"/><linearGradient id="bd" x1="-125.02" y1="569.31" x2="1140.23" y2="578.06" xlink:href="#a"/><linearGradient id="be" x1="-122.9" y1="263.19" x2="1142.35" y2="271.95" xlink:href="#a"/><linearGradient id="bf" x1="-125.54" y1="645.47" x2="1139.7" y2="654.22" xlink:href="#a"/><linearGradient id="bg" x1="-121.87" y1="115.47" x2="1143.37" y2="124.22" xlink:href="#a"/><linearGradient id="bh" x1="-125.73" y1="672.66" x2="1139.52" y2="681.42" xlink:href="#a"/><linearGradient id="bi" x1="-125.01" y1="568.86" x2="1140.23" y2="577.61" xlink:href="#a"/><linearGradient id="bj" x1="-124.75" y1="531.26" x2="1140.49" y2="540.01" xlink:href="#a"/><linearGradient id="bk" x1="-121.34" y1="37.92" x2="1143.91" y2="46.67" xlink:href="#a"/><linearGradient id="bl" x1="-126.18" y1="737.92" x2="1139.06" y2="746.68" xlink:href="#a"/><linearGradient id="bm" x1="-121.51" y1="62.72" x2="1143.74" y2="71.47" xlink:href="#a"/><linearGradient id="bn" x1="-123.72" y1="381.86" x2="1141.53" y2="390.61" xlink:href="#a"/><linearGradient id="bo" x1="-124.75" y1="530.74" x2="1140.5" y2="539.49" xlink:href="#a"/><linearGradient id="bp" x1="-122.31" y1="177.68" x2="1142.94" y2="186.44" xlink:href="#a"/><linearGradient id="bq" x1="-126.27" y1="750.32" x2="1138.98" y2="759.07" xlink:href="#a"/><linearGradient id="br" x1="-126.27" y1="749.92" x2="1138.98" y2="758.68" xlink:href="#a"/><linearGradient id="bs" x1="-126.25" y1="747.35" x2="1139" y2="756.11" xlink:href="#a"/><linearGradient id="bt" x1="-125.8" y1="683.16" x2="1139.44" y2="691.92" xlink:href="#a"/><linearGradient id="bu" x1="-122.98" y1="275.58" x2="1142.26" y2="284.33" xlink:href="#a"/><linearGradient id="bv" x1="-125.63" y1="658.45" x2="1139.61" y2="667.21" xlink:href="#a"/><linearGradient id="bw" x1="-125.65" y1="661.01" x2="1139.6" y2="669.77" xlink:href="#a"/><linearGradient id="bx" x1="-126.26" y1="748.89" x2="1138.99" y2="757.65" xlink:href="#a"/><linearGradient id="by" x1="-125.81" y1="684.63" x2="1139.43" y2="693.38" xlink:href="#a"/><linearGradient id="bz" x1="-124.2" y1="450.97" x2="1141.05" y2="459.72" xlink:href="#a"/><linearGradient id="ca" x1="-123.09" y1="291.39" x2="1142.15" y2="300.15" xlink:href="#a"/><linearGradient id="cb" x1="-122.78" y1="245.7" x2="1142.47" y2="254.46" xlink:href="#a"/><linearGradient id="cc" x1="-123.13" y1="297.18" x2="1142.11" y2="305.94" xlink:href="#a"/><linearGradient id="cd" x1="-122.68" y1="232.18" x2="1142.56" y2="240.93" xlink:href="#a"/><linearGradient id="ce" x1="-122.39" y1="189.63" x2="1142.86" y2="198.38" xlink:href="#a"/><linearGradient id="cf" x1="-122.52" y1="209.08" x2="1142.72" y2="217.84" xlink:href="#a"/><linearGradient id="cg" x1="-122.33" y1="180.52" x2="1142.92" y2="189.28" xlink:href="#a"/><linearGradient id="ch" x1="-122.06" y1="142.71" x2="1143.18" y2="151.47" xlink:href="#a"/><linearGradient id="ci" x1="-123.18" y1="304.07" x2="1142.07" y2="312.82" xlink:href="#a"/><linearGradient id="cj" x1="-122.38" y1="188.8" x2="1142.86" y2="197.56" xlink:href="#a"/><linearGradient id="ck" x1="-122.59" y1="218.65" x2="1142.66" y2="227.41" xlink:href="#a"/><linearGradient id="cl" x1="-123.48" y1="347.18" x2="1141.77" y2="355.94" xlink:href="#a"/><linearGradient id="cm" x1="-123.36" y1="330.56" x2="1141.88" y2="339.31" xlink:href="#a"/><linearGradient id="cn" x1="-122.88" y1="260.13" x2="1142.37" y2="268.88" xlink:href="#a"/><linearGradient id="co" x1="-123.83" y1="397.28" x2="1141.42" y2="406.03" xlink:href="#a"/><linearGradient id="cp" x1="-122.52" y1="208.69" x2="1142.73" y2="217.44" xlink:href="#a"/><linearGradient id="cq" x1="-123.23" y1="311.52" x2="1142.02" y2="320.27" xlink:href="#a"/><linearGradient id="cr" x1="-122.78" y1="245.91" x2="1142.47" y2="254.67" xlink:href="#a"/><linearGradient id="cs" x1="-122.2" y1="162.41" x2="1143.05" y2="171.16" xlink:href="#a"/><linearGradient id="ct" x1="-121.83" y1="109.67" x2="1143.41" y2="118.43" xlink:href="#a"/><linearGradient id="cu" x1="-121.84" y1="110.93" x2="1143.4" y2="119.68" xlink:href="#a"/><linearGradient id="cv" x1="-123.61" y1="366.42" x2="1141.64" y2="375.17" xlink:href="#a"/><linearGradient id="cw" x1="-122.65" y1="227.71" x2="1142.6" y2="236.47" xlink:href="#a"/><linearGradient id="cx" x1="-123" y1="278.34" x2="1142.25" y2="287.1" xlink:href="#a"/><linearGradient id="cy" x1="-123.17" y1="303.13" x2="1142.07" y2="311.89" xlink:href="#a"/><linearGradient id="cz" x1="-123" y1="277.72" x2="1142.25" y2="286.47" xlink:href="#a"/><linearGradient id="da" x1="-122.74" y1="241" x2="1142.5" y2="249.76" xlink:href="#a"/><linearGradient id="db" x1="-123.08" y1="289.23" x2="1142.17" y2="297.98" xlink:href="#a"/><linearGradient id="dc" x1="-122.65" y1="227.65" x2="1142.6" y2="236.41" xlink:href="#a"/><linearGradient id="dd" x1="-122.56" y1="214.92" x2="1142.68" y2="223.68" xlink:href="#a"/><linearGradient id="de" x1="-122.55" y1="213.47" x2="1142.69" y2="222.23" xlink:href="#a"/><linearGradient id="df" x1="-123.7" y1="378.96" x2="1141.55" y2="387.72" xlink:href="#a"/><linearGradient id="dg" x1="-122.83" y1="253.07" x2="1142.42" y2="261.83" xlink:href="#a"/><linearGradient id="dh" x1="-124.37" y1="476.36" x2="1140.87" y2="485.11" xlink:href="#a"/><linearGradient id="di" x1="-124.45" y1="488.2" x2="1140.79" y2="496.96" xlink:href="#a"/><linearGradient id="dj" x1="-124.93" y1="557.6" x2="1140.31" y2="566.35" xlink:href="#a"/><linearGradient id="dk" x1="-124.68" y1="520.59" x2="1140.57" y2="529.34" xlink:href="#a"/><linearGradient id="dl" x1="-124.59" y1="507.55" x2="1140.66" y2="516.3" xlink:href="#a"/><linearGradient id="dm" x1="-124.18" y1="449.23" x2="1141.06" y2="457.99" xlink:href="#a"/><linearGradient id="dn" x1="-123.7" y1="378.87" x2="1141.55" y2="387.62" xlink:href="#a"/><linearGradient id="do" x1="-122.9" y1="263.49" x2="1142.35" y2="272.24" xlink:href="#a"/><linearGradient id="dp" x1="-122.98" y1="275.25" x2="1142.27" y2="284.01" xlink:href="#a"/><linearGradient id="dq" x1="-123.78" y1="390.92" x2="1141.47" y2="399.67" xlink:href="#a"/><linearGradient id="dr" x1="-125.02" y1="570.34" x2="1140.22" y2="579.1" xlink:href="#a"/><linearGradient id="ds" x1="-124.85" y1="545.88" x2="1140.39" y2="554.63" xlink:href="#a"/><linearGradient id="dt" x1="-123.98" y1="419.35" x2="1141.27" y2="428.1" xlink:href="#a"/><linearGradient id="du" x1="-124.42" y1="483.36" x2="1140.83" y2="492.12" xlink:href="#a"/><linearGradient id="dv" x1="-124.11" y1="438.74" x2="1141.14" y2="447.49" xlink:href="#a"/><linearGradient id="dw" x1="-123.94" y1="413.72" x2="1141.31" y2="422.48" xlink:href="#a"/><linearGradient id="dx" x1="-124.37" y1="475.58" x2="1140.88" y2="484.33" xlink:href="#a"/><linearGradient id="dy" x1="-124.24" y1="457.14" x2="1141.01" y2="465.9" xlink:href="#a"/><linearGradient id="dz" x1="-123.71" y1="380.51" x2="1141.54" y2="389.26" xlink:href="#a"/><linearGradient id="ea" x1="-123.45" y1="342.69" x2="1141.8" y2="351.45" xlink:href="#a"/><linearGradient id="eb" x1="-122.25" y1="169.18" x2="1143" y2="177.94" xlink:href="#a"/><linearGradient id="ec" x1="-122.48" y1="202.67" x2="1142.77" y2="211.42" xlink:href="#a"/><linearGradient id="ed" x1="-124.73" y1="527.38" x2="1140.52" y2="536.13" xlink:href="#a"/><linearGradient id="ee" x1="-124.52" y1="497.6" x2="1140.73" y2="506.36" xlink:href="#a"/><linearGradient id="ef" x1="-124.78" y1="535.56" x2="1140.47" y2="544.31" xlink:href="#a"/><linearGradient id="eg" x1="-122.92" y1="266.22" x2="1142.33" y2="274.98" xlink:href="#a"/><linearGradient id="eh" x1="-123.81" y1="394.53" x2="1141.44" y2="403.28" xlink:href="#a"/><linearGradient id="ei" x1="-121.82" y1="107.74" x2="1143.43" y2="116.49" xlink:href="#a"/><linearGradient id="ej" x1="-121.59" y1="73.93" x2="1143.66" y2="82.68" xlink:href="#a"/><linearGradient id="ek" x1="-121.87" y1="115.07" x2="1143.38" y2="123.82" xlink:href="#a"/><linearGradient id="el" x1="-121.85" y1="112.54" x2="1143.39" y2="121.29" xlink:href="#a"/><linearGradient id="em" x1="-125.72" y1="671.17" x2="1139.53" y2="679.93" xlink:href="#a"/><linearGradient id="en" x1="-124.85" y1="545.88" x2="1140.39" y2="554.63" xlink:href="#a"/><linearGradient id="eo" x1="-124.72" y1="526.73" x2="1140.53" y2="535.48" xlink:href="#a"/><linearGradient id="ep" x1="-125.11" y1="583.52" x2="1140.13" y2="592.27" xlink:href="#a"/><linearGradient id="eq" x1="-124.94" y1="558.74" x2="1140.3" y2="567.5" xlink:href="#a"/><linearGradient id="er" x1="-125.03" y1="571.15" x2="1140.22" y2="579.91" xlink:href="#a"/><linearGradient id="es" x1="-125.11" y1="583.36" x2="1140.13" y2="592.12" xlink:href="#a"/><linearGradient id="et" x1="-124.94" y1="558.26" x2="1140.31" y2="567.02" xlink:href="#a"/><linearGradient id="eu" x1="-125.03" y1="570.66" x2="1140.22" y2="579.42" xlink:href="#a"/><linearGradient id="ev" x1="-125.21" y1="598.08" x2="1140.03" y2="606.83" xlink:href="#a"/><linearGradient id="ew" x1="-125.53" y1="642.99" x2="1139.72" y2="651.75" xlink:href="#a"/><linearGradient id="ex" x1="-125.35" y1="617.04" x2="1139.9" y2="625.79" xlink:href="#a"/><linearGradient id="ey" x1="-125.74" y1="673.3" x2="1139.51" y2="682.05" xlink:href="#a"/><linearGradient id="ez" x1="-125.17" y1="592.15" x2="1140.07" y2="600.91" xlink:href="#a"/><linearGradient id="fa" x1="-125.13" y1="585.77" x2="1140.12" y2="594.52" xlink:href="#a"/><linearGradient id="fb" x1="-125.48" y1="636.77" x2="1139.76" y2="645.52" xlink:href="#a"/><linearGradient id="fc" x1="-125.37" y1="619.91" x2="1139.88" y2="628.67" xlink:href="#a"/><linearGradient id="fd" x1="-125.74" y1="673.92" x2="1139.51" y2="682.67" xlink:href="#a"/><linearGradient id="fe" x1="-126.02" y1="713.86" x2="1139.23" y2="722.62" xlink:href="#a"/><linearGradient id="ff" x1="-121.58" y1="72.28" x2="1143.67" y2="81.03" xlink:href="#a"/><linearGradient id="fg" x1="-121.61" y1="76.63" x2="1143.64" y2="85.39" xlink:href="#a"/><linearGradient id="fh" x1="-124.15" y1="443.52" x2="1141.1" y2="452.27" xlink:href="#a"/><linearGradient id="fi" x1="-123.79" y1="392.52" x2="1141.46" y2="401.27" xlink:href="#a"/><linearGradient id="fj" x1="-124.15" y1="444.63" x2="1141.09" y2="453.39" xlink:href="#a"/></defs><path d="M665.78,184.7v24.69c9.51,3.75,12.26-.44,12-8.94H690.7v35.44L677.15,237l.3.32c-.18-3.57-.35-7.15-.56-11.32H666.47c-.25,4.17-.46,7.74-.67,11.32l.32-.32H652.24v13.88l.32-.31-11.78.64c.2,4.1.37,7.57.54,11H627.15v14l14.16-.89v26.2h48.91l2.06,10.39,10,2.39-.24-.14c.36,7.48.72,15,1.15,24h64.08v25.3c-4.33,0-8.32,0-12.34,0-1.59-6-1-14.62-12.62-9.05.57,3.44,1.15,7,1.74,10.53l-26-1.58c-.9-3.54-1.76-7-2.55-10.08H691.14c1.84,19.46,18.79,5.14,25.25,13.07.4,3.22.9,7.16,1.37,10.93h23.77c.85-4.73,1.55-8.67,2.23-12.65,3.84-.52,7.72-1,11.59-1.5-.63,4.31-1.27,8.63-2,13.73l13.7,2v60.83l-12.83,1.62v13.44l.31-.3h-11c-.79-5.09-1.41-9-2.16-13.84H718.52c-1.18-4.26-2.14-7.69-3.19-11.47l-11.93.66v24.81c5.94,0,11.16.25,16.33-.06,8.27-.49,9.79,3.31,6.78,11.58H692c-.53,5.2-.93,9.13-1.42,14H652.23V491l.35-.36L642,489.83q-.33-11.79-.67-23.59c3.18-.36,6.38-.69,9.88-1.06V440.61l-10.34.75,1.17-10.63c7.78-1.16,11-5.27,9.95-13.41-.79-6.26-.46-12.71-.07-19.05.53-8.5-3.1-10.36-12-7.31q1.11,19.95,2.22,39.9c-5-.59-9.93-1.16-14.8-1.72-3.39,15.88,8.24,9.76,13.8,12l.62,25.55H627.17V491.9l15-2.15q0,9.13-.08,18.23c-4.84-.88-9.67-1.73-14.5-2.59l-2.4,3.36c2,2.68,3.47,6.86,6.07,7.76,7.21,2.48,9.64-2.68,10.69-8.73l10.64-.75-.35-.37v50.11h13.9l-.33-.31v25.07H641.43c.66,11-4.95,12.48-13.33,12-12.33-.7-24.72-.18-38-.18-.43,8.9-.81,16.6-1.21,24.84l-25,1.82.29.29c-.23-4-.46-7.92-.7-12.13l-12.78-1.23-1.56-15.83,14.16,3.69q.66,5.43,1.45,12h9.86V583.06l-10.71-2.38v-12.9H575.4V542.29c4.92.65,8.73,1.15,12.58,1.63.9,3.86,1.77,7.76,2.68,11.83l8.76,1.64c.92,3.41,1.85,6.82,2.71,10h12V556.45c-5.54.43-10.26.8-14.95,1.15.6-4.57,1.17-9.12,2-15.34l-13.4,1.87c.94-4,1.89-7.91,2.84-11.89l9.34-2.16c.68-4.63,1.25-8.55,1.86-12.71,7.13-.75,16.93,1.5,11.88-10.92l-12.2-2V466.83l12.65-1.8V429.19c-6.86,0-13.53,1.63-18.6-.52-4-1.72-6.13-8.05-10-13.63l-9.45.66v38.15l13.12,1.84c-.18,3.5-.32,6.35-.53,10.45H522.84l3-11,25.54-1.22c-1.72-9.07-3-16.74-4.92-24.27-.1-.44-4.7.25-6.86.38-.88,3.92-1.59,7.06-2.19,9.74-9.21,2.48-14.22.17-13.45-9.58l-10.38-2V405.23l10.25-3.29c.54-4.5,1-8.17,1.43-11.86L538,388.53c2.92-15.7-9.46-8.34-15-10.86v-39.1l-11.43.8c.81-3.6,1.61-7.2,2.52-11.3l9.31-1.86V312.94H489.28c-6-11.85,3.91-10.57,8.89-12.33.61-4.72,1.11-8.69,1.6-12.53h12.41c.61,4.53,1.15,8.52,1.69,12.43,14.3,5.08,8.34-8.55,12.71-13.11l11.22.6c.58,4.66,1.08,8.63,1.82,14.54,4-1.69,9.36-2.62,9.6-4.28,1-6.88.41-14,.41-20.79L539.28,275V251.38h24.24c-.09,8.05,1.93,13.23,11.66,9.17V237h25.43c-.24-4.94-.39-8.16-.55-11.38l15.35-1.21c-.7-5.61-1.28-10.27-1.87-14.92l12.89,2.78v23.14c10.54,3,15.31.51,14.23-10.3-.63-6.32-.15-12.77,0-19.16a41.38,41.38,0,0,1,.71-5.19l9.92-2.39c.48-4.36.88-8,1.34-12.27l13.54-1Zm.31,167.78v10.57c10.77,2.43,12.83-1.39,9.82-10.25H665.77L666.85,340c5.46-.49,10.94-1.54,16.37-1.33,8.45.33,9.19-3.73,6.73-11.82l-24.9,1.85c.34-4.75.69-9.5,1.08-14.91H640.6c.21,4.75.39,8.61.57,12.58,8.82.75,16.51,1.39,24.24,2,.53,3.94,1.07,7.88,1.58,11.79l-15.78-1.68c.94,6.53,1.57,10.82,2.19,15.12l-12-1.78c-.61-4.36-1.16-8.31-1.75-12.54H625.37c1.2,9.13,2.28,17.37,3.36,25.62l-12.52-1.66c-.92-3.48-1.81-6.91-2.86-10.88-5.23.45-9.68.84-14.09,1.19.87-4.67,1.74-9.34,2.65-14.27l11.94-1.49c1-11.63-3.33-13.19-23.74-9v23.11l9.39,1.4c.42,3.14.84,6.27,1.28,9.57L590,365.08v23.6h35c1.16-8.31,2.26-16.19,3.29-24.11H640c.45,5,.77,8.66,1.11,12.43,7.1,2.12,11.2,1.38,10.87-7.11-.22-5.49.72-11,1.09-16.59Zm-66-76.77v-13c-12.87-2.43-11,5-9.8,13.24l10.08-.5v11.51L576.06,288v12.9l12.22,1.39c.77,3.31,1.49,6.45,2.33,10.09,7.49,0,18,2.81,20.83-.65,4.42-5.4,3.64-15.06,5.21-23.71,6.1-.42,12.86-1.41,7.49-12.34ZM702,378.78H666.53v35.58H702Zm-35.65,86c11,4.21,10.75-3.69,11.75-9.4l12.31-1.69V430.14H666.39ZM550.38,403l13,1.67,1.28,9.58h10V390.41l-9.94-2.09c-.58-3.53-1.05-6.38-1.54-9.3H550.38Zm24.44-39.54v-24H564.77c-.58,4.62-1.07,8.55-1.56,12.5l-13.33,1.76c.4,3.68.73,6.75,1.06,9.76ZM741.93,415.8H717.75v12.6h24.18Zm-12.49-26c-2,15.09,3.27,17.52,24.29,11.91-.17-3.72-.35-7.61-.54-11.91ZM563.59,312.91,549.73,314c.41,5.15.7,8.7,1,12.34h12.88Zm76.33,245c-14.2-2.27-14.38-2.12-11.86,10.07l11.86-.56ZM624.7,531.64c2.3,4.88,3,8.79,5.27,10.43,1.89,1.34,7,1.11,8.35-.44,1.85-2.15,1.51-6.2,2.21-10Zm-9-294.43v12.93h10V237.21ZM526,401.74c-2.33,8.93-2.29,14.09,5.74,12.87,2.51-.38,4.55-3.83,6.81-5.88Zm99.75,88.8c-4.28,1.48-8.85,1.69-10.09,3.82-1.55,2.68-.37,6.94-.37,11.08l10.46-.59Z" transform="translate(-43.45 -35.47)" fill="url(#a)"/><path d="M142.57,237.27l13.83,0-.32-.35c.26,4.34.52,8.68.85,14.29h24.13v24.17H168.15c-.44-4.54-.83-8.51-1.29-13.26l-10.15.61c-.4,8.43-.75,15.91-1.08,23.43-4.23.8-8.48,1.57-12.68,2.34v12.37H156.4c-.39-5.56-.71-10.31-1-15.05l37.71,2.62c-.55,4-1,7.52-1.5,11.05-3.18,1.38-6.38,2.73-9.66,4.12v11.49l-13.49-3.39c-1-5.58-1.14-13.45-11.47-8.67v49.28h10.83v10.84h13.89c-.37-4-.66-7.06-1-10.52H167.47V339.61l14.19-2.14c0-7.83,0-15.25,0-22.7,3.27.13,6.55.3,9.84.46,1,3.8,2,7.61,3,11.39l11.6,1.29-1.62,2.17,13.71,13.07c.22,4.46.6,12.18,1,20h13.11V313.08l-13.76.61c.19,8.28,1.31,17-10.53,12.26-.64-4.23-1.23-8.19-2-13.64l-14.48,2.94-.06-15.86,14.9,2.66v-39.5l-13.74-1.28V198.39l-.27.23,41.26,2.55-.46-.45v10.67l11.8-1.82q0,8.25,0,16.48H219.4l1.74,2.67L208,240.34v22h24l1.52,13.35c-5.73,1.93-17.46-3.93-13.95,10.65h12.59l1.11-10.9,11.64-.12V286.8l12.61,1.44V312l-12.78,1.93v13.74h24.93v50H207V339.37H191.71c0,16.75,0,32.77,0,48.82-3.59.28-7.2.53-10.81.79.17-3.22.35-6.44.51-9.53-22.63-3.84-26-2.44-23.49,9.27h23.24c.43,4.62.85,9.24,1.35,14.66l11-.54c-.78-5.71-1.42-10.32-2.05-14.93l14.82,2.51v25h-39v23.79c-11.11,4.5-10.93-3.46-11.91-9.38h-39c1.66,19.59,19,5,25.29,13.47.31,2.88.69,6.54,1.18,11.21h38.35l.06,11.62H168.1l-1,12.75-10.76,2.65V491H131.25c.1-3.89.19-7.79.29-11.68l-.36.35h11.08c-.26-5.34-.44-8.93-.64-13.06l-10.43-.83.33.31c-.44-3.31-.89-6.62-1.44-10.7h-24c-.57,3.16-1.14,6.37-1.79,10h-38c-.21-3.31-.39-6.15-.62-9.65l13.17-1.95c.51-3.86,1-7.82,1.61-12.27l10-2.11V405L80.3,402.39l-1-13.66-.26.3H90.9l-.79-10.34L79,377.37l.36.37v-13H66.07l-.6,13,.3-.31H54.14l.32.25L53.8,364.8l-10.3-1.5V338.44c3.92.39,7.18.72,10.46,1,.31,4,.61,8.07.93,12.41h49.65c.57-4.75,1-8.7,1.49-12.47h24.85l-.71,13.67H105c.48,4.36.83,7.48,1.14,10.3h35.15v-60.6c-23.13-3.13-25.22-2.24-23.17,9.53l12.74,1.8c-.22,4.47-.41,8.37-.6,12.21H117.53c-.81-4.82-1.48-8.77-2.06-12.24-14.17-4.62-8,8.42-12.69,13.35H80.84c-.85,4-1.51,7.14-2.19,10.37l-25.07,2c.43-3.79.86-7.58,1.27-11.41,3.44-.86,6.91-1.7,10.31-2.51.36-4.29.67-7.94,1-12.16l12.6-1.39v-36.2l-13.31.62v23.57l-10.35,2.43v26l-11.4-2.7V288.86l10.36-2.76V263.33L65,261.06l.79-10.52-.33.31H90.1c.7-5.35,1.21-9.28,1.77-13.55h39.66l-.35-.35c-.39,4.35-.77,8.69-1.17,13.15l-11.6,1.06c-1.48,3.59-2.81,6.83-4.11,10.09-10.21,2.1-11.48,6.33-7.61,25.41,24.89,2.26,27.67.32,22.32-10l-10.93-1.35L114,261h27.68c.41-8.53.78-16.29,1.15-24Zm-.7,141.54h-36v35.08h36Zm103.28-39.56V364.1l12.38-.71V339.25Z" transform="translate(-43.45 -35.47)" fill="url(#b)"/><path d="M244.55,71.81h13.81V46.63L258,47l10.55-.68L270.35,36H308c.72,3.14,1.45,6.34,2.22,9.68,9.44,4,10.74-1.94,10.74-9.64h12.9q.84,4.88,1.66,9.65c9.69,3.62,11.48-1.74,10.67-9.75h38.52V46.06l-13.08,1.41c.27,4.15.5,7.75.72,11.34-3.84,0-7.66,0-12,0v13H346.93c-.71-4.9-1.27-8.84-1.87-13h-23.8V82.67L334,84.43V98.09H309.14c0,10.13.28,19.12-.08,28.09-.37,9.18,4,9.79,12.06,7V109.08l13,.65c.52,4.9.91,8.57,1.36,12.79l11.29,1.17v36.88h24.14l1.16,12.9h12.8v-24.1L371.59,148V110.2L360,107.86c-2.16-9.21,4.51-10.5,11.29-11.38V82.72h13.48c3.38-14.89-7.81-9.14-13.45-11l.7-13.19,40.66-.38-.51-.25-2.2,13.73L398.11,72.8c-2.44,7.08-1.53,11,6.88,10.76,14.55-.4,29.1-.32,43.65-.45l-.27-.27V96.6l13.85,2.49-.3-.33v23.72l-13.59,1.64V97.68l-10.7.94v24l11,1.21-.24,25,.32-.32c-14.31.06-28.62.41-42.91.06-8.93-.22-10.41,3.46-7.54,10.93l11.9,1.08v13l-12.31,1.17c-.62,3.66-1.16,6.86-1.66,9.8l-10,2.23c-.48,4.32-.89,8-1.31,11.86H346.46V175.28l-11.3-1.5V135.29H321.39c-.63,4.43-1.18,8.41-1.77,12.59l-9.52,1.72c-.82,4.1-1.47,7.36-2.12,10.63l-13.15-.76V134.71c-10.47,2.09-11.73-3.9-11.87-10.9l11.34-1.41V109.33l-10.19.56c-.34,5.34-.62,9.77-.89,14.19-4.86.26-9.72.51-14.55.74.28-4.7.55-9.38.85-14.81H258.88v12.06l10,2.47.81,24.31H259c-.53,11.67-.53,11.67,10.38,9.47v-9.8l14.27.71v23.59l10.73,2.7v22.94c-13.7,5.06-9.25-7.36-12.19-12.49l-11.53-1c-.92-3.64-1.78-7.06-2.46-9.8-11.59-4.74-8.77,5.94-11.49,9.73l-11.88,1.34c-.5,4.44-1,8.4-1.42,12.47l-10.31,2,.46.45c-.49-4.78-1-9.55-1.57-15.17L208.07,185V174.14h23.8V160.92l-12.18-1.61-2.38-10.92c-18.07,2-5.2,17.9-12.5,25H192.58V82.8l-.26.3,13.28.14c.89,13.1,1.78,26.19,2.64,39L221,124.88l-.21-.13c-1,7.74-1.89,15.47-2.82,23h26.36V109.87c7.34-.67,14.8,0,15.08-9.5l23-4c2.36-13,2.36-13,11.74-11.39.54,3.92,1.08,7.88,1.64,11.94h12.55V71.72H284.54c-.79-5.21-1.39-9.12-2.09-13.66l-13.08.69V82.61l-11.46,2c.56,5.59,1.06,10.69,1.57,15.79l-40.07-4.1c-.66-3.72-1.42-7.93-2.28-12.79H205.35q.42-6,.81-12l-.34.2,27.64,0-.3-.25V83.41l10.33-.79c.55-4.65.94-7.91,1.33-11.17ZM386,134.58c10.91,0,20.6.28,30.26-.23,2.07-.1,5.62-3,5.72-4.73.54-10.26.26-20.56.26-31H386Zm-77.48-87.9-12.91.62V57.43h12.91Z" transform="translate(-43.45 -35.47)" fill="url(#c)"/><path d="M677.12,746.91v13.65H627.28c-.68-5-1.23-9.06-1.77-13-8.1-.92-18.08.77-22.79-3.44-4.05-3.61-2.09-14-2.81-21.58-12.34-5.24-9.79,5-11.31,11.62l-12.48,1.8c-.49,3.13-1,6.31-1.41,9.11-10.55,4.79-10.73-2.74-11.28-9.34l-12.82-1.11c-.21-4.14-.41-8-.67-13l25.62-1.29V694.55l-.38.42H588c1.52-10.18,1.52-10.18-12.79-11.65l.31.32c-.26-4.35-.52-8.7-.79-13.26l-10.85-.62.33.3c-.2-3.34-.41-6.68-.64-10.54l-12.89-1.72V644.94h23.06l2.79-11.26,11.91-1,1.72-12.82,10-1.8c.42-3.05.82-6,1.33-9.65h9.31L621,618.74c2.58-3,5.15-5.93,9-10.38h21.85v35.23h24.2c3.72-8.91-1.06-11.2-9.39-10.74V619.64h24.64v24.62h25.57v25l26.88,1.3-.37-.38v50.62h23.94v25.61H743.23c-.49,4.86-.86,8.51-1.33,13.12h-24V748.39c9.8-3.34,13.19-9.89,9.89-22.06-.71-2.61-5.29-4.17-9.57-7.31-1,7-1.5,10.66-2.14,15.19H703.52V721.79l8.69-1.11,13.38-14.06,4,.06-6.33-11.34-8.86,11.13,1.85,2.07-12.45,1.83c-.66,3.1-1.34,6.27-2.07,9.64l-11,2,.26.23V710.44H666.75v35.35l10.69,1.36Zm-35.21-39.63-2.63-11.4H615.77v14.53L642.08,707c-.84,4.31-1.67,8.63-2.52,13l-12.44,1.89V746h12.31l2-9.81,10.19-2.48C650.62,723.62,657.58,711.46,641.91,707.28ZM629.1,657.22l-4.76-12.8-9.51,1.18c.41,4.85.73,8.69,1.13,13.38l13.14-1.77-4.66,12.17c-8.3.47-16.71,1-25.09,1.39.58-8.36,1.16-16.71,1.74-25-12.88-1.37-14.54,3.12-10.1,23.52l8.64,1.15c.74,4.25,1.48,8.5,2.19,12.54H640v-23.3Zm72.6,37.54V659.54H666.94v35.22ZM614,710.3c-8.57-1.24-15.82-2.1-12.08,10C609.05,720.92,617.11,723.35,614,710.3Z" transform="translate(-43.45 -35.47)" fill="url(#d)"/><path d="M539,617.55v25.9l-13.87,1.84c-.51,4.11-1,8.08-1.49,12.05l-1.73-1.42-8.72,8.57L524,674.11c-.11,1.06-.53,5.27-1,9.48l.27-.22-9.21,1.47-2.37,10.08.17-.25-13.11,1.48c.38,7.64-2.08,18,1.89,22.09,4.19,4.34,14.52,2.75,22.93,3.84v12.36H488.4l-1.79-12.63-12-1.78c-5-13.42,6.77-9,12.16-11.86V684.61l-12.37-1.13c-.56-4-1.12-7.93-1.81-12.86l-10.68-.88.31.33V645.22H448.79c-.63,4.59-1.17,8.56-1.68,12.32l-9.51,2.15v23.93h11l-.27-.32v10.88l12.77,2v38.2H448.7c-.4-4-.77-7.73-.87-8.7l-13.95-13.26c-7.38-5.24-12-2-12.29,7.82H386.91c-.82-3.22-1.62-6.34-2.61-10.2L360.94,709c-.6-5.43-1.13-10.25-1.65-15.05,3.82.41,7.62.79,11.42,1.18l2.14-2.88c-2.25-2.74-4.16-7.37-6.83-7.86-8.24-1.53-4.81,6.11-6.42,9.86l-12.85,1.4V669.73l-.33.34h25.41V645.32c13.77-1.55,13.77-1.55,12.2-11.35H359.89v24.45H346.41l.33.33V618.81c-8.31,0-14.29.43-20.15-.23-2.11-.24-3.92-3.08-5.87-4.73,1.93-2.06,3.66-5.61,5.83-5.9,6.12-.81,12.41-.29,19.92-.29V581.35l13.86,1.78v33.93c11.73,6,10.33-4.45,13-9.56l11.3.7-1.8,2.76,12.28,11.16c1.43-7.08,2.08-10.26,2.82-14l23.48-1.11c.85-5,1.51-9,2.31-13.67l12.24.66V606.7l-12.55,1.36v36.46l12.39-.58c.64-3.82,1.17-7,1.63-9.7l11.27-2.88V582.73l13.51-1.42v10.86l10.47,2.4c.56,4.57,1,8.54,1.65,13.46l24.11-1.46-.35-.37,1.71,11.73,14.59,2.37-.37-.37c-.3,2.17-1.49,4.78-.69,6.39,1.31,2.61,3.93,4.57,6,6.8,1.7-2.25,4-4.29,4.9-6.82.65-1.77-.54-4.22-.9-6.37l-.36.37,16.24-2.44ZM387,659.22v35.14H421.7V659.22Zm111.33-2.37c-4.76,2.28-8.31,3.12-10.3,5.35-.86,1,.84,5.61,2.62,7.11,1.45,1.22,4.75.24,7.68.24Z" transform="translate(-43.45 -35.47)" fill="url(#e)"/><path d="M486.8,83.1h11.75V58.58h13.64c.49,3.94,1,7.93,1.58,12.73h10.48V36H537.9c.51,3.44,1,6.65,1.4,9.49C550,50,549.88,42.33,550.64,35.84h63C614.39,39,615.13,42.18,616,46l9.61,1.39c.48,3.35.91,6.27,1.44,9.93h12.15C644.29,45.07,635,47,627.28,46.42c-.3-3.15-.6-6.26-1-10.23h24.78V96.44L641,98.77l.29.35c-.42-8.54-.83-17.08-1.27-26.26H626.47V96.62l-12,2.52v49H601.6c-.55-4.49-1-8.46-1.64-13.42l-11.3.7.09-11.7,11.16-1.25a42.77,42.77,0,0,0,.76-5.85,62.55,62.55,0,0,0-.7-6.48l-11.22-2.25V98.53H575.54v12l-12.87-4.23.15.09c2.63-5.52,1.32-8.68-5.22-8.69H538.49v24.86h-13.3c-.61-4.64-1.13-8.61-1.77-13.46l-9.44.79v24.33l24,1.09V148l-12,1.43c-1.62,4.37-3,8.16-4.41,12l0,0c-4.58-2.11-8.37-2.11-8.44,4.21-.17,14.91-.06,29.82-.06,47.31,5.16-2.49,10.41-3.65,10.59-5.34,1.26-12,8.27-7.41,14.19-6.28v34.56l-13.46,1.8v37.85H513.78c-.62-4.69-1.15-8.71-1.67-12.7l-12.75-1.54c-.43-8.49-.83-16.31-1.23-24.14,15.7-1,15.7-1,12.81-11.78l-12.89.81V186.52c-13.71-4.5-9.16,7-12.18,13.21l-12.64-1.21V186.66l-11.63-2.34V160.88L448,159.09c.25-3.93.45-7.23.66-10.53l-.32.32,12.88-.71c.73-5.11,1.29-9.06,2-14,18.26,2.48,5.09,18.31,12.27,25.19h22.12c4.25-10.42-3.34-10.6-9.62-11.56-.43-8.44-.83-16.25-1.23-24.05l12.4-1.39c-.8-5.74-1.5-10.78-2.2-15.82l14.48,3c-.37-1.1-.75-2.21-1.13-3.32l13.91-13.39c-.05-1-.23-4.56-.4-8-14.61-5.56-8.45,8.24-12.4,12.31l-2.65-2.41q-5.88,5.88-11.73,11.76c-8.64,2.78-11.12,9.09-10,17.46l-12.83-1.57V98.56l12.9-1.75v-14Zm89.39.37,12.22-.62v-37c-9.56,4.4-24.19-8-25.5,11.5l-12.36,1.86v13h23.91Z" transform="translate(-43.45 -35.47)" fill="url(#f)"/><path d="M192.62,694.89v-24l13-1.65c2.17-11.89,1.32-12.26-22.75-9.94-.66,3-1.37,6.19-2.32,10.52H156.9c-.46,5-.83,8.93-1.25,13.47H142.83V644.92l-.28.22,13.12-1.48c.27-3.7.5-6.92.73-10.13l-.31.31,10.7-1.65c.63-4.59,1.16-8.52,1.68-12.32l12.76-2.07V592.68L181,593h25c1.09,6.06,1.8,10,2.73,15.13l24.89-2c-.62,4-1.24,7.93-2,12.92H182.34v14.51C192.71,629.93,193,637.35,194,644h11.79c2.2-5.55,1.35-15.67,13.31-8v47h25.8V644.93l-.26.25,13.74-.31v39.26l11.38-.88V694.7h13.81c-.27-4.27-.5-7.87-.72-11.48l11.78.43-.41-.44c.42,8.23.84,16.46,1.29,25.19l12.6,2.12,2.24,10h23.25c1.78-5.46.41-14.91,11.9-9.28.24,3.46.53,7.48.82,11.48l.22-.29-10.9-1.56c-.66,5.2-1.16,9.16-1.71,13.6l-12.46,1.28c-.24,3.11-.47,6.19-.76,9.95l13.4,1.54v12.74H284V710.41l-12.87-.81c-.91,3.57-1.69,6.68-2.59,10.2l-9.73,2.27c-.52,8.76-1,17.34-1.53,25.92l.31-.3-11.86-1.87c-2.51-4-.71-14.83-12.89-9V760H219.4c-.63-4.37-1.21-8.39-1.63-11.33-7.23-6.92-22.74,5.53-25.6-12.53l13.92-1.61v-12.6l-12.45-2.18c-.39-4.11-.73-7.83-1.08-11.54l-.22.32,14,.87V696l-14-1.34Zm64.43,15.19L233.63,709c-.73-5-1.31-8.92-2-13.64l-12.26.62v24.89c10.89,0,20.94-.22,31,.07C257.94,721.15,259.43,717.61,257.05,710.08ZM308.33,746V735.82H295.91C292.59,749,300.79,746.32,308.33,746Z" transform="translate(-43.45 -35.47)" fill="url(#g)"/><path d="M90.62,581.34V593H66.39c-.49,5.21-.83,8.88-1.27,13.55l-10,1.21c-.63-9.66-1.2-18.45-1.75-27.22,3.79.46,7.56.89,11.5,1.35v-14l-10,.87c-.5,4.67-.89,8.34-1.28,12l-10.14,1.41V480.6H53.84v33.95c10,5.16,12.47.62,12.11-8.91L79.29,507l-.21-.27q.63,11.64,1.26,23.26l10.75,2.5c-.24,3.91-.45,7.24-.65,10.58H67.55c-3.16-12.28-3.16-12.28-12.34-10v22.76H91.12c-.38-5-.68-9-1-13h13.65l2.39-10.54,9.7-2c.63-4.63,1.18-8.62,1.65-12.1l14.92-3q-.42,8.49-.85,17H117.53c-3.24,15.16,8.34,8.91,14,10.93q0,6.93,0,13.84H105.42l.66,11h25.5q0,6.93-.07,13.85c-15,1-15,1-13,11.69l13.09-.73q-.33,6.65-.65,13.33c-4.53,1-9.08,2-14.47,3.08.42,3.49.78,6.56,1.2,10.08l13-.76V605.56l14.71,9.74-1.65,2.94,12.34,1.87v13.73l.31-.31H142.55v11.61l.28-.22-10.66.91.2.21c-.89-3.94-1.78-7.87-2.82-12.44H103.89l.33.21c.29-4.64.57-9.28,1-15.31L79.08,620l.18.31c.35-3.67.7-7.33,1.14-12l24-1.36V582.83l-14.1-1.21V568.76c-13.37-2.86-10.72,5-9.77,13.11Z" transform="translate(-43.45 -35.47)" fill="url(#h)"/><path d="M129.94,760.23H43.83V670.71h86.11ZM55,745.84h60.81v-61.2H55Z" transform="translate(-43.45 -35.47)" fill="url(#i)"/><path d="M767.15,122.6H677.94V36.37h89.21Zm-14-75H692v60.61h61.14Z" transform="translate(-43.45 -35.47)" fill="url(#j)"/><path d="M43.45,122.49V36.08h86.66v86.41Zm11.26-14.44h61.15V47.67H54.71Z" transform="translate(-43.45 -35.47)" fill="url(#k)"/><path d="M550.6,620,539,617.55l.21.31-1.34-9.69H525.54c-.92,4.37-1.73,8.25-2.54,12.13l.36-.37h-9.31l.37.37c-.93-4.13-1.86-8.26-2.67-11.9l-13.63-2.2.35.37V567.19c-12.17,5-10.25-5-12.43-10.43H461.9l-.42-13.07-.27.32,26.39-2.58v-23l10.8-2.8v26.19h26.21c-.63-4-1.13-7.08-1.62-10.19l15.06-1.33c.44-4.79.78-8.45,1.16-12.55h10c.6,4.62,1.11,8.57,1.59,12.3l14.36,2.87-.2-.19c-.7,3.12-1.41,6.25-2.28,10.06H539.34v14H513.87v35.86h25.34v13.82l10.22,2.44.92,11.34Z" transform="translate(-43.45 -35.47)" fill="url(#l)"/><path d="M702,287.05h14.16V251.43L703.35,250V211.74l12.37-.74c.69,4.49,1.31,8.45,2.12,13.72h34.89c.85,9.26,1.58,17.29,2.32,25.33l.29-.31-12.28,1.79v34.71l-14.77,2.13c0,8.26.52,16.77-.2,25.16-.4,4.74,3.9,12.94-5.14,13-2.79,0-5.65-7.05-10.23-13.25l-10.66.86.24.14,0-27.52Z" transform="translate(-43.45 -35.47)" fill="url(#m)"/><path d="M702,531.61c.5,3.28,1,6.55,1.53,10.13l12.68,1.7c.49,4.07.93,7.77,1.43,12L728,557.7v23.09l13.17,2.06c.73,2.93,1.52,6.1,2.59,10.43h23.57v15.2l-41.42-3.08.11.06c5.4-9.19,1.06-12.6-7.79-12.79-1-3.64-1.82-6.79-2.69-10l-13.61-1.37.45.42V568.39l-11.66-.6.31.29V556.46H665.79l.33.31V517.92l11.33-2-.31-.33c.27,5,.54,10,.81,15.1l24.37,1.15Z" transform="translate(-43.45 -35.47)" fill="url(#n)"/><path d="M132.29,159.21c-.76,4.34-1.51,8.68-2.43,14H106c-.54-4.21-1-8.18-1.62-12.6H65.87c.24,4.22.46,8.08.65,12l.18-.2-11.44,2-1.77-13.58-10-1.46V148.93H78.81l1.68-13.56h23.89c.51,4.1,1,7.78,1.56,12.46l9.69.79c.7-4.83,1.27-8.82,1.92-13.28h24v24.15c-3.29,0-6.46,0-9.65,0-.85-3.44-1.67-6.91-2.48-10.34h-12v10.93Z" transform="translate(-43.45 -35.47)" fill="url(#o)"/><path d="M168.36,124.74l-.68,9.09,13.76,1.55v49.17c11.18-.42,13.41,5.26,10.87,14.07l.27-.23-10.47,2.8c-.38,8.2-.74,15.9-1.1,23.59l-12.59,1.08L166.63,236l-10.55,1,.32.35V212.41l10.71-2.58v-34.3l-11.76-2.95.26.31,1.18-11.64c5.15-1.71,14.11-.44,9.8-11.44l-9.74-2.18c-.42-7.56-.84-15.3-1.27-23l-.25.3,13.24.12Z" transform="translate(-43.45 -35.47)" fill="url(#p)"/><path d="M641,124l10.22-1.57c.42-4.11.79-7.76,1.25-12.33H666v38.51h24.58c.28,4.05.48,6.9.72,10.41l-13.63,2V184.7h-11.9l.34.4c-.27-3.28-.53-6.56-.82-10.26l-12.65-1.33c-.6-4.51-1.12-8.46-1.8-13.62H627.08V135.1h14.1v12.83c13.66,2.72,10.83-5.2,9.85-13.17l-10.12.61.28-11.67Z" transform="translate(-43.45 -35.47)" fill="url(#q)"/><path d="M412.65,58.17l1.11-12.74v.06l21.44,1.71,2.29-11.12h9.78c.53,3.46,1,6.64,1.65,10.69H486.8V83.1l.3-.26-13,1.56-1.49,12.36-10.67,2,.3.33V84.2l-13.85-1.36.27.27c-.42-8-.85-16-1.33-25.19H412.14Zm60,13.83V56.87c-4.31,1.78-8.48,2.23-9.95,4.46s-.33,6.29-.33,10.15Z" transform="translate(-43.45 -35.47)" fill="url(#r)"/><path d="M729.35,490.71l-1.73,25-10,2.27c-.48,3.67-1,7.6-1.61,12.47l-14,1.2.29.23V517.93l-25.18-2.34.31.33c-.36-3.2-.71-6.41-1.19-10.73l-24,1.47.35.37q0-8.17,0-16.35l-.35.36h37.58c2.66,6.93-.93,17.91,12.92,13V480.72H716L717.92,491h11.65Zm-11.27,25.95c-1.66-4.57-1.93-9.1-4.09-10.32-2.71-1.54-7-.37-11.33-.37.29,4.22.5,7.33.74,10.69Z" transform="translate(-43.45 -35.47)" fill="url(#s)"/><path d="M755.34,184,729.62,186c-1-4.47-1.73-7.69-2.62-11.65H703.62V161.12l12.64-2c.39-7.44.79-15.13,1.24-23.63h24.19v12.47l-12.28,1.41V173.1h12.11l1.63-11.44,1.5,1.38,13.81-13.92h8.7v24.41l-13.1,1.15c.38,3.38.73,6.42,1.08,9.47Z" transform="translate(-43.45 -35.47)" fill="url(#t)"/><path d="M192.58,82.8l-24.05,1.27c-.57,4.27-1.09,8.23-1.71,12.86h-10c-.36-4.21-.66-7.88-1.05-12.49L143,82.81V59.08l12.93-1.92V36l10.5-.51,2.07,10.47,12.94,1.69V71.81h11.09l-.26-.35,0,11.64Z" transform="translate(-43.45 -35.47)" fill="url(#u)"/><path d="M79.32,226c.3-4.46.61-8.92,1-14.42H100c5.06-5.17,8.23-8.4,11.39-11.64l9.28,10.6,21.87,1.34v25.42l.23-.28-11.62,0,.35.35-1.64-11.65H79.05Z" transform="translate(-43.45 -35.47)" fill="url(#v)"/><path d="M192.56,708.19c-5.81,1.72-13.55,1.39-11.06,11.9H143.14v-25.2h49.48l-.35-.27.07,13.89Z" transform="translate(-43.45 -35.47)" fill="url(#w)"/><path d="M103.89,633.6c.45,3.14.89,6.29,1.46,10.26H43.78V619.79h9.5C55.83,625,50.59,637,64.78,632l1.66-13,12.82,1.31-.18-.31c.5,4,1,8,1.57,12.54l23.57,1.28Z" transform="translate(-43.45 -35.47)" fill="url(#x)"/><path d="M754.2,454.78h13v36l-9.1.49L747.5,480.14,739,490.71h-9.64l.22.26c-.52-8.08-1-16.16-1.63-25.46h25c.62-4.41,1.09-7.72,1.56-11Z" transform="translate(-43.45 -35.47)" fill="url(#y)"/><path d="M384.12,747.9l-12-1.5c-.4,5-.69,8.64-1.07,13.3l-9.93,1c-.58-4.65-1.08-8.61-1.67-13.28l-12.91-1.85v-23.2l-.23.3c7.93-.76,15.87-1.54,24.31-2.37.65,5.65,1.11,9.61,1.62,14L385.6,736c-.59,4.31-1.12,8.23-1.66,12.14Z" transform="translate(-43.45 -35.47)" fill="url(#z)"/><path d="M79.29,507c.31-4.48.61-9,.95-14l10.14-2.61c.47-2.91,1-6.09,1.62-10.1h23.32c.79-4.74,1.45-8.66,2.38-14.13h13.82l-.33-.31q0,6.94,0,13.89l.36-.35-15.28,1.51c.62,3.8,1.14,6.95,1.66,10.11L106,492.25c-.68,4.74-1.24,8.67-1.8,12.62l-25.16,1.81Z" transform="translate(-43.45 -35.47)" fill="url(#aa)"/><path d="M335.09,669.78c-.26,4.09-.52,8.19-.85,13.43H294.17l.41.44V670.09H282.87c.56-3.56,1.12-7.11,1.71-10.84H307.9l2.79,10.82H335.4Z" transform="translate(-43.45 -35.47)" fill="url(#ab)"/><path d="M65.8,250.54H55.29c-.59-4.48-1.1-8.41-1.61-12.28-10.23-2.67-10.23-2.67-10.19-12l10-1.93c.43-3.83.88-7.76,1.42-12.55l9.9-.72,1.5,13.24,13,1.64-.27-.32c.17,3.21.34,6.41.53,10l-13.43,1.77c-.24,4.68-.46,9-.68,13.42Z" transform="translate(-43.45 -35.47)" fill="url(#ac)"/><path d="M743.25,658.4H729.09V619.63h12.55c.56,4.37,1.07,8.32,1.59,12.36l12.14,2.76-.2-.2-1,10.63.27-.3H742.86v13.86Z" transform="translate(-43.45 -35.47)" fill="url(#ad)"/><path d="M258.36,46.63H208.17V36H258V47Z" transform="translate(-43.45 -35.47)" fill="url(#ae)"/><path d="M79,185.07h25.45v14.27H81.36c-1,4-1.71,7.13-2.64,11H66.35v-9.8l12.93-1.66V184.79Z" transform="translate(-43.45 -35.47)" fill="url(#af)"/><path d="M725.89,605.4c1,3.82,1.9,7.64,3,12l-11.11,2.71c-.54,3.9-1.1,7.84-1.62,11.6-14.75,2.82-15.86.66-12.37-22.88l22.23-3.4Z" transform="translate(-43.45 -35.47)" fill="url(#ag)"/><path d="M408.7,748c6.47-1.94,16.32.4,14-12.27H436v24.07H412.68c-1.26-3.92-2.54-7.9-3.8-11.91Z" transform="translate(-43.45 -35.47)" fill="url(#ah)"/><path d="M755.05,250.05l12,1.23v35.57h-13.7c.67-12.78,1.32-24.93,2-37.09Z" transform="translate(-43.45 -35.47)" fill="url(#ai)"/><path d="M755.14,184.15,767,186.41v24H744c-4.58-10.11,1.8-11.4,8.67-11.19,1-5.82,1.82-10.54,2.65-15.29C755.34,184,755.14,184.15,755.14,184.15Z" transform="translate(-43.45 -35.47)" fill="url(#aj)"/><path d="M65.42,388.65v14.2H43.67V378.92l10.79-1.27-.32-.25c.22,3.85.44,7.7.66,11.65h11Z" transform="translate(-43.45 -35.47)" fill="url(#ak)"/><path d="M677.15,237l0,25.19.33-.3-25.14.33q.13-5.83.25-11.65l-.32.31,13.88-.82V237l-.32.32h11.65Z" transform="translate(-43.45 -35.47)" fill="url(#al)"/><path d="M157,735.63h22.79c2.23,9.75,2.23,9.75-11.71,12.13-.29,3.49-.6,7.15-1,11.88L157,760.81Z" transform="translate(-43.45 -35.47)" fill="url(#am)"/><path d="M767.57,313.81v12.55h-24.5c-.2-3.85-.4-7.75-.64-12.55Z" transform="translate(-43.45 -35.47)" fill="url(#an)"/><path d="M155.35,172.58c.38,8.49.76,17,1.17,26.33H143V175.29c4.18-.77,8.43-1.55,12.65-2.36C155.61,172.89,155.35,172.58,155.35,172.58Z" transform="translate(-43.45 -35.47)" fill="url(#ao)"/><path d="M641,98.77q0,12.58,0,25.18l.22-.25c-16.19-1.06-18.46-5.45-12.62-26.15l12.68,1.57Z" transform="translate(-43.45 -35.47)" fill="url(#ap)"/><path d="M523,683.59l16.22,0-.29-.28c-.33,3.65-.67,7.3-1,11.32l-12.46,1.24c-.62,4-1.29,8.22-2,12.65-15.22,4.53-8.18-9-11.6-13.82l-.17.25h12.82c-.49-4.55-.87-8-1.24-11.55Z" transform="translate(-43.45 -35.47)" fill="url(#aq)"/><path d="M539.26,683.56c-.19-4-.38-8-.64-13.5h25.57l-.33-.3v13.87l.32-.36H539Z" transform="translate(-43.45 -35.47)" fill="url(#ar)"/><path d="M498.09,760.11h-24V747.2h24Z" transform="translate(-43.45 -35.47)" fill="url(#as)"/><path d="M689.9,748l-12.78-1,.32.24v-26.4L691,722.2l-.26-.23q-.48,13.08-1,26.15Z" transform="translate(-43.45 -35.47)" fill="url(#at)"/><path d="M743.29,516.56c-.39-12,2-12.92,24-9.91v9.91Z" transform="translate(-43.45 -35.47)" fill="url(#au)"/><path d="M701.91,581.26V606.5c-6.45,1.78-10.85,1.46-10.58-7.11.19-6-.22-12-.36-18l-.24.29,11.63,0Z" transform="translate(-43.45 -35.47)" fill="url(#av)"/><path d="M703.3,186.13h13v12.92h-13Z" transform="translate(-43.45 -35.47)" fill="url(#aw)"/><path d="M130.94,199.13H117.53V186.07h12.6C130.37,189.92,130.61,193.82,130.94,199.13Z" transform="translate(-43.45 -35.47)" fill="url(#ax)"/><path d="M563.87,620v12.5H550.6V620l-.25.22,13.81.06Z" transform="translate(-43.45 -35.47)" fill="url(#ay)"/><path d="M132.17,645.83c-.7,3.61-1.4,7.22-2.35,12.14l-12.51.72c-.25-4.54-.46-8.43-.79-14.36,5.92.63,10.87,1.15,15.83,1.69Z" transform="translate(-43.45 -35.47)" fill="url(#az)"/><path d="M192.54,71.81c.32-4.08.63-8.15,1-13.19l13.8-.61-1.53,13.73.34-.21-13.88-.07Z" transform="translate(-43.45 -35.47)" fill="url(#ba)"/><path d="M155.58,124.58l-12.83-2.33c-.16-3.62-.34-7.49-.56-12.29h14.17c-.36,5.43-.67,10.15-1,14.9C155.33,124.88,155.58,124.58,155.58,124.58Z" transform="translate(-43.45 -35.47)" fill="url(#bb)"/><path d="M755.37,634.75c-.6-4.69-1.2-9.38-1.92-15h13.79v12.28c-4.28.86-8.2,1.65-12.09,2.46Z" transform="translate(-43.45 -35.47)" fill="url(#bc)"/><path d="M691,581.35,678.1,582V568.08H691l-.31-.29,0,13.85Z" transform="translate(-43.45 -35.47)" fill="url(#bd)"/><path d="M677.12,262.16H690.7v13.53l.29-.24H677.45V261.86Z" transform="translate(-43.45 -35.47)" fill="url(#be)"/><path d="M754.21,645.18l12.95-.71v13.94h-12.9l.24.32,0-13.85Z" transform="translate(-43.45 -35.47)" fill="url(#bf)"/><path d="M168.57,125c-.38-4.67-.75-9.34-1.21-15h13.47v12.09c-4.15.84-8.34,1.69-12.5,2.57Z" transform="translate(-43.45 -35.47)" fill="url(#bg)"/><path d="M461.92,669.74V683.3H448.37l.27.32V670.07h13.59Z" transform="translate(-43.45 -35.47)" fill="url(#bh)"/><path d="M754.26,581.23V568.74h12.87v12.49Z" transform="translate(-43.45 -35.47)" fill="url(#bi)"/><path d="M726.78,531.58h15.77c-.85,3.9-.63,7.93-2.54,10-1.43,1.54-6.48,1.75-8.32.39C729.45,540.32,728.89,536.4,726.78,531.58Z" transform="translate(-43.45 -35.47)" fill="url(#bj)"/><path d="M413.76,45.43l-16.15,1.63c-.22-4.22-.39-7.29-.58-11h12.35c1.52,3.31,2.94,6.4,4.37,9.48C413.75,45.49,413.76,45.43,413.76,45.43Z" transform="translate(-43.45 -35.47)" fill="url(#bk)"/><path d="M396.7,747.41c.19-3.61.38-7.21.6-11.33,2.56-.34,4.64-.76,6.73-.85,1.8-.07,3.61.22,7.35.5-.95,4.4-1.8,8.33-2.66,12.27l.16-.1c-4.17-.24-8.31-.5-12.46-.76Z" transform="translate(-43.45 -35.47)" fill="url(#bl)"/><path d="M233.46,71.77c-.22-4-.45-8-.66-11.83,10.78-2.61,10.78-2.61,11.75,11.87l.27-.36-11.66.07Z" transform="translate(-43.45 -35.47)" fill="url(#bm)"/><path d="M79.32,388.73l-13.9-.08.36.4q0-5.82,0-11.64l-.3.31,13.89,0-.36-.37L79.06,389Z" transform="translate(-43.45 -35.47)" fill="url(#bn)"/><path d="M767.44,531.16V541.7c-7.36.86-15.38,4-12.93-10Z" transform="translate(-43.45 -35.47)" fill="url(#bo)"/><path d="M79.28,184.79l-13.47.78c.31-4.92.57-9,.86-13.17l-.15.17c3.76.83,7.5,1.7,12.49,2.86,0,2.9,0,6.27,0,9.64Z" transform="translate(-43.45 -35.47)" fill="url(#bp)"/><path d="M257.26,748l11.48-1.76V759.8h-9.91c-.41-4.17-.81-8.17-1.24-12.14C257.57,747.69,257.26,748,257.26,748Z" transform="translate(-43.45 -35.47)" fill="url(#bq)"/><path d="M383.94,748.1l12.76-.7-.28-.26c0,4,0,8.05,0,12.73h-9.87c-.85-4.26-1.62-8.14-2.42-12Z" transform="translate(-43.45 -35.47)" fill="url(#br)"/><path d="M689.77,748.12l12.22-1.9v13.66h-9.5c-.91-4.3-1.73-8.13-2.57-12Z" transform="translate(-43.45 -35.47)" fill="url(#bs)"/><path d="M754.64,694.59c-3-12.17,4.16-11.14,12.37-10,.31,2.93.63,6,1,10Z" transform="translate(-43.45 -35.47)" fill="url(#bt)"/><path d="M690.7,275.69l11.32.88v10.48l.3-.26H691.89c-.37-4.72-.63-8-.9-11.34Z" transform="translate(-43.45 -35.47)" fill="url(#bu)"/><path d="M754.26,658.41c-.34,3.31-.68,6.62-1.09,10.67-3.37.38-6.59.75-9.79,1.14l.39.39c-.16-4.06-.34-8.14-.52-12.21l-.39.34H754.5Z" transform="translate(-43.45 -35.47)" fill="url(#bv)"/><path d="M346.75,669.73l-11.66,0,.31.29q-.12-5.84-.25-11.66l11.59.34-.33-.33c0,3.88,0,7.77,0,11.65Z" transform="translate(-43.45 -35.47)" fill="url(#bw)"/><path d="M513.9,747c14-1.88,9.81,6.32,9.92,12.9H513.9Z" transform="translate(-43.45 -35.47)" fill="url(#bx)"/><path d="M575.56,694.55l-11.37,1V683.27l-.32.36H575.5l-.31-.32V695Z" transform="translate(-43.45 -35.47)" fill="url(#by)"/><path d="M346.7,581.65H321.32V568.71l12.08-1.42c4.81-12.15-3.91-10.87-12.07-10.66-.33-4.37-.62-8.24-1-12.89l13.73-2.14V518.13l11.33-2.06c.16-2.06.84-5.93.39-6.06-7.53-2.3-15.2-4.13-22.84-6.06l.52,3.3L313,519.44l-2.81-1.85c-.68,4.27-1.36,8.53-2.11,13.19l-13.8.81.31.26V518l-11.65-2.48.37.22c.11-13.82.49-27.64.22-41.45-.16-8.1,3.36-9.62,11.32-7.14v23.88H308l-.2-.37c.79,4.64,1.57,9.27,2.4,14.17H320c.48-4.64.89-8.6,1.31-12.68l12.84-1.65,1.28-24.72-.32.32,10.32-.78c.45-4.46.77-7.67,1.09-10.88h13.05c.51-9,.93-16.42,1.32-23.88,3.39-1,6.82-1.89,10.05-2.77V403l-11.7,3.27V390H335.43v12.31c8.26,1.25,16.15,2.44,24.06,3.6q.83,12.48,1.62,25l-26.35-2.25c.31,5.46.53,9.08.74,12.71l-14-.47.45.46c-.78-3.63-1.56-7.26-2.45-11.43l-9.81-1.73V404.65l10.16-1.92V390.84l-9.73-2.53c-4.28-10.73,4.26-9.87,9.92-11.17v-8.57l-10.89-11.11L318.4,350c1.51,6.37,2.33,9.83,3.22,13.6l12.06.81c.6,4.18,1.17,8.15,1.84,12.88H371.3V338.94H385V363h25.53V339.18l24.65-1.08c.86-3.37,1.66-6.52,2.77-10.84l11.61,1.55-.16-.14c-.49,2.78-1,5.56-1.74,9.77h25.06v24.91H449.1c-.65-2.93-1.33-6.05-2.18-9.93H423.28c-.2,3.14-.38,6-.6,9.46l13.06,1.92c.55,4,1.11,7.94,1.84,13.17h35.13c.35,4.5.6,7.79.85,11.08l-10.59.87c-.49,4.22-.94,8.15-1.51,13.08l-11.45.68c-4.38-4.58,2.34-18.26-12.94-13.2v39.43l.25-.3h-15c.66,4.72,1.15,8.2,1.63,11.69h-12.1c-.6,4.67-1.11,8.65-1.62,12.55H397.69c-.66-4.76-1.2-8.74-1.7-12.33-13.72-4.57-9.06,7.14-11.45,12.29l-13.14,1.92c.37,3.68.69,6.78,1,9.64l12.28,1.3c.68,4.52,1.27,8.49,2,13.27l9.69-.72c.5-4.74.89-8.4,1.31-12.35h50.88V491h13.7l-.34-.39v14.26H437.24c-.38-8-.75-15.71-1.16-24.13H412.59c-.83,3-1.78,6.51-3,11H372.07v24.3h23.84c.59-2.89,1.24-6.07,2.14-10.44,4.62,0,9.16-.59,13.45.18,3.76.68,7.24,2.89,10.84,4.42l-7.6,9.19-3.45-1.53.9,14,.22-.25H397.53c-.48,8.92-.91,17-1.34,25.17l.32-.32H384.86l.32.29V543.45H346.7Zm75-202.64h-35.6v35.18h35.6Zm-75.3,151.4h12.89V517.77H346.44Z" transform="translate(-43.45 -35.47)" fill="url(#bz)"/><path d="M371.31,262.19H385.1l-.25-.32c.46,4.3.91,8.6,1.43,13.5H396.5V261.87l-.36.31h25.34c.62,4.57,1.15,8.55,1.72,12.8,4.82,2.82,16.84-2.43,12.38,11.91H397.87c-.42,4.86-.74,8.73-1.14,13.38l13.43,2.27v25.08H371.33l.3.32q0-12.62,0-25.23l-.29.32,14-2.5q-.3-6.28-.59-12.48l-13.46-1.3.32.33V261.87Z" transform="translate(-43.45 -35.47)" fill="url(#ca)"/><path d="M244.45,225.62l13.59-.89V209.66l11,2.63c.34,3.88.66,7.59,1.17,13.33h24.38c2,8.15-1.43,12-11.33,11.46v50H269.86V262.18H258V251H233.44c-.24-5-.42-8.84-.66-13.74C241.79,238,245.58,233.93,244.45,225.62Z" transform="translate(-43.45 -35.47)" fill="url(#cb)"/><path d="M371.62,339.26,347.08,338c-.7-3.45-1.33-6.57-2.16-10.64l-9.82.52V262.19h25.19l-.31-.32v13.66c-7.36,1.1-18.07-1.44-12.28,11.55h23.92l-.32-.33q0,8.14,0,16.28l.29-.32-10.68-.6v24.43l10.7,1.4-.3-.32Z" transform="translate(-43.45 -35.47)" fill="url(#cc)"/><path d="M498.47,225.62q0,5.82,0,11.64h-11v24.19h-50V237l-.24.25,11.66.11-.46-.43v12.94H461.6c.24-4.82.44-8.87.64-12.93l-.33.37,11.34-1.67V212.07L486.69,211c.59,5.13,1.05,9.09,1.57,13.57Z" transform="translate(-43.45 -35.47)" fill="url(#cd)"/><path d="M473.55,198.34q0,7,0,14.06l-50.26-2.22V174.93h24.59v25.24Z" transform="translate(-43.45 -35.47)" fill="url(#ce)"/><path d="M294.22,226c.42-4.44.85-8.88,1.32-13.8l8.79-1.5L315,199.81l9.24,10.7h9.34c.71-3.5,1.35-6.67,2-9.71l11.19-2.49c-.4,8.48-.81,17-1.32,27.67Z" transform="translate(-43.45 -35.47)" fill="url(#cf)"/><path d="M588.75,159.89l10.93.5c.64,4.27,1.28,8.52,2,13.07l8.36.82,13.45,14,2.3-1.48.59,10.82-3.17-1.43L614,210l-13.05,1.06V186.87L590,184.33C589.56,176.07,589.16,168,588.75,159.89Z" transform="translate(-43.45 -35.47)" fill="url(#cg)"/><path d="M589.09,135l0,25.24H576.31c-.65-4-1.16-7.18-1.7-10.45-8.87-3-12.31.42-10.52,9.63H550.55V135Z" transform="translate(-43.45 -35.47)" fill="url(#ch)"/><path d="M269.36,327.93V302.62L282.88,301V286.73l10.59-.72-.19-.2q.63,21,1.27,42.09Z" transform="translate(-43.45 -35.47)" fill="url(#ci)"/><path d="M589,212.34,575.2,210V200H550.78V175h24.13v23.53l14.11,2Z" transform="translate(-43.45 -35.47)" fill="url(#cj)"/><path d="M575.49,209.68l0,27.61L565,235.91l-1.94-10L551,224.8V211.89Z" transform="translate(-43.45 -35.47)" fill="url(#ck)"/><path d="M512,338.91c.31,4,.63,8.08,1,12.72l-13.4,1.78c-.39,3.55-.78,7.15-1.18,10.74l-10.28-.75V338.91Z" transform="translate(-43.45 -35.47)" fill="url(#cl)"/><path d="M335.38,327.63c.35,8.31-2.94,11.84-11.88,11.16-9.6-.72-19.33.24-29,.46l.3.31q-.27-6-.53-11.94Z" transform="translate(-43.45 -35.47)" fill="url(#cm)"/><path d="M307.21,275c.81-3.73,1.61-7.45,2.62-12.16l-13.34-1.34c-2.12-12-1.55-12.29,23.09-10v24.49c-4.16-.4-8.41-.81-12.64-1.2Z" transform="translate(-43.45 -35.47)" fill="url(#cn)"/><path d="M487.11,388.76v25.33H463.74c-4.83-9.44.6-11.13,9.51-10.42V388.74Z" transform="translate(-43.45 -35.47)" fill="url(#co)"/><path d="M397.8,200.3h12.38v24.06H397.8Z" transform="translate(-43.45 -35.47)" fill="url(#cp)"/><path d="M449.56,328.81c-.65-8.73-1.3-17.46-2-26.57H461.5v23.7c-4.41,1-8.27,1.83-12.11,2.71C449.4,328.67,449.56,328.81,449.56,328.81Z" transform="translate(-43.45 -35.47)" fill="url(#cq)"/><path d="M385.1,262.18c.15-5.65.71-11.33.35-16.94-.52-8.19,3.18-9.83,10.7-7.65,0,8.25,0,16.42,0,24.59l.36-.31H384.85Z" transform="translate(-43.45 -35.47)" fill="url(#cr)"/><path d="M521.61,161.34l16.16-1.64v13.83l-11.38.64c-1.74-4.78-3.23-8.84-4.74-12.89Z" transform="translate(-43.45 -35.47)" fill="url(#cs)"/><path d="M562.67,106.27c.53,5.09,1.06,10.19,1.68,16.2H550.68V110.7c4.3-1.5,8.25-2.88,12.16-4.3A.77.77,0,0,0,562.67,106.27Z" transform="translate(-43.45 -35.47)" fill="url(#ct)"/><path d="M589,107.74q0,8.1,0,16.21l-13.15-1.36c-.23-4.1-.47-8.29-.7-12.47Z" transform="translate(-43.45 -35.47)" fill="url(#cu)"/><path d="M498.14,363.84h14.7c-.31,5.35-.56,9.63-.81,13.9l-13.88,0Z" transform="translate(-43.45 -35.47)" fill="url(#cv)"/><path d="M437.37,237l-14.12-1c-.18-3.35-.34-6.44-.53-10.15h13.15l1.26,11.38Z" transform="translate(-43.45 -35.47)" fill="url(#cw)"/><path d="M293.47,286c.79-2.75,1.58-5.5,2.54-8.87,3.48-.65,7.36-1.39,11.23-2.15l-.3-.26c.82,3.69,1.65,7.4,3,13.2-6.84-.86-11.71-1.47-16.6-2.1Z" transform="translate(-43.45 -35.47)" fill="url(#cx)"/><path d="M423.28,312.34c-2.15-8.48.47-12.37,7.46-10.26,2.89.87,4.72,5.25,8.88,10.26Z" transform="translate(-43.45 -35.47)" fill="url(#cy)"/><path d="M472.84,286.26c.37-2.89.75-5.79,1.18-9.1,7.58-1.33,15.32-3.65,12.52,10.52l-14-1.75Z" transform="translate(-43.45 -35.47)" fill="url(#cz)"/><path d="M335.18,251.94V236.4c4,.92,8,.76,10.09,2.71,1.49,1.4,1.5,6.53.07,8.33C343.58,249.65,339.64,250.12,335.18,251.94Z" transform="translate(-43.45 -35.47)" fill="url(#da)"/><path d="M472.57,285.93c.27,4.68.54,9.36.85,14.77h-10.8V288.85c3.38-.83,6.82-1.68,10.24-2.56Z" transform="translate(-43.45 -35.47)" fill="url(#db)"/><path d="M448.79,237.38c-.23-3.6-.45-7.2-.71-11.45h13.83v11.4l.33-.37H448.33Z" transform="translate(-43.45 -35.47)" fill="url(#dc)"/><path d="M370.83,224c-11.14,1.39-11.14,1.39-9.77-12h9.77Z" transform="translate(-43.45 -35.47)" fill="url(#dd)"/><path d="M600.38,225.93l-10.2-1.44c-.49-4.41-.94-8.4-1.38-12.39L600.38,211Z" transform="translate(-43.45 -35.47)" fill="url(#de)"/><path d="M498.43,377.42V389h-11.6c.47-3.26.94-6.53,1.47-10.19Z" transform="translate(-43.45 -35.47)" fill="url(#df)"/><path d="M360.29,262.19V251.45l11-.73v11.47l.3-.32H360Z" transform="translate(-43.45 -35.47)" fill="url(#dg)"/><path d="M523.32,531.83,514,530.52,512.28,518l-14.1-2.07c3.24-9.17-3-10.69-10-11.4-.51-4.93-1-9.38-1.45-13.83h25.47V466.75l-12.49-1.43V429.78H512.5v35.44l10.83.59c.63,4.37,1.25,8.74,1.95,13.62l12.63,1.27V516l-12.58,1.66C524.65,522.45,524,527.14,523.32,531.83Zm-2.45-41.14-3.58-.15c-1.36,2.39-4.09,5-3.76,7.1.42,2.8,3.25,5.22,5,7.8,1.92-2.06,5.17-4,5.42-6.23C524.29,496.52,522,493.54,520.87,490.69Z" transform="translate(-43.45 -35.47)" fill="url(#dh)"/><path d="M563.15,504.87H550.42V481h12.73Z" transform="translate(-43.45 -35.47)" fill="url(#di)"/><path d="M539,568.1V556.45h24.29c.35,4.5.63,8.07.91,11.64Z" transform="translate(-43.45 -35.47)" fill="url(#dj)"/><path d="M565.13,532.93c-.45-4.75-.9-9.5-1.43-15.07h11.12v11.9c-3.16.92-6.55,1.91-9.91,2.94A2.54,2.54,0,0,0,565.13,532.93Z" transform="translate(-43.45 -35.47)" fill="url(#dk)"/><path d="M574,513.53c2.48-2.59,4.61-6.58,7.56-7.31,2-.49,5.12,3.59,7.74,5.62l-10.86,6.82Z" transform="translate(-43.45 -35.47)" fill="url(#dl)"/><path d="M487.14,491l-25.25-.41.34.39V466.87l9.89-1.56c4.78-10.7-3.1-10.6-9.39-11.39-.48-4.62-.89-8.58-1.32-12.68H437.1q.11-5.82.22-11.63l-.25.3,10.23-1.56c.45-4.33.87-8.33,1.33-12.8h12.89c.38,4.35.74,8.37,1.16,13.14l24.46,1.07Z" transform="translate(-43.45 -35.47)" fill="url(#dm)"/><path d="M511.66,377.39l11.66.07c.28,3.49.55,7,.89,11.21l-9.79.5C513.43,385,512.55,381.17,511.66,377.39Z" transform="translate(-43.45 -35.47)" fill="url(#dn)"/><path d="M640.92,261.86h11.65l.71,12.82.19-.17-12.57,1.26Z" transform="translate(-43.45 -35.47)" fill="url(#do)"/><path d="M653.28,274.68l11.83,2.45c.23,2.66.49,5.76.81,9.58h-14c.57-4.42,1.07-8.29,1.59-12.18A2,2,0,0,0,653.28,274.68Z" transform="translate(-43.45 -35.47)" fill="url(#dp)"/><path d="M690.92,390.21v12.6h-13c-.19-4-.37-7.87-.59-12.6Z" transform="translate(-43.45 -35.47)" fill="url(#dq)"/><path d="M539,581.24l-13.85.76V568.48l14.16-.7Q539.14,574.52,539,581.24Z" transform="translate(-43.45 -35.47)" fill="url(#dr)"/><path d="M282.91,556.77c.23-4.11.46-8.21.74-13.3H233.38c-.21,3.76-.41,7.38-.64,11.46,5.07,2.57,15.64.87,9.73,12.42H220.06c-2.21-4.77-.77-14.32-12.21-9.41q-.54,10.63-1.2,23.29H193.79c-.45-3.8-.89-7.45-1.43-11.9l-10.09-2.61c-.46-3.64-.89-7-1.31-10.27h10.83l2.06-12.73,12-2c.78-3.06,1.58-6.23,2.46-9.74l9.16-1.63,1.9-12.29,14.08-2.5v15h35.17c.53-4.25,1-8.2,1.56-12.51l13.08-2.27-.37-.22c.46,4.81.93,9.61,1.43,14.85l10.22,1.45-.31-.26c.48,3.28,1,6.55,1.5,10.29l12.72,1.31c.23,3.88.46,7.74.8,13.58Z" transform="translate(-43.45 -35.47)" fill="url(#ds)"/><path d="M219.91,454.78H181c.38-7.86.77-15.71,1.2-24.54l9.74-.93c.8,4,1.45,7.14,2.17,10.74H203l12.4-13.57,3.32,1.62V388.73h51V403l-24.82,1.15v10.35l24.06,1.07v13.06H245.24c-1.35,6.69-.89,14.92-11.52,10.78-.54-2.73-1.17-5.9-1.89-9.55H218.18Z" transform="translate(-43.45 -35.47)" fill="url(#dt)"/><path d="M233.11,515.94c1.79-10.92-6.29-10.63-13.93-11V492l11.51-1c2.78-9.81,2.78-9.81-12.24-12.41.37-7.88.75-16,1.13-24.11l11.75.52,2.41,10.17,9.63,1.74c.44,4.12.84,7.8,1.32,12.28h13V455.46l11.14-.61v35.33l-10.08,2.39c-.37,4-.73,7.67-1.14,12.05L245,506.26C244.58,513.43,242.88,519.87,233.11,515.94Z" transform="translate(-43.45 -35.47)" fill="url(#du)"/><path d="M293.28,430.9l14.29-2.15,2.86,10.89L322,441.35l-.45-.46V454.8l.52-.33H284.41V441.62c5.17-1.77,14.67-.38,9-10.88Z" transform="translate(-43.45 -35.47)" fill="url(#dv)"/><path d="M293.46,430.74c-14.66-1.88-9.47-13.23-9.43-21.38,0-2.35,5.07-4.69,7.81-7l3.46,2.13q-1,13.2-2,26.42Z" transform="translate(-43.45 -35.47)" fill="url(#dw)"/><path d="M308,491.06l2.11-25h12l-.49-.29c-.64,8.33-1.28,16.67-2,25.69l-11.82-.81Z" transform="translate(-43.45 -35.47)" fill="url(#dx)"/><path d="M322,466.1l0-11.63-.52.33,14-.36-.42,11.69.32-.32H321.53Z" transform="translate(-43.45 -35.47)" fill="url(#dy)"/><path d="M269.36,389.05c0-3.88,0-7.77,0-11.65,13.65,1.32,13.65,1.32,13.78,11.65Z" transform="translate(-43.45 -35.47)" fill="url(#dz)"/><path d="M294.5,339.25v12c-11.27,1.67-11.27,1.67-10-12.2l10.28.5Z" transform="translate(-43.45 -35.47)" fill="url(#ea)"/><path d="M307.78,159.9l11.73.57c.56,4.25,1.09,8.21,1.72,13h14.2c-.38,3.3-.76,6.6-1.26,11H310C309.31,176.46,308.54,168.18,307.78,159.9Z" transform="translate(-43.45 -35.47)" fill="url(#eb)"/><path d="M258.34,210H244.45v-9.52H257.4C257.71,203.67,258,206.83,258.34,210Z" transform="translate(-43.45 -35.47)" fill="url(#ec)"/><path d="M131.17,593q0-5.82,0-11.64l10.41.49c.24-4.63.42-8.23.69-13.26l-11.12-.5V556.45h10.28c.39-5.07.71-9.33,1-13.59h23.39c3.79-9.83.39-13.15-8.9-11.64v-14h34.56c3-8.66,1.21-12.24-7.53-11.73s-17.27.11-27.27.11c-.24-5.46-.45-10.19-.67-14.91H181V465.8h25.24c.6,4.63,1.07,8.3,1.64,12.7,4.44,2.38,15,.9,9,12.67h-23c-.32,4.7-.58,8.57-.85,12.39,4.91,4.09,18.59-1.73,13,12.65l-12.37,1.59c-.35,4.08-.67,7.74-1,12.05l-11.22,2.77v24.15H168.51c-.6,3.72-1.11,6.89-1.7,10.53l-10.54,1.47V593Z" transform="translate(-43.45 -35.47)" fill="url(#ed)"/><path d="M131.4,508.06l-14.66-4.16c.28-4,.6-8.58.92-13.14l13.87-.08Q131.47,499.38,131.4,508.06Z" transform="translate(-43.45 -35.47)" fill="url(#ee)"/><path d="M131.2,543.18q0-5.82,0-11.64h10.2l1.48,11.68Z" transform="translate(-43.45 -35.47)" fill="url(#ef)"/><path d="M258.34,261.87v13.89H244.45V262.51Z" transform="translate(-43.45 -35.47)" fill="url(#eg)"/><path d="M130.91,403.13H117.18c-.21-4.09-.42-8-.68-13.11l13.7-.67C130.44,394,130.65,398,130.91,403.13Z" transform="translate(-43.45 -35.47)" fill="url(#eh)"/><path d="M360.29,107.7v14.55L346.43,124c-.3-4.42-.6-8.84-.91-13.58l-12.19-2.88L338.66,98l10.13,7.9c-.42,1.07-.84,2.15-1.27,3.22Z" transform="translate(-43.45 -35.47)" fill="url(#ei)"/><path d="M371.62,71.48V83.13h-11c-.23-4-.46-7.82-.69-11.65Z" transform="translate(-43.45 -35.47)" fill="url(#ej)"/><path d="M221,124.88c-1-4.51-2.06-9-3.39-14.81h13.9c5,11.77-2.91,13.17-10.75,14.65C220.8,124.75,221,124.88,221,124.88Z" transform="translate(-43.45 -35.47)" fill="url(#ek)"/><path d="M410.54,109v13.62l-13,.73c-.24-4.56-.45-8.44-.72-13.54Z" transform="translate(-43.45 -35.47)" fill="url(#el)"/><path d="M678.1,670.36h12.39v12.83H678.1Z" transform="translate(-43.45 -35.47)" fill="url(#em)"/><path d="M412.19,531.85c9.07-3.11,10.71,2.9,11.33,10l12.25,1.37v24.56H396.12l.39.35V556.45l-.32.32,14-.71c.82-9,1.53-16.72,2.25-24.46Z" transform="translate(-43.45 -35.47)" fill="url(#en)"/><path d="M461.48,543.69l-9.31-1.5-12-13.59-2.68,1.61V517.66h35.17v12.39l-9.77,2.1c-.53,3.82-1.07,7.82-1.64,11.84Z" transform="translate(-43.45 -35.47)" fill="url(#eo)"/><path d="M396,581.76l14.25.75c.19,3.38.36,6.48.57,10.26H397.67c-.49-4-.93-7.67-1.36-11.28Z" transform="translate(-43.45 -35.47)" fill="url(#ep)"/><path d="M385.11,567.77H372.23c-.25-3.56-.46-6.61-.76-11h13.71l-.32-.29V568.1Z" transform="translate(-43.45 -35.47)" fill="url(#eq)"/><path d="M396.12,567.75q0,7-.08,14l.27-.27-12.41-1.13.2.17q.51-6.37,1-12.76l-.25.33h11.65Z" transform="translate(-43.45 -35.47)" fill="url(#er)"/><path d="M383.9,580.36c.55,3.88,1.1,7.77,1.75,12.43l-12.16.54c-2.55-9.79-2.55-9.79,10.64-12.76C384.1,580.53,383.9,580.36,383.9,580.36Z" transform="translate(-43.45 -35.47)" fill="url(#es)"/><path d="M462.23,556.45V568.1H448.77l-.55-11Z" transform="translate(-43.45 -35.47)" fill="url(#et)"/><path d="M461.92,567.78l10.68.65v13.24H461.91Q461.93,574.72,461.92,567.78Z" transform="translate(-43.45 -35.47)" fill="url(#eu)"/><path d="M285.78,616.82,270,620.49c-.32,7.26-.66,14.84-1,23l-11,1.64v-25l-13.52-2.25V606.3l13.26,1.63V568.82l10.92-1.57c.62-3.62,1.16-6.77,1.76-10.23l12.78-.57c.28,3.33.56,6.66.89,10.56l12.38,2.06c-1.79,14.29-3.52,28.1-5.22,41.88l-1.84,2.52Zm-16.1-34c.2,3.75.35,6.83.51,9.76h12.62C285.74,580.29,278.45,581.65,269.68,582.81Z" transform="translate(-43.45 -35.47)" fill="url(#ev)"/><path d="M335.41,658.74H320.22c.47-9.13.88-17.18,1.29-25.23h12.57C334.55,642.53,335,650.63,335.41,658.74Z" transform="translate(-43.45 -35.47)" fill="url(#ew)"/><path d="M289.44,613.47l1.84-2.52c5-1.5,10-3,15.35-4.64,3.35,6.72,1.26,17.12,12.56,12.34,1.05,5.89,1.88,10.55,2.7,15.2l-11.56-1.41c-.67-4-1.33-7.89-1.93-11.42-6-2-11.7-3.83-17.39-5.67Z" transform="translate(-43.45 -35.47)" fill="url(#ex)"/><path d="M410.38,670.62V683.3h-12.8V670.62Z" transform="translate(-43.45 -35.47)" fill="url(#ey)"/><path d="M244.73,606.53l-11.61,0c-.35-4-.71-8-1.1-12.49l-12.7-1.3c-.16-3.07-.33-6.14-.54-10h24.66Z" transform="translate(-43.45 -35.47)" fill="url(#ez)"/><path d="M181.23,592.68l-11.92.6c-2.38-11.49-2.38-11.49,11.65-10.55V593Z" transform="translate(-43.45 -35.47)" fill="url(#fa)"/><path d="M244.85,644.93l-10.43-.85c-3.5-8.83-1.31-12.37,9-9.86.38,3.74.75,7.35,1.13,11Z" transform="translate(-43.45 -35.47)" fill="url(#fb)"/><path d="M289.44,613.47l1.57,1.88c1.62,5.35,3.28,10.73,5.05,16.52-13.49,1.11-14.65-1.15-10.28-15Z" transform="translate(-43.45 -35.47)" fill="url(#fc)"/><path d="M283.25,683.65H269.36V670.45l13.87-.69Z" transform="translate(-43.45 -35.47)" fill="url(#fd)"/><path d="M104.47,734.65h-38V696h38Z" transform="translate(-43.45 -35.47)" fill="url(#fe)"/><path d="M741.7,97.19H703.44V59.05H741.7Z" transform="translate(-43.45 -35.47)" fill="url(#ff)"/><path d="M104.45,97.14H66.28V59h38.17Z" transform="translate(-43.45 -35.47)" fill="url(#fg)"/><path d="M423.44,440.89l13.88,0c-.42,4-.83,8.05-1.33,12.84H422.85C423.05,449.39,423.24,445.14,423.44,440.89Z" transform="translate(-43.45 -35.47)" fill="url(#fh)"/><path d="M410.48,389.31V403h-13V389.92Z" transform="translate(-43.45 -35.47)" fill="url(#fi)"/><path d="M346.73,454.79H335.08q0-7,0-13.91H345.2C345.77,446.08,346.25,450.43,346.73,454.79Z" transform="translate(-43.45 -35.47)" fill="url(#fj)"/></svg>