<svg id="Layer_1" data-name="Layer 1" xmlns="http://www.w3.org/2000/svg" xmlns:xlink="http://www.w3.org/1999/xlink" viewBox="0 0 704.72 704.72"><defs><linearGradient id="linear-gradient" x1="225.75" y1="341.83" x2="505.05" y2="614.01" gradientUnits="userSpaceOnUse"><stop offset="0" stop-color="#4fa581"/><stop offset="1" stop-color="#0d3f28"/></linearGradient><linearGradient id="linear-gradient-2" x1="672.49" y1="691.05" x2="698.53" y2="-310.41" xlink:href="#linear-gradient"/><linearGradient id="linear-gradient-3" x1="740.65" y1="137.27" x2="-394.26" y2="137.27" xlink:href="#linear-gradient"/><linearGradient id="linear-gradient-4" x1="145.82" y1="84.31" x2="145.82" y2="1524.8" xlink:href="#linear-gradient"/><linearGradient id="linear-gradient-5" x1="75.83" y1="662.48" x2="780.19" y2="662.48" xlink:href="#linear-gradient"/></defs><polygon points="423.48 459.82 371.26 558.33 129.38 316.44 129.38 316.44 423.48 459.82" fill="url(#linear-gradient)"/><polygon points="371.26 558.33 287.93 474.99 607.54 155.38 607.54 155.38 371.26 558.33" fill="#4fa581"/><path d="M761,92V708.22a44.18,44.18,0,0,1-44.23,44.23H581.92c3-6.87,6-13.31,9-20.18,53.68-117.67,95.34-231.91,124.11-342.7a1515.15,1515.15,0,0,0,33.49-168.35,1228.5,1228.5,0,0,0,11.6-136.13A37.53,37.53,0,0,1,761,92Z" transform="translate(-56.28 -47.73)" fill="url(#linear-gradient-2)"/><path d="M761,92V226.81c-4.3-1.72-8.16-3.87-12.46-5.59A2229.66,2229.66,0,0,0,402.41,101C342.72,86,283.88,74.35,225.48,65.34,179.1,58,133.15,52.88,87.2,49.88a45.39,45.39,0,0,1,13.31-2.15H716.77a44.23,44.23,0,0,1,43.37,35.21v2.15A37.53,37.53,0,0,1,761,92Z" transform="translate(-56.28 -47.73)" fill="url(#linear-gradient-3)"/><path d="M235.36,47.73c-3.44,6-6.87,11.59-9.88,17.61C135.3,226.38,92.78,400.73,71.31,581.1c-5.58,46.38-9.88,92.76-12.89,140a42.92,42.92,0,0,1-2.14-12.88V92A43.94,43.94,0,0,1,87.2,49.88a45.39,45.39,0,0,1,13.31-2.15Z" transform="translate(-56.28 -47.73)" fill="url(#linear-gradient-4)"/><path d="M590.94,732.27c-3,6.87-6,13.31-9,20.18H100.51c-19.75,0-36.93-13.31-42.09-31.35a42.92,42.92,0,0,1-2.14-12.88V572.51a170.37,170.37,0,0,0,15,8.59C210,659.69,390.82,704.35,590.94,732.27Z" transform="translate(-56.28 -47.73)" fill="url(#linear-gradient-5)"/></svg>