<?xml version="1.0" encoding="UTF-8"?>
<svg xmlns="http://www.w3.org/2000/svg" xmlns:xlink="http://www.w3.org/1999/xlink" viewBox="0 0 221.97 60">
  <defs>
    <style>
      .cls-1 {
        fill: url(#linear-gradient-28);
      }

      .cls-1, .cls-2, .cls-3, .cls-4, .cls-5, .cls-6, .cls-7, .cls-8, .cls-9, .cls-10, .cls-11, .cls-12, .cls-13, .cls-14, .cls-15, .cls-16, .cls-17, .cls-18, .cls-19, .cls-20, .cls-21, .cls-22, .cls-23, .cls-24, .cls-25, .cls-26, .cls-27, .cls-28, .cls-29, .cls-30, .cls-31 {
        isolation: isolate;
      }

      .cls-1, .cls-2, .cls-3, .cls-5, .cls-6, .cls-7, .cls-8, .cls-9, .cls-10, .cls-11, .cls-12, .cls-13, .cls-17, .cls-18, .cls-20, .cls-21, .cls-24, .cls-25, .cls-27, .cls-28, .cls-30 {
        mix-blend-mode: multiply;
      }

      .cls-2 {
        fill: url(#linear-gradient-2);
      }

      .cls-2, .cls-18, .cls-27 {
        opacity: .6;
      }

      .cls-3 {
        fill: url(#linear-gradient-14);
      }

      .cls-3, .cls-5, .cls-6, .cls-9, .cls-10, .cls-12, .cls-13, .cls-21, .cls-24, .cls-25, .cls-28, .cls-30 {
        opacity: .75;
      }

      .cls-4 {
        fill: url(#linear-gradient);
      }

      .cls-4, .cls-14, .cls-15, .cls-16, .cls-19, .cls-22, .cls-26, .cls-29, .cls-31 {
        mix-blend-mode: screen;
      }

      .cls-4, .cls-14, .cls-15, .cls-19, .cls-22, .cls-29 {
        opacity: .26;
      }

      .cls-32 {
        fill: #fee066;
      }

      .cls-5 {
        fill: url(#linear-gradient-6);
      }

      .cls-33 {
        stroke-width: .52px;
      }

      .cls-33, .cls-34, .cls-35, .cls-36, .cls-37 {
        stroke-miterlimit: 10;
      }

      .cls-33, .cls-34, .cls-35, .cls-36, .cls-37, .cls-38 {
        fill: #55b948;
      }

      .cls-33, .cls-35, .cls-36, .cls-37 {
        stroke: #497336;
      }

      .cls-6 {
        fill: url(#linear-gradient-30);
      }

      .cls-7 {
        fill: url(#linear-gradient-17);
      }

      .cls-8 {
        fill: url(#linear-gradient-27);
      }

      .cls-39 {
        fill: #fff;
      }

      .cls-9 {
        fill: url(#linear-gradient-15);
      }

      .cls-10 {
        fill: url(#linear-gradient-25);
      }

      .cls-11 {
        fill: url(#linear-gradient-7);
      }

      .cls-12 {
        fill: url(#linear-gradient-20);
      }

      .cls-13 {
        fill: url(#linear-gradient-26);
      }

      .cls-14 {
        fill: url(#linear-gradient-11);
      }

      .cls-15 {
        fill: url(#linear-gradient-9);
      }

      .cls-16 {
        fill: url(#linear-gradient-23);
      }

      .cls-16, .cls-26, .cls-31 {
        opacity: .42;
      }

      .cls-17 {
        fill: url(#linear-gradient-8);
      }

      .cls-18 {
        fill: url(#linear-gradient-12);
      }

      .cls-19 {
        fill: url(#linear-gradient-21);
      }

      .cls-20 {
        fill: url(#linear-gradient-18);
      }

      .cls-21 {
        fill: url(#linear-gradient-4);
      }

      .cls-22 {
        fill: url(#linear-gradient-29);
      }

      .cls-34 {
        stroke: #fff;
      }

      .cls-24 {
        fill: url(#linear-gradient-10);
      }

      .cls-35 {
        stroke-width: .53px;
      }

      .cls-25 {
        fill: url(#linear-gradient-5);
      }

      .cls-26 {
        fill: url(#linear-gradient-3);
      }

      .cls-27 {
        fill: url(#linear-gradient-22);
      }

      .cls-28 {
        fill: url(#linear-gradient-24);
      }

      .cls-36 {
        stroke-width: .5px;
      }

      .cls-37 {
        stroke-width: .52px;
      }

      .cls-29 {
        fill: url(#linear-gradient-19);
      }

      .cls-30 {
        fill: url(#linear-gradient-16);
      }

      .cls-31 {
        fill: url(#linear-gradient-13);
      }
    </style>
    <linearGradient id="linear-gradient" x1="119.1" y1="171.83" x2="119.1" y2="174.56" gradientTransform="translate(0 220.17) scale(1 -1)" gradientUnits="userSpaceOnUse">
      <stop offset="0" stop-color="#fff"/>
      <stop offset="1" stop-color="#52332a"/>
    </linearGradient>
    <linearGradient id="linear-gradient-2" x1="116.07" y1="170.55" x2="116.07" y2="185.07" gradientTransform="translate(0 220.17) scale(1 -1)" gradientUnits="userSpaceOnUse">
      <stop offset="0" stop-color="#fff"/>
      <stop offset=".99" stop-color="#c8aea6"/>
    </linearGradient>
    <linearGradient id="linear-gradient-3" x1="116.93" y1="166.98" x2="124.01" y2="166.98" xlink:href="#linear-gradient"/>
    <linearGradient id="linear-gradient-4" x1="115.06" y1="166.97" x2="120" y2="166.97" gradientTransform="translate(0 220.17) scale(1 -1)" gradientUnits="userSpaceOnUse">
      <stop offset="0" stop-color="#805c52"/>
      <stop offset="1" stop-color="#a7887d"/>
    </linearGradient>
    <linearGradient id="linear-gradient-5" x1="110.11" y1="166.96" x2="115.06" y2="166.96" xlink:href="#linear-gradient-4"/>
    <linearGradient id="linear-gradient-6" x1="121.77" y1="171.68" x2="117.42" y2="170.14" xlink:href="#linear-gradient-4"/>
    <linearGradient id="linear-gradient-7" x1="114.33" y1="169.87" x2="108.72" y2="164.26" xlink:href="#linear-gradient-2"/>
    <linearGradient id="linear-gradient-8" x1="113.94" y1="176.33" x2="116.29" y2="168.19" gradientTransform="translate(0 220.17) scale(1 -1)" gradientUnits="userSpaceOnUse">
      <stop offset="0" stop-color="#fff6ce"/>
      <stop offset=".99" stop-color="#c8aea6"/>
    </linearGradient>
    <linearGradient id="linear-gradient-9" x1="110.99" x2="110.99" xlink:href="#linear-gradient"/>
    <linearGradient id="linear-gradient-10" x1="114.27" y1="171.23" x2="109.41" y2="171.23" xlink:href="#linear-gradient-4"/>
    <linearGradient id="linear-gradient-11" x1="80.58" x2="80.58" xlink:href="#linear-gradient"/>
    <linearGradient id="linear-gradient-12" x1="77.56" x2="77.56" xlink:href="#linear-gradient-2"/>
    <linearGradient id="linear-gradient-13" x1="78.41" y1="166.98" x2="85.49" y2="166.98" xlink:href="#linear-gradient"/>
    <linearGradient id="linear-gradient-14" x1="76.54" x2="81.48" xlink:href="#linear-gradient-4"/>
    <linearGradient id="linear-gradient-15" x1="71.59" y1="166.96" x2="76.54" y2="166.96" xlink:href="#linear-gradient-4"/>
    <linearGradient id="linear-gradient-16" x1="83.25" y1="171.68" x2="78.9" y2="170.14" xlink:href="#linear-gradient-4"/>
    <linearGradient id="linear-gradient-17" x1="75.81" y1="169.87" x2="70.2" y2="164.26" xlink:href="#linear-gradient-2"/>
    <linearGradient id="linear-gradient-18" x1="75.42" y1="176.33" x2="77.77" y2="168.19" xlink:href="#linear-gradient-8"/>
    <linearGradient id="linear-gradient-19" x1="72.47" x2="72.47" xlink:href="#linear-gradient"/>
    <linearGradient id="linear-gradient-20" x1="75.75" y1="171.23" x2="70.89" y2="171.23" xlink:href="#linear-gradient-4"/>
    <linearGradient id="linear-gradient-21" x1="99.84" x2="99.84" xlink:href="#linear-gradient"/>
    <linearGradient id="linear-gradient-22" x1="96.82" x2="96.82" xlink:href="#linear-gradient-2"/>
    <linearGradient id="linear-gradient-23" x1="97.67" y1="166.98" x2="104.75" y2="166.98" xlink:href="#linear-gradient"/>
    <linearGradient id="linear-gradient-24" x1="95.8" x2="100.74" xlink:href="#linear-gradient-4"/>
    <linearGradient id="linear-gradient-25" x1="90.86" y1="166.96" x2="95.8" y2="166.96" xlink:href="#linear-gradient-4"/>
    <linearGradient id="linear-gradient-26" x1="102.51" y1="171.68" x2="98.16" y2="170.14" xlink:href="#linear-gradient-4"/>
    <linearGradient id="linear-gradient-27" x1="95.07" y1="169.87" x2="89.46" y2="164.26" xlink:href="#linear-gradient-2"/>
    <linearGradient id="linear-gradient-28" x1="94.68" y1="176.33" x2="97.03" y2="168.19" xlink:href="#linear-gradient-8"/>
    <linearGradient id="linear-gradient-29" x1="91.73" x2="91.73" xlink:href="#linear-gradient"/>
    <linearGradient id="linear-gradient-30" x1="95.02" y1="171.23" x2="90.15" y2="171.23" xlink:href="#linear-gradient-4"/>
  </defs>
  <g class="cls-23">
    <g id="Layer_2">
      <g id="Layer_1-2" data-name="Layer_1">
        <g>
          <g>
            <path class="cls-35" d="M89.94,31.55v-4.58h-3.13c-2.71,0-4.06-1.28-4.06-3.83v-1.45c0-.66.31-.99.93-.99h11.83c.62,0,.93.33.93.99v11.89c0,.58-.09,1.04-.26,1.39-.17.35-.53.72-1.07,1.1-1.78,1.28-3.48,2.16-5.11,2.64-1.62.48-3.48.73-5.57.73-2.82,0-5.45-.54-7.89-1.62-2.44-1.08-4.4-2.85-5.89-5.31-1.49-2.46-2.23-5.75-2.23-9.89,0-3.44.66-6.4,1.97-8.88,1.31-2.47,3.19-4.38,5.63-5.71,2.44-1.33,5.34-2,8.7-2,1.59,0,2.98.09,4.18.26,1.2.17,2.34.46,3.42.84,1.35.46,2.19,1.1,2.52,1.91.33.81.34,1.84.03,3.07l-.41,1.62c-.12.5-.37.75-.75.75-.23,0-.54-.1-.93-.29-1.2-.54-2.42-.97-3.65-1.28-1.24-.31-2.51-.46-3.83-.46-2.98,0-5.34.82-7.08,2.47-1.74,1.64-2.61,4.36-2.61,8.15,0,3.17.76,5.63,2.29,7.37,1.53,1.74,3.66,2.61,6.41,2.61,1.12,0,2.11-.12,2.96-.35.85-.23,1.74-.62,2.67-1.16Z"/>
            <path class="cls-36" d="M114.63,39.44c-3.06,0-5.72-.67-8.01-2-2.28-1.33-4.05-3.24-5.31-5.71-1.26-2.47-1.89-5.41-1.89-8.82s.67-6.54,2-9.05c1.33-2.51,3.18-4.45,5.54-5.8,2.36-1.35,5.03-2.03,8.01-2.03,1.59,0,2.94.11,4.06.32,1.12.21,2.22.53,3.31.96,1.31.5,2.13,1.16,2.44,1.97.31.81.31,1.84,0,3.08l-.41,1.68c-.12.5-.37.75-.75.75-.23,0-.54-.1-.93-.29-1.16-.58-2.27-1.05-3.34-1.42-1.06-.37-2.45-.55-4.15-.55-2.55,0-4.65.83-6.29,2.49-1.64,1.66-2.47,4.29-2.47,7.89,0,3.4.86,5.94,2.58,7.6,1.72,1.66,3.88,2.49,6.47,2.49,1.35,0,2.57-.2,3.66-.61,1.08-.41,2.02-.88,2.81-1.42.79-.54,1.4-1.01,1.83-1.39.23-.23.44-.38.61-.43.17-.06.32-.09.44-.09.7,0,1.04.52,1.04,1.57,0,.74-.19,1.61-.58,2.61-.39,1.01-1.02,1.98-1.89,2.93-.87.95-2.03,1.73-3.48,2.35-1.45.62-3.22.93-5.31.93Z"/>
            <path class="cls-33" d="M135.73,18.51c1.4-1.84,3.4-2.76,6-2.76s4.89.85,6.63,2.55c1.74,1.7,2.61,4.33,2.61,7.89v12.42c0,.52-.26.78-.78.78h-5.34c-.52,0-.78-.26-.78-.78v-11.82c0-1.76-.43-2.98-1.29-3.66-.86-.68-1.83-1.02-2.91-1.02s-2.04.34-2.88,1.02c-.84.68-1.26,1.92-1.26,3.72v11.76c0,.52-.26.78-.78.78h-5.28c-.52,0-.78-.26-.78-.78V6.8c0-.52.26-.78.78-.78h.3c1.88,0,3.31.44,4.29,1.32.98.88,1.47,2.4,1.47,4.56v6.6Z"/>
            <path class="cls-36" d="M160.82,30.1c.46,2.51,2.38,3.77,5.74,3.77,1.31,0,2.46-.11,3.42-.32.97-.21,2.01-.57,3.13-1.07.46-.19.79-.29.99-.29.46,0,.7.29.7.87,0,.77-.28,1.66-.84,2.67-.56,1.01-1.5,1.88-2.81,2.61-1.32.73-3.15,1.1-5.51,1.1-3.52,0-6.34-1.05-8.47-3.16-2.13-2.11-3.19-4.98-3.19-8.61,0-2.24.44-4.24,1.33-5.98.89-1.74,2.17-3.11,3.83-4.12,1.66-1,3.65-1.51,5.98-1.51s4.28.48,5.77,1.45c1.49.97,2.59,2.21,3.31,3.74.72,1.53,1.07,3.14,1.07,4.84,0,.74,0,1.35-.03,1.86-.02.5-.05.93-.09,1.28-.04.58-.41.87-1.1.87h-13.23ZM160.88,25.46h7.77c.08-.46.02-.99-.17-1.57-.19-.58-.55-1.08-1.07-1.51-.52-.43-1.29-.64-2.29-.64-1.31,0-2.33.34-3.05,1.02-.72.68-1.11,1.58-1.19,2.7Z"/>
            <path class="cls-36" d="M188.88,39.44c-3.17,0-5.73-1.03-7.69-3.1-1.95-2.07-2.93-4.94-2.93-8.62s1.04-6.54,3.13-8.59c2.09-2.05,4.83-3.07,8.24-3.07,1.55,0,2.98.23,4.29.7,1.16.39,1.9.97,2.23,1.74.33.77.34,1.84.03,3.19l-.35,1.45c-.12.39-.29.58-.52.58-.19,0-.41-.06-.64-.17-.89-.42-1.66-.73-2.32-.93-.66-.19-1.43-.29-2.32-.29-1.31,0-2.47.45-3.45,1.33s-1.48,2.3-1.48,4.23c0,1.78.46,3.2,1.39,4.26s2.36,1.59,4.29,1.59c1.12,0,2.09-.18,2.9-.55.81-.37,1.43-.69,1.86-.96.35-.23.62-.35.81-.35.42,0,.64.31.64.93,0,.77-.22,1.68-.67,2.73-.44,1.04-1.26,1.95-2.44,2.73-1.18.77-2.85,1.16-5.02,1.16Z"/>
            <path class="cls-37" d="M206.86,32.64v6.01c0,.52-.26.78-.78.78h-5.29c-.52,0-.78-.26-.78-.78V6.79c0-.52.26-.78.78-.78h.3c1.88,0,3.32.44,4.3,1.32.98.88,1.47,2.41,1.47,4.57v12.33l6.13-6.98c.48-.52.96-.78,1.44-.78h6.07c.24,0,.39.09.45.27.06.18,0,.35-.15.51l-6.85,7.64,7.7,13.77c.08.16.08.33,0,.51-.08.18-.22.27-.42.27h-6.01c-.64,0-1.1-.26-1.38-.78l-4.57-8.66-2.41,2.65Z"/>
          </g>
          <g>
            <g>
              <polygon class="cls-32" points="111.64 50.82 106.93 47.06 113.03 46.89 115.06 41.6 117.08 46.89 123.19 47.06 118.48 50.82 120 56.68 115.06 53.47 110.11 56.68 111.64 50.82"/>
              <g>
                <polygon class="cls-4" points="123.1 47.06 117.08 46.89 115.09 49.69 123.1 47.06"/>
                <polygon class="cls-2" points="115.09 49.69 117.08 46.89 117.08 46.89 115.06 41.6 115.06 49.7 115.09 49.69"/>
                <polygon class="cls-26" points="115.08 49.71 115.06 49.73 120 56.68 120 56.68 118.48 50.82 115.08 49.71"/>
                <polygon class="cls-21" points="115.06 49.74 115.06 53.47 120 56.68 115.06 49.73 115.06 49.74"/>
                <polygon class="cls-25" points="110.11 56.68 110.11 56.68 115.06 53.47 115.06 49.74 110.11 56.68"/>
                <polygon class="cls-5" points="115.08 49.71 118.48 50.82 123.19 47.06 123.1 47.06 115.09 49.69 115.08 49.71"/>
                <polygon class="cls-11" points="115.06 49.73 115.04 49.71 111.64 50.82 110.11 56.68 115.06 49.74 115.06 49.73"/>
                <polygon class="cls-17" points="115.05 49.7 115.06 49.7 115.06 41.6 113.04 46.89 115.04 49.7 115.05 49.7"/>
                <polygon class="cls-15" points="113.04 46.89 113.03 46.89 106.93 47.06 106.93 47.06 115.04 49.7 113.04 46.89"/>
                <polygon class="cls-24" points="115.04 49.7 106.93 47.06 111.64 50.82 111.64 50.82 115.04 49.71 115.04 49.7"/>
              </g>
            </g>
            <g>
              <polygon class="cls-32" points="73.12 50.82 68.41 47.06 74.51 46.89 76.54 41.6 78.56 46.89 84.67 47.06 79.96 50.82 81.48 56.68 76.54 53.47 71.59 56.68 73.12 50.82"/>
              <g>
                <polygon class="cls-14" points="84.58 47.06 78.57 46.89 76.58 49.69 84.58 47.06"/>
                <polygon class="cls-18" points="76.58 49.69 78.57 46.89 78.56 46.89 76.54 41.6 76.54 49.7 76.58 49.69"/>
                <polygon class="cls-31" points="76.56 49.71 76.54 49.73 81.48 56.68 81.48 56.68 79.96 50.82 76.56 49.71"/>
                <polygon class="cls-3" points="76.54 49.74 76.54 53.47 81.48 56.68 76.54 49.73 76.54 49.74"/>
                <polygon class="cls-9" points="71.59 56.68 71.59 56.68 76.54 53.47 76.54 49.74 71.59 56.68"/>
                <polygon class="cls-30" points="76.56 49.71 79.96 50.82 84.67 47.06 84.58 47.06 76.58 49.69 76.56 49.71"/>
                <polygon class="cls-7" points="76.54 49.73 76.52 49.71 73.12 50.82 71.59 56.68 76.54 49.74 76.54 49.73"/>
                <polygon class="cls-20" points="76.53 49.7 76.54 49.7 76.54 41.6 74.52 46.89 76.52 49.7 76.53 49.7"/>
                <polygon class="cls-29" points="74.52 46.89 74.51 46.89 68.41 47.06 68.41 47.06 76.52 49.7 74.52 46.89"/>
                <polygon class="cls-12" points="76.52 49.7 68.41 47.06 73.12 50.82 73.12 50.82 76.52 49.71 76.52 49.7"/>
              </g>
            </g>
            <g>
              <polygon class="cls-32" points="92.38 50.82 87.67 47.06 93.78 46.89 95.8 41.6 97.83 46.89 103.93 47.06 99.22 50.82 100.75 56.68 95.8 53.47 90.86 56.68 92.38 50.82"/>
              <g>
                <polygon class="cls-19" points="103.84 47.06 97.83 46.89 95.84 49.69 103.84 47.06"/>
                <polygon class="cls-27" points="95.84 49.69 97.83 46.89 97.83 46.89 95.8 41.6 95.8 49.7 95.84 49.69"/>
                <polygon class="cls-16" points="95.82 49.71 95.8 49.73 100.74 56.68 100.75 56.68 99.22 50.82 95.82 49.71"/>
                <polygon class="cls-28" points="95.8 49.74 95.8 53.47 100.74 56.68 95.8 49.73 95.8 49.74"/>
                <polygon class="cls-10" points="90.86 56.68 90.86 56.68 95.8 53.47 95.8 49.74 90.86 56.68"/>
                <polygon class="cls-13" points="95.82 49.71 99.22 50.82 103.93 47.06 103.84 47.06 95.84 49.69 95.82 49.71"/>
                <polygon class="cls-8" points="95.8 49.73 95.78 49.71 92.38 50.82 90.86 56.68 95.8 49.74 95.8 49.73"/>
                <polygon class="cls-1" points="95.79 49.7 95.8 49.7 95.8 41.6 93.78 46.89 95.78 49.7 95.79 49.7"/>
                <polygon class="cls-22" points="93.78 46.89 93.78 46.89 87.67 47.06 87.67 47.06 95.78 49.7 93.78 46.89"/>
                <polygon class="cls-6" points="95.78 49.7 87.67 47.06 92.38 50.82 92.38 50.82 95.78 49.71 95.78 49.7"/>
              </g>
            </g>
          </g>
          <path class="cls-38" d="M30,0C13.43,0,0,13.43,0,30s13.43,30,30,30,30-13.43,30-30S46.57,0,30,0ZM30,50.12c-11.11,0-20.12-9.01-20.12-20.12S18.89,9.88,30,9.88s20.12,9.01,20.12,20.12-9.01,20.12-20.12,20.12Z"/>
          <path class="cls-39" d="M29.12,57.77c.12-.11.24-.22.36-.33,1.07-.99,2.02-2.1,2.91-3.26h0c.48-.63.93-1.3,1.37-1.97.09-.14.19-.28.28-.42.18-.26.53-.32.79-.14.07.05.11.09.15.16.24.36.63.86.96,1.17.26.24.6.5.97.7.14.07.15.28.02.36-.28.19-.73.29-1.21.06-.28-.13-.93-.72-1.17-1-.41.59-.86,1.14-1.37,1.67-.91.96-1.91,1.82-3.01,2.55-.18.11-.35.22-.52.33-.14.08-.29.17-.43.25-.03.02-.07,0-.09-.02s-.02-.07,0-.09h0Z"/>
          <path class="cls-39" d="M5.26,17.15c.05.16.1.31.14.47.43,1.39,1.02,2.73,1.68,4.04h0c.36.71.77,1.4,1.18,2.09.09.14.17.29.26.43.16.27.05.61-.22.77-.07.04-.13.06-.21.07-.43.06-1.05.19-1.47.35-.33.13-.71.33-1.05.57-.13.09-.32.01-.33-.14-.05-.33.06-.78.47-1.11.24-.19,1.05-.53,1.41-.62-.35-.62-.65-1.28-.91-1.96-.47-1.24-.81-2.52-.99-3.82-.02-.21-.05-.42-.08-.61-.01-.16-.03-.33-.04-.49,0-.03.02-.07.06-.08s.07.01.08.05h.01Z"/>
          <g>
            <g>
              <path class="cls-39" d="M52.43,22.39l4.2-.25.48,1.42h-5.89s-.47-1.38-.47-1.38l4.69-3.55.48,1.41-3.49,2.35Z"/>
              <path class="cls-39" d="M54.55,28.63l-.26-2.1-1.32.17.31,2.48-1.03.13-.48-3.81,5.53-.69.48,3.82-1.03.13-.31-2.49-1.17.15.26,2.1-.99.12Z"/>
              <path class="cls-39" d="M54.08,31.79l.05-.73-1.97-.15.1-1.34,5.56.42-.17,2.19c-.05.66-.24,1.16-.56,1.51-.32.35-.75.5-1.28.46-.38-.03-.7-.13-.94-.31-.24-.18-.43-.44-.56-.78l-2.33.99h-.06s.11-1.44.11-1.44l2.04-.83ZM55.16,31.14l-.06.85c-.02.25.03.45.16.59.12.14.31.22.55.24.24.02.43-.03.58-.15s.23-.31.25-.56l.06-.85-1.53-.12Z"/>
              <path class="cls-39" d="M51.4,35.83l.31-1.3,5.42,1.3-.31,1.3-5.42-1.3Z"/>
              <path class="cls-39" d="M52.02,40.65l.8-2.02-2.06-.82.5-1.25,5.18,2.06-1.38,3.47-.96-.38.88-2.22-1.19-.47-.8,2.01-.96-.38Z"/>
              <path class="cls-39" d="M48.91,41.58l.67-1.16,4.84,2.77-.67,1.16-4.84-2.77Z"/>
              <path class="cls-39" d="M48.32,46.41l1.3-1.67-1.05-.82-1.53,1.97-.82-.64,2.36-3.03,4.4,3.42-2.36,3.04-.82-.64,1.54-1.98-.93-.72-1.3,1.67-.79-.61Z"/>
              <path class="cls-39" d="M46.01,45.48l3.63,4.24-1.37,1.17c-.37.32-.78.52-1.23.61-.44.09-.88.05-1.31-.12-.43-.17-.82-.44-1.15-.82l-.17-.19c-.33-.39-.55-.81-.65-1.25-.1-.45-.07-.89.08-1.31.15-.43.41-.8.77-1.12l1.39-1.19ZM47.94,49.8l-2.28-2.66-.35.3c-.29.25-.43.55-.41.89.02.34.21.72.56,1.13l.16.18c.35.41.69.65,1.03.72.33.07.65-.02.95-.28l.34-.29Z"/>
            </g>
            <g>
              <path class="cls-39" d="M11.67,15l-2.43-3.43.95-1.16,3.12,4.99-.93,1.14-5.49-2.1.94-1.15,3.84,1.72Z"/>
              <path class="cls-39" d="M15.84,9.9l-1.64,1.33.84,1.03,1.94-1.58.65.8-2.98,2.42-3.52-4.33,2.99-2.43.66.81-1.94,1.58.74.91,1.64-1.33.63.77Z"/>
              <path class="cls-39" d="M18.8,8.61l-.65.34.91,1.75-1.19.62-2.58-4.95,1.95-1.02c.59-.31,1.11-.41,1.58-.33.47.09.82.37,1.07.84.18.34.26.67.24.96s-.14.6-.37.89l2.07,1.46.03.05-1.28.67-1.79-1.29ZM17.68,8.03l.75-.39c.23-.12.37-.27.42-.45.05-.18.02-.38-.09-.59-.11-.21-.26-.35-.43-.41-.18-.06-.38-.03-.61.08l-.75.39.71,1.36Z"/>
              <path class="cls-39" d="M23.65,8.75l-1.27.42-1.76-5.29,1.27-.42,1.76,5.29Z"/>
              <path class="cls-39" d="M27.41,5.68l-2.13.39.39,2.19-1.32.24-.99-5.49,3.67-.66.18,1.02-2.35.42.23,1.26,2.13-.38.18,1.02Z"/>
              <path class="cls-39" d="M29.82,7.82l-1.34.05-.21-5.57,1.34-.05.21,5.57Z"/>
              <path class="cls-39" d="M34.22,5.77l-2.1-.22-.14,1.33,2.48.26-.11,1.03-3.82-.4.58-5.55,3.83.4-.11,1.03-2.49-.26-.12,1.17,2.1.22-.1.99Z"/>
              <path class="cls-39" d="M34.65,8.22l1.67-5.32,1.71.54c.47.15.86.39,1.17.72.31.33.51.72.59,1.18.09.46.06.92-.09,1.41l-.08.25c-.15.49-.39.89-.72,1.21-.33.32-.71.53-1.16.63-.44.1-.89.08-1.36-.06l-1.75-.55ZM37.3,4.29l-1.05,3.34.45.14c.37.12.69.07.97-.13.28-.2.5-.56.66-1.07l.07-.23c.16-.51.18-.93.07-1.25-.12-.32-.36-.54-.74-.66l-.43-.14Z"/>
            </g>
            <g>
              <path class="cls-39" d="M22.9,52.6l-2.28,3.54-1.43-.45,3.47-4.75,1.4.44.1,5.88-1.42-.45.17-4.21Z"/>
              <path class="cls-39" d="M16.58,50.61l1.85,1.03.65-1.16-2.18-1.22.5-.9,3.36,1.87-2.71,4.87-3.36-1.88.51-.91,2.19,1.22.57-1.03-1.85-1.03.48-.87Z"/>
              <path class="cls-39" d="M14.32,48.35l.55.47,1.29-1.5,1.02.88-3.63,4.23-1.67-1.43c-.5-.43-.8-.88-.89-1.34-.09-.47.04-.9.39-1.31.25-.29.52-.49.81-.58.29-.09.61-.09.96,0l.58-2.47.04-.04,1.09.94-.54,2.14ZM14.2,49.61l-.65-.55c-.19-.17-.38-.24-.57-.22-.18.02-.36.12-.51.3-.16.18-.23.37-.22.56,0,.19.11.37.3.53l.64.55,1-1.17Z"/>
              <path class="cls-39" d="M12.64,43.8l.87,1.02-4.26,3.6-.87-1.02,4.26-3.6Z"/>
              <path class="cls-39" d="M8.39,41.45l1.15,1.84,1.88-1.18.71,1.14-4.72,2.96-1.98-3.16.88-.55,1.27,2.02,1.09-.68-1.15-1.84.88-.55Z"/>
              <path class="cls-39" d="M9.49,38.43l.55,1.22-5.09,2.27-.55-1.22,5.09-2.27Z"/>
              <path class="cls-39" d="M5.94,35.06l.58,2.03,1.28-.36-.68-2.4.99-.28,1.05,3.7-5.37,1.52-1.05-3.7,1-.28.69,2.41,1.13-.32-.58-2.03.96-.27Z"/>
              <path class="cls-39" d="M8.06,33.79l-5.56.43-.14-1.79c-.04-.49.04-.94.23-1.35.19-.41.48-.74.87-.99.39-.25.84-.4,1.34-.44l.26-.02c.51-.04.97.03,1.39.22s.76.46,1.02.84.41.8.45,1.28l.14,1.83ZM3.43,32.79l3.49-.27-.04-.47c-.03-.38-.19-.67-.48-.85-.29-.19-.7-.26-1.24-.21l-.24.02c-.54.04-.94.17-1.19.4-.26.23-.37.54-.34.93l.04.45Z"/>
            </g>
          </g>
          <path class="cls-39" d="M30,9.1c11.52,0,20.9,9.38,20.9,20.9s-9.38,20.9-20.9,20.9-20.9-9.38-20.9-20.9S18.48,9.1,30,9.1M30,8.86c-11.67,0-21.14,9.46-21.14,21.14s9.46,21.14,21.14,21.14,21.14-9.46,21.14-21.14-9.46-21.14-21.14-21.14h0Z"/>
          <path class="cls-39" d="M30,1.33c15.81,0,28.67,12.86,28.67,28.67s-12.86,28.67-28.67,28.67S1.33,45.81,1.33,30,14.19,1.33,30,1.33M30,1.07C14.02,1.07,1.07,14.02,1.07,30s12.95,28.93,28.93,28.93,28.93-12.95,28.93-28.93S45.98,1.07,30,1.07h0Z"/>
          <path class="cls-34" d="M59.88,4.18c-.72.69-1.44,1.38-2.16,2.06-6.41,6.07-12.05,12.8-17.35,19.85h0c-2.9,3.86-5.54,7.93-8.14,11.99-.54.85-1.09,1.7-1.66,2.53-1.06,1.55-3.18,1.95-4.73.9-.37-.25-.68-.57-.92-.93-1.46-2.19-3.89-5.18-5.85-6.98-1.57-1.43-3.68-3-5.88-4.16-.85-.45-.92-1.65-.11-2.19,1.67-1.12,4.34-1.76,7.27-.41,1.7.78,5.64,4.25,7.15,5.98,2.46-3.58,5.16-6.98,8.12-10.16,5.41-5.83,11.46-11.09,18.03-15.55,1.03-.7,2.1-1.38,3.15-2.05.85-.52,1.71-1.03,2.56-1.54.19-.11.45-.07.57.12.12.18.09.41-.05.55h0Z"/>
        </g>
      </g>
    </g>
  </g>
</svg>