<svg id="dichvu" xmlns="http://www.w3.org/2000/svg" xmlns:xlink="http://www.w3.org/1999/xlink"
    viewBox="0 0 628.71 699.37">
    <defs>
        <linearGradient id="linear-gradient" x1="92.25" y1="281.8" x2="406.61" y2="281.8"
            gradientUnits="userSpaceOnUse">
            <stop offset="0" stop-color="#00b26b" />
            <stop offset="1" stop-color="#00a5d3" />
        </linearGradient>
        <linearGradient id="linear-gradient-2" x1="175.38" y1="318.29" x2="175.38" y2="219.09"
            gradientTransform="translate(356.5 3.84) rotate(67.5)" gradientUnits="userSpaceOnUse">
            <stop offset="0" stop-color="#fff" />
            <stop offset="1" stop-color="#ccc" />
        </linearGradient>
        <linearGradient id="linear-gradient-3" x1="137.91" y1="259.15" x2="199.9" y2="260.45"
            xlink:href="#linear-gradient" />
        <linearGradient id="linear-gradient-4" x1="137.91" y1="258.8" x2="199.91" y2="260.1"
            xlink:href="#linear-gradient" />
        <linearGradient id="linear-gradient-5" x1="137.46" y1="280.38" x2="199.46" y2="281.68"
            xlink:href="#linear-gradient" />
        <linearGradient id="linear-gradient-6" x1="137.47" y1="280.03" x2="199.47" y2="281.33"
            xlink:href="#linear-gradient" />
        <linearGradient id="linear-gradient-7" x1="137.69" y1="269.59" x2="199.68" y2="270.89"
            xlink:href="#linear-gradient" />
        <linearGradient id="linear-gradient-8" x1="137.99" y1="255.19" x2="199.99" y2="256.49"
            xlink:href="#linear-gradient" />
        <linearGradient id="linear-gradient-9" x1="137.39" y1="283.99" x2="199.38" y2="285.29"
            xlink:href="#linear-gradient" />
        <linearGradient id="linear-gradient-10" x1="138" y1="254.47" x2="200" y2="255.77"
            xlink:href="#linear-gradient" />
        <linearGradient id="linear-gradient-11" x1="137.37" y1="284.72" x2="199.37" y2="286.02"
            xlink:href="#linear-gradient" />
        <linearGradient id="linear-gradient-12" x1="133.49" y1="91.12" x2="133.49" y2="91.12"
            gradientUnits="userSpaceOnUse">
            <stop offset="0" stop-color="#00a5d3" />
            <stop offset="1" stop-color="#413e8e" />
        </linearGradient>
        <linearGradient id="linear-gradient-13" x1="353.68" y1="69.76" x2="510.86" y2="342"
            xlink:href="#linear-gradient-12" />
        <linearGradient id="linear-gradient-14" x1="406.61" y1="184.79" x2="406.61" y2="85.59"
            gradientTransform="matrix(1, 0, 0, 1, 0, 0)" xlink:href="#linear-gradient-2" />
        <linearGradient id="linear-gradient-15" x1="382.61" y1="135.19" x2="434.21" y2="135.19"
            xlink:href="#linear-gradient-12" />
        <linearGradient id="linear-gradient-16" x1="508.67" y1="461.11" x2="665.85" y2="188.87"
            gradientUnits="userSpaceOnUse">
            <stop offset="0" stop-color="#ee3b95" />
            <stop offset="1" stop-color="#413e8e" />
        </linearGradient>
        <linearGradient id="linear-gradient-17" x1="637.84" y1="318.29" x2="637.84" y2="219.09"
            gradientTransform="matrix(1, 0, 0, 1, 0, 0)" xlink:href="#linear-gradient-2" />
        <linearGradient id="linear-gradient-18" x1="572.71" y1="275.53" x2="758.54" y2="277.88"
            xlink:href="#linear-gradient-16" />
        <linearGradient id="linear-gradient-19" x1="572.9" y1="260.24" x2="758.74" y2="262.59"
            xlink:href="#linear-gradient-16" />
        <linearGradient id="linear-gradient-20" x1="572.51" y1="291.05" x2="758.35" y2="293.4"
            xlink:href="#linear-gradient-16" />
        <linearGradient id="linear-gradient-21" x1="406.61" y1="522.57" x2="720.96" y2="522.57"
            gradientUnits="userSpaceOnUse">
            <stop offset="0" stop-color="#f77d45" />
            <stop offset="1" stop-color="#ee3b95" />
        </linearGradient>
        <linearGradient id="linear-gradient-22" x1="637.84" y1="585.29" x2="637.84" y2="486.09"
            gradientTransform="matrix(1, 0, 0, 1, 0, 0)" xlink:href="#linear-gradient-2" />
        <linearGradient id="linear-gradient-23" x1="616.4" y1="532.58" x2="663.66" y2="532.58"
            xlink:href="#linear-gradient-21" />
        <linearGradient id="linear-gradient-24" x1="646.05" y1="545.92" x2="657.73" y2="545.92"
            xlink:href="#linear-gradient-21" />
        <linearGradient id="linear-gradient-25" x1="646.05" y1="556.48" x2="657.73" y2="556.48"
            xlink:href="#linear-gradient-21" />
        <linearGradient id="linear-gradient-26" x1="495.22" y1="608.25" x2="495.22" y2="608.25"
            gradientUnits="userSpaceOnUse">
            <stop offset="0" stop-color="#ece953" />
            <stop offset="1" stop-color="#f77d45" />
        </linearGradient>
        <linearGradient id="linear-gradient-27" x1="302.35" y1="462.38" x2="459.53" y2="734.62"
            xlink:href="#linear-gradient-26" />
        <linearGradient id="linear-gradient-28" x1="406.61" y1="718.79" x2="406.61" y2="619.59"
            gradientTransform="matrix(1, 0, 0, 1, 0, 0)" xlink:href="#linear-gradient-2" />
        <linearGradient id="linear-gradient-29" x1="372.56" y1="679.4" x2="447.38" y2="679.4"
            xlink:href="#linear-gradient-26" />
        <linearGradient id="linear-gradient-30" x1="372.56" y1="679.38" x2="447.38" y2="679.38"
            xlink:href="#linear-gradient-26" />
        <linearGradient id="linear-gradient-31" x1="372.56" y1="686.36" x2="447.38" y2="686.36"
            xlink:href="#linear-gradient-26" />
        <linearGradient id="linear-gradient-32" x1="372.56" y1="640.66" x2="447.38" y2="640.66"
            xlink:href="#linear-gradient-26" />
        <linearGradient id="linear-gradient-33" x1="372.56" y1="665" x2="447.38" y2="665"
            xlink:href="#linear-gradient-26" />
        <linearGradient id="linear-gradient-34" x1="372.56" y1="637.21" x2="447.38" y2="637.21"
            xlink:href="#linear-gradient-26" />
        <linearGradient id="linear-gradient-35" x1="372.56" y1="637.21" x2="447.38" y2="637.21"
            xlink:href="#linear-gradient-26" />
        <linearGradient id="linear-gradient-36" x1="0" y1="377.04" x2="0" y2="377.04"
            xlink:href="#linear-gradient" />
        <linearGradient id="linear-gradient-38" x1="147.37" y1="615.5" x2="304.55" y2="343.26"
            gradientUnits="userSpaceOnUse">
            <stop offset="0" stop-color="#ece953" />
            <stop offset="1" stop-color="#00b26b" />
        </linearGradient>
        <linearGradient id="linear-gradient-39" x1="175.38" y1="585.29" x2="175.38" y2="486.09"
            gradientTransform="translate(603.17 168.66) rotate(67.5)"
            xlink:href="#linear-gradient-2" />
        <linearGradient id="linear-gradient-40" x1="113.81" y1="519.33" x2="231.7" y2="519.33"
            xlink:href="#linear-gradient-38" />
        <linearGradient id="linear-gradient-41" x1="113.81" y1="552.14" x2="231.7" y2="552.14"
            xlink:href="#linear-gradient-38" />
        <linearGradient id="linear-gradient-42" x1="113.81" y1="552.14" x2="231.7" y2="552.14"
            xlink:href="#linear-gradient-38" />
        <linearGradient id="linear-gradient-43" x1="113.81" y1="519.33" x2="231.7" y2="519.33"
            xlink:href="#linear-gradient-38" />
    </defs>
    <g id="matruyxuat">
        <path
            d="M385.11,208.28,270.93,142.36a43,43,0,0,0-43,0l-92.68,53.51a86,86,0,0,0-43,74.47V427a43,43,0,0,1,21.5-37.23l114.18-65.93a43,43,0,0,1,43,0l135.68,78.34V245.52A43,43,0,0,0,385.11,208.28Z"
            transform="translate(-92.25 -52.5)" fill="url(#linear-gradient)" />
        <circle cx="175.38" cy="268.69" r="52.02"
            transform="translate(-214.63 96.63) rotate(-34.99)" fill="#fff" />
        <circle cx="175.38" cy="268.69" r="49.6" transform="translate(-232.22 275.39) rotate(-67.5)"
            fill="url(#linear-gradient-2)" />
        <path
            d="M167.11,265.65c-1.49,0-3,0-4.48,0-1,0-1.41-.42-1.41-1.41,0-3,0-6,0-9,0-1,.41-1.41,1.41-1.41h9c1,0,1.43.42,1.43,1.41,0,3,0,6,0,9,0,1-.44,1.41-1.43,1.41C170.1,265.66,168.61,265.65,167.11,265.65Z"
            transform="translate(-92.25 -52.5)" fill="url(#linear-gradient-3)" />
        <path
            d="M183.67,253.87h4.48c1,0,1.38.43,1.38,1.39v9a1.19,1.19,0,0,1-1.35,1.37c-3,0-6.08,0-9.12,0a1.18,1.18,0,0,1-1.33-1.34q0-4.56,0-9.12a1.19,1.19,0,0,1,1.35-1.32Z"
            transform="translate(-92.25 -52.5)" fill="url(#linear-gradient-4)" />
        <path
            d="M161.21,281c0-1.48,0-2.95,0-4.43,0-1,.41-1.41,1.41-1.41h9c1,0,1.43.42,1.43,1.41,0,3,0,6,0,9,0,1-.43,1.41-1.43,1.41h-9c-1,0-1.41-.42-1.41-1.41C161.21,284,161.21,282.46,161.21,281Z"
            transform="translate(-92.25 -52.5)" fill="url(#linear-gradient-5)" />
        <path
            d="M189.53,281v4.48c0,1-.41,1.42-1.41,1.42h-9c-1,0-1.43-.42-1.43-1.46q0-4.43,0-8.85c0-1.06.42-1.47,1.48-1.47h8.85c1.1,0,1.48.39,1.48,1.51Z"
            transform="translate(-92.25 -52.5)" fill="url(#linear-gradient-6)" />
        <path
            d="M175.38,271.57H155.81a3.26,3.26,0,0,1-.82-.08,1.11,1.11,0,0,1-.85-1.09,1.15,1.15,0,0,1,.86-1.14,2.9,2.9,0,0,1,.66-.07h39.41a2.68,2.68,0,0,1,.76.1,1.07,1.07,0,0,1,.77,1.1,1.06,1.06,0,0,1-.78,1.08,2.8,2.8,0,0,1-.87.1Z"
            transform="translate(-92.25 -52.5)" fill="url(#linear-gradient-7)" />
        <path
            d="M156.49,251.49v9c0,.18,0,.37,0,.55a1.15,1.15,0,0,1-1.15,1.11,1.18,1.18,0,0,1-1.19-1.09c0-.12,0-.25,0-.38q0-5.06,0-10.11c0-1.06.41-1.47,1.47-1.47h10.45a1.18,1.18,0,0,1,1.12,1.2,1.14,1.14,0,0,1-1.12,1.14c-.81,0-1.62,0-2.43,0h-7.14Z"
            transform="translate(-92.25 -52.5)" fill="url(#linear-gradient-8)" />
        <path
            d="M194.26,289.27v-9.06c0-.19,0-.37,0-.56a1.16,1.16,0,0,1,1.12-1.08,1.18,1.18,0,0,1,1.21,1.06,7.63,7.63,0,0,1,0,.83v9.78a1.2,1.2,0,0,1-1.34,1.38H184.88a1.21,1.21,0,0,1-1.3-1,1.14,1.14,0,0,1,.7-1.29,2.84,2.84,0,0,1,.82-.1h9.16Z"
            transform="translate(-92.25 -52.5)" fill="url(#linear-gradient-9)" />
        <path
            d="M194.26,251.49h-9.33c-.85,0-1.37-.46-1.37-1.18s.54-1.17,1.38-1.17h10.28a1.21,1.21,0,0,1,1.39,1.38v10.34a1.21,1.21,0,0,1-1,1.31,1.16,1.16,0,0,1-1.3-.69,2.79,2.79,0,0,1-.1-.82v-9.17Z"
            transform="translate(-92.25 -52.5)" fill="url(#linear-gradient-10)" />
        <path
            d="M156.49,289.27h9.39a1.19,1.19,0,0,1,1.31,1.18,1.21,1.21,0,0,1-1.34,1.17H155.36a1.17,1.17,0,0,1-1.22-1.23q0-5.29,0-10.61a1.17,1.17,0,0,1,1.17-1.21,1.15,1.15,0,0,1,1.17,1.26c0,2.89,0,5.78,0,8.67Z"
            transform="translate(-92.25 -52.5)" fill="url(#linear-gradient-11)" />
        <path
            d="M251,249.14V236.71h2.38l5.3,8.77h-1.27l5.21-8.77H265l0,12.43h-2.7v-8.29h.49l-4.15,7h-1.3l-4.24-7h.6v8.29Z"
            transform="translate(-92.25 -52.5)" fill="#fff" />
        <path
            d="M266.3,249.14l5.54-12.43h2.84l5.56,12.43h-3l-4.55-11h1.14l-4.56,11Zm2.77-2.67.76-2.18h6.39l.78,2.18Zm5.52-10.72a1.94,1.94,0,0,1-.82-.17,3.42,3.42,0,0,1-.64-.39c-.19-.15-.36-.28-.53-.39a.88.88,0,0,0-.5-.17.75.75,0,0,0-.58.26,1.21,1.21,0,0,0-.27.74h-1.4a3.12,3.12,0,0,1,.59-1.9,1.8,1.8,0,0,1,1.49-.7,1.89,1.89,0,0,1,.81.17,3.23,3.23,0,0,1,.65.4c.2.16.38.29.54.4a.9.9,0,0,0,.48.17.8.8,0,0,0,.61-.26,1.07,1.07,0,0,0,.24-.7h1.41a3,3,0,0,1-.58,1.84A1.8,1.8,0,0,1,274.59,235.75Z"
            transform="translate(-92.25 -52.5)" fill="#fff" />
        <path d="M253.55,270.45V260.36h-4V258H260.4v2.34h-4v10.09Z"
            transform="translate(-92.25 -52.5)" fill="#fff" />
        <path
            d="M262,270.45V258h5.38a7,7,0,0,1,2.87.54,4.23,4.23,0,0,1,1.87,1.55,4.34,4.34,0,0,1,.66,2.42,4.21,4.21,0,0,1-.66,2.38,4.14,4.14,0,0,1-1.87,1.54,7,7,0,0,1-2.87.53h-3.78l1.27-1.26v4.73Zm2.87-4.41-1.27-1.35h3.62a3,3,0,0,0,2-.57,2,2,0,0,0,.65-1.59,2,2,0,0,0-.65-1.6,3,3,0,0,0-2-.57h-3.62l1.27-1.37Zm5,4.41-3.11-4.51h3.07l3.15,4.51Z"
            transform="translate(-92.25 -52.5)" fill="#fff" />
        <path
            d="M280.52,270.66a5.16,5.16,0,0,1-5.63-5.68v-7h2.88v6.85a3.68,3.68,0,0,0,.73,2.56,2.64,2.64,0,0,0,2,.78,2.67,2.67,0,0,0,2-.78,3.68,3.68,0,0,0,.73-2.56V258h2.84v7a5.16,5.16,0,0,1-5.63,5.68Z"
            transform="translate(-92.25 -52.5)" fill="#fff" />
        <path
            d="M291.9,270.45v-5.08l.66,1.74L287.09,258h3.05l4.19,7h-1.75l4.2-7h2.83l-5.47,9.09.64-1.74v5.08Z"
            transform="translate(-92.25 -52.5)" fill="#fff" />
        <path
            d="M304.42,270.45l5.34-7.37v2.09L304.65,258h3.27l3.53,5h-1.37l3.48-5h3.13l-5.08,7V263l5.38,7.46h-3.32L310,265.17h1.32l-3.61,5.28Z"
            transform="translate(-92.25 -52.5)" fill="#fff" />
        <path
            d="M323.86,270.66a5.16,5.16,0,0,1-5.63-5.68v-7h2.88v6.85a3.68,3.68,0,0,0,.73,2.56,3.06,3.06,0,0,0,4.08,0,3.68,3.68,0,0,0,.73-2.56V258h2.84v7a5.16,5.16,0,0,1-5.63,5.68Z"
            transform="translate(-92.25 -52.5)" fill="#fff" />
        <path
            d="M330.43,270.45,336,258h2.84l5.56,12.43h-3l-4.54-11h1.13l-4.56,11Zm2.77-2.67.77-2.18h6.39l.78,2.18Zm.62-10.78,2.36-2h2.42l2.36,2h-2l-2.4-1.59h1.74l-2.4,1.59Zm5.7-1.7,2-2.15h2.83l-2.79,2.15Z"
            transform="translate(-92.25 -52.5)" fill="#fff" />
        <path d="M347.62,270.45V260.36h-4V258h10.83v2.34h-4v10.09Z"
            transform="translate(-92.25 -52.5)" fill="#fff" />
        <path d="M251,291.75V279.32h2.38l7.34,8.95h-1.16v-8.95h2.84v12.43H260l-7.35-8.95h1.16v8.95Z"
            transform="translate(-92.25 -52.5)" fill="#fff" />
        <path
            d="M271.32,292a7.67,7.67,0,0,1-2.71-.47,6.49,6.49,0,0,1-2.14-1.35,6,6,0,0,1-1.42-2,6.76,6.76,0,0,1,0-5.15,5.94,5.94,0,0,1,1.43-2,6.3,6.3,0,0,1,2.16-1.34,7.76,7.76,0,0,1,2.74-.47,7.6,7.6,0,0,1,3,.55,6,6,0,0,1,2.23,1.6l-1.85,1.7a4.54,4.54,0,0,0-1.47-1,4.33,4.33,0,0,0-1.74-.35,4.76,4.76,0,0,0-1.65.28,3.74,3.74,0,0,0-1.29.82,3.87,3.87,0,0,0-.84,1.26,4.45,4.45,0,0,0-.29,1.62,4.38,4.38,0,0,0,.29,1.6,4,4,0,0,0,.84,1.27,3.65,3.65,0,0,0,1.28.82,4.45,4.45,0,0,0,1.62.29,5.21,5.21,0,0,0,1.66-.28,4.68,4.68,0,0,0,1.57-.93l1.64,2.08a7.66,7.66,0,0,1-2.36,1.17A9.16,9.16,0,0,1,271.32,292Zm2.4-2v-4.67h2.63v5.05Z"
            transform="translate(-92.25 -52.5)" fill="#fff" />
        <path
            d="M284.53,292a5.16,5.16,0,0,1-5.62-5.69v-7h2.87v6.86a3.65,3.65,0,0,0,.73,2.55,3,3,0,0,0,4.08,0,3.65,3.65,0,0,0,.73-2.55v-6.86h2.84v7a5.16,5.16,0,0,1-5.63,5.69Z"
            transform="translate(-92.25 -52.5)" fill="#fff" />
        <path
            d="M299,292a7.61,7.61,0,0,1-2.73-.48,6.48,6.48,0,0,1-2.16-1.35,6.13,6.13,0,0,1-1.42-2.05,6.66,6.66,0,0,1,0-5.11,6.08,6.08,0,0,1,1.43-2,6.48,6.48,0,0,1,2.16-1.35,7.86,7.86,0,0,1,5.41,0,6.53,6.53,0,0,1,2.15,1.35,6.44,6.44,0,0,1,1.43,2,6.4,6.4,0,0,1-1.43,7.18,6.68,6.68,0,0,1-2.15,1.34A7.35,7.35,0,0,1,299,292Zm0-2.45a4.06,4.06,0,0,0,1.54-.29,3.54,3.54,0,0,0,1.23-.82,3.64,3.64,0,0,0,.83-1.26,4.35,4.35,0,0,0,.29-1.61,4.45,4.45,0,0,0-.29-1.62,4,4,0,0,0-.82-1.26,3.69,3.69,0,0,0-1.23-.82,4.36,4.36,0,0,0-1.55-.28,4.21,4.21,0,0,0-1.53.28,3.68,3.68,0,0,0-2.06,2.08,4.25,4.25,0,0,0-.3,1.62,4.18,4.18,0,0,0,.3,1.6,3.55,3.55,0,0,0,.81,1.27,3.49,3.49,0,0,0,1.24.82A4.1,4.1,0,0,0,299,289.52Zm-3.57-11.21,2.36-2h2.42l2.36,2h-2l-2.4-1.6h1.74l-2.4,1.6Zm6.77-1.7-2.79-2.15h2.82l2,2.15Z"
            transform="translate(-92.25 -52.5)" fill="#fff" />
        <path d="M308,291.75V279.32h2.38l7.33,8.95h-1.15v-8.95h2.84v12.43H317l-7.35-8.95h1.15v8.95Z"
            transform="translate(-92.25 -52.5)" fill="#fff" />
        <path
            d="M333.36,292a7.67,7.67,0,0,1-2.71-.47,6.39,6.39,0,0,1-2.14-1.35,6.22,6.22,0,0,1-1.43-2,6.88,6.88,0,0,1,0-5.15,6.22,6.22,0,0,1,1.43-2,6.44,6.44,0,0,1,2.17-1.34,7.75,7.75,0,0,1,2.73-.47,7.61,7.61,0,0,1,3,.55,6,6,0,0,1,2.23,1.6l-1.85,1.7a4.54,4.54,0,0,0-1.47-1,4.4,4.4,0,0,0-1.74-.35,4.76,4.76,0,0,0-1.65.28,3.74,3.74,0,0,0-1.29.82,3.87,3.87,0,0,0-.84,1.26,4.45,4.45,0,0,0-.29,1.62,4.38,4.38,0,0,0,.29,1.6,4,4,0,0,0,.84,1.27,3.65,3.65,0,0,0,1.28.82,4.45,4.45,0,0,0,1.62.29,5.21,5.21,0,0,0,1.66-.28,4.68,4.68,0,0,0,1.57-.93l1.64,2.08a7.66,7.66,0,0,1-2.36,1.17A9.16,9.16,0,0,1,333.36,292Zm2.4-2v-4.67h2.63v5.05Z"
            transform="translate(-92.25 -52.5)" fill="#fff" />
        <path
            d="M347.09,292a7.57,7.57,0,0,1-2.73-.48,6.38,6.38,0,0,1-2.16-1.35,6,6,0,0,1-1.43-2.05,6.78,6.78,0,0,1,0-5.11,6.22,6.22,0,0,1,1.43-2,6.62,6.62,0,0,1,2.17-1.35,7.86,7.86,0,0,1,5.41,0,6.53,6.53,0,0,1,2.15,1.35,6.41,6.41,0,0,1,1.42,2,6.59,6.59,0,0,1,0,5.13,6.28,6.28,0,0,1-1.42,2,6.68,6.68,0,0,1-2.15,1.34A7.39,7.39,0,0,1,347.09,292Zm0-2.45a4.1,4.1,0,0,0,1.54-.29,3.74,3.74,0,0,0,1.23-.82,3.62,3.62,0,0,0,.82-1.26,4.16,4.16,0,0,0,.3-1.61,4.25,4.25,0,0,0-.3-1.62,3.79,3.79,0,0,0-.81-1.26,3.63,3.63,0,0,0-1.24-.82,4.38,4.38,0,0,0-3.08,0,3.79,3.79,0,0,0-1.23.82,3.84,3.84,0,0,0-.83,1.26,4.45,4.45,0,0,0-.29,1.62,4.38,4.38,0,0,0,.29,1.6,3.71,3.71,0,0,0,.82,1.27,3.54,3.54,0,0,0,1.23.82A4.15,4.15,0,0,0,347.07,289.52Zm-3.57-11.21,2.36-2h2.42l2.36,2h-2l-2.4-1.6h1.74l-2.4,1.6Zm5.7-1.7,2-2.15H354l-2.78,2.15Z"
            transform="translate(-92.25 -52.5)" fill="#fff" />
        <path
            d="M362,292a7.53,7.53,0,0,1-2.67-.47,6.49,6.49,0,0,1-2.14-1.35,6.28,6.28,0,0,1-1.92-4.61,6.39,6.39,0,0,1,.51-2.58,6.19,6.19,0,0,1,1.42-2,6.31,6.31,0,0,1,2.14-1.34,7.51,7.51,0,0,1,2.68-.47,7.38,7.38,0,0,1,2.92.56,5.76,5.76,0,0,1,2.2,1.64L365.27,283a4.43,4.43,0,0,0-1.42-1.1,4,4,0,0,0-1.71-.36,4.5,4.5,0,0,0-1.59.28,3.76,3.76,0,0,0-1.27.82,4,4,0,0,0-.82,1.26,4.25,4.25,0,0,0-.29,1.62,4.16,4.16,0,0,0,.29,1.61,3.76,3.76,0,0,0,.82,1.26,3.61,3.61,0,0,0,1.27.82,4.29,4.29,0,0,0,1.59.29,4,4,0,0,0,1.71-.37,4.2,4.2,0,0,0,1.42-1.11l1.85,1.71a5.89,5.89,0,0,1-2.2,1.65A7.27,7.27,0,0,1,362,292Z"
            transform="translate(-92.25 -52.5)" fill="#fff" />
    </g>
    <g id="hethongtruyxuat">
        <polygon points="131.29 92.39 135.68 89.85 135.68 89.86 131.29 92.39"
            fill="url(#linear-gradient-12)" />
        <path
            d="M542.29,117.54,449.6,64a86,86,0,0,0-86,0L227.93,142.36a43,43,0,0,1,43,0l114.18,65.92a43,43,0,0,1,21.5,37.24V402.19l135.68-78.34a43,43,0,0,0,21.5-37.23V154.77A43,43,0,0,0,542.29,117.54Z"
            transform="translate(-92.25 -52.5)" fill="url(#linear-gradient-13)" />
        <circle cx="406.61" cy="135.19" r="52.02" transform="translate(42.88 414.2) rotate(-69.08)"
            fill="#fff" />
        <path d="M406.61,85.59a49.6,49.6,0,1,0,49.6,49.6A49.59,49.59,0,0,0,406.61,85.59Z"
            transform="translate(-92.25 -52.5)" fill="url(#linear-gradient-14)" />
        <path
            d="M427.27,244.15H424.4V231.72h2.87Zm5.86-5.1h-6.07v-2.43h6.07Zm-.21-7.33h2.87v12.43h-2.87Z"
            transform="translate(-92.25 -52.5)" fill="#fff" />
        <path
            d="M441.6,241.84h6.77v2.31h-9.63V231.72h9.39V234H441.6Zm-1.72-11.13,2.34-2.56h2.45l2.35,2.56h-2l-2.45-2.13h1.81l-2.45,2.13Zm1.51,6h6V239h-6Zm2.15,11.15a1.24,1.24,0,0,1-.87-.32,1.12,1.12,0,0,1-.36-.87,1.21,1.21,0,0,1,1.23-1.25,1.2,1.2,0,0,1,1.22,1.25,1.15,1.15,0,0,1-.35.87A1.28,1.28,0,0,1,443.54,247.88Z"
            transform="translate(-92.25 -52.5)" fill="#fff" />
        <path d="M458.26,244.15V234.06h-4v-2.34h10.83v2.34h-4v10.09Z"
            transform="translate(-92.25 -52.5)" fill="#fff" />
        <path
            d="M469.53,244.15h-2.88V231.72h2.88Zm5.86-5.1h-6.07v-2.43h6.07Zm-.21-7.33h2.87v12.43h-2.87Z"
            transform="translate(-92.25 -52.5)" fill="#fff" />
        <path
            d="M487,244.36a7.61,7.61,0,0,1-2.73-.48,6.48,6.48,0,0,1-2.16-1.35,6,6,0,0,1-1.42-2,6.66,6.66,0,0,1,0-5.11,5.88,5.88,0,0,1,1.43-2,6.48,6.48,0,0,1,2.16-1.35,8,8,0,0,1,5.41,0,6.53,6.53,0,0,1,2.15,1.35,6.37,6.37,0,0,1,1.43,2,6.29,6.29,0,0,1,.51,2.56,6.41,6.41,0,0,1-.51,2.57,6.16,6.16,0,0,1-1.43,2,6.68,6.68,0,0,1-2.15,1.34A7.35,7.35,0,0,1,487,244.36Zm0-2.45a4.06,4.06,0,0,0,1.54-.28,3.79,3.79,0,0,0,1.23-.82,3.84,3.84,0,0,0,.83-1.26,4.45,4.45,0,0,0,.29-1.62,4.35,4.35,0,0,0-.29-1.61,3.76,3.76,0,0,0-.82-1.26,3.54,3.54,0,0,0-1.23-.82A4.15,4.15,0,0,0,487,234a4.06,4.06,0,0,0-1.54.28,3.74,3.74,0,0,0-1.23.82,3.79,3.79,0,0,0-.83,1.26,4.35,4.35,0,0,0-.29,1.61,4.43,4.43,0,0,0,.29,1.61,3.91,3.91,0,0,0,.82,1.27,3.63,3.63,0,0,0,1.24.82A4.06,4.06,0,0,0,487,241.91Zm-3.57-11.2,2.36-2h2.42l2.36,2h-2l-2.4-1.6h1.74l-2.4,1.6Zm5.7-1.71,2-2.15H494L491.16,229Z"
            transform="translate(-92.25 -52.5)" fill="#fff" />
        <path d="M496,244.15V231.72h2.38l7.33,8.95h-1.15v-8.95h2.84v12.43H505l-7.36-9h1.16v9Z"
            transform="translate(-92.25 -52.5)" fill="#fff" />
        <path
            d="M516.34,244.36a7.59,7.59,0,0,1-2.71-.47,6.23,6.23,0,0,1-3.57-3.38,6.76,6.76,0,0,1,0-5.15,6.08,6.08,0,0,1,1.43-2,6.39,6.39,0,0,1,2.16-1.34,8.26,8.26,0,0,1,5.71.08,5.88,5.88,0,0,1,2.23,1.59l-1.85,1.71a4.43,4.43,0,0,0-1.47-1.06,4.32,4.32,0,0,0-1.74-.34,4.61,4.61,0,0,0-1.65.28,3.6,3.6,0,0,0-1.29.82,3.51,3.51,0,0,0-.83,1.26,4.44,4.44,0,0,0,0,3.21,3.63,3.63,0,0,0,.83,1.27,3.68,3.68,0,0,0,1.28.83,4.45,4.45,0,0,0,1.62.28,5,5,0,0,0,1.67-.28,4.78,4.78,0,0,0,1.57-.93l1.63,2.08A7.4,7.4,0,0,1,519,244,9.27,9.27,0,0,1,516.34,244.36Zm2.39-2v-4.67h2.63v5Z"
            transform="translate(-92.25 -52.5)" fill="#fff" />
        <path d="M427,265.45V255.37h-4V253h10.83v2.34h-4v10.08Z" transform="translate(-92.25 -52.5)"
            fill="#fff" />
        <path
            d="M435.37,265.45V253h5.38a7,7,0,0,1,2.88.54,4.26,4.26,0,0,1,1.86,1.55,4.34,4.34,0,0,1,.66,2.42,4.07,4.07,0,0,1-2.52,3.92,7.22,7.22,0,0,1-2.88.53H437l1.28-1.26v4.72Zm2.88-4.4L437,259.7h3.62a2.92,2.92,0,0,0,2-.58,2.25,2.25,0,0,0,0-3.18,3,3,0,0,0-2-.57H437l1.28-1.37Zm5,4.4-3.11-4.51h3.08l3.14,4.51Z"
            transform="translate(-92.25 -52.5)" fill="#fff" />
        <path
            d="M453.94,265.67a5.16,5.16,0,0,1-5.63-5.68v-7h2.88v6.85a3.68,3.68,0,0,0,.73,2.56,3.06,3.06,0,0,0,4.08,0,3.68,3.68,0,0,0,.73-2.56V253h2.84v7a5.16,5.16,0,0,1-5.63,5.68Z"
            transform="translate(-92.25 -52.5)" fill="#fff" />
        <path
            d="M465.32,265.45v-5.07l.66,1.74L460.51,253h3.06l4.19,7H466l4.21-7H473l-5.47,9.09.64-1.74v5.07Z"
            transform="translate(-92.25 -52.5)" fill="#fff" />
        <path
            d="M477.84,265.45l5.34-7.36v2.09L478.07,253h3.27l3.53,5-1.37,0,3.48-5h3.13l-5.08,7V258l5.38,7.45h-3.32l-3.66-5.27h1.32l-3.61,5.27Z"
            transform="translate(-92.25 -52.5)" fill="#fff" />
        <path
            d="M497.28,265.67a5.17,5.17,0,0,1-5.63-5.68v-7h2.88v6.85a3.68,3.68,0,0,0,.73,2.56,3.06,3.06,0,0,0,4.08,0,3.68,3.68,0,0,0,.73-2.56V253h2.84v7a5.65,5.65,0,0,1-1.49,4.2A5.59,5.59,0,0,1,497.28,265.67Z"
            transform="translate(-92.25 -52.5)" fill="#fff" />
        <path
            d="M503.85,265.45,509.39,253h2.84l5.56,12.42h-3l-4.54-11h1.13l-4.56,11Zm2.77-2.66.77-2.18h6.39l.78,2.18Zm.62-10.78,2.37-2H512l2.36,2h-2l-2.4-1.59h1.74L509.29,252Zm5.7-1.7,2-2.15h2.83L515,250.31Z"
            transform="translate(-92.25 -52.5)" fill="#fff" />
        <path d="M521,265.45V255.37h-4V253h10.83v2.34h-4v10.08Z" transform="translate(-92.25 -52.5)"
            fill="#fff" />
        <path
            d="M424.4,286.76V274.33h2.38l7.33,8.95H433v-8.95h2.84v12.43h-2.36l-7.35-8.95h1.16v8.95Z"
            transform="translate(-92.25 -52.5)" fill="#fff" />
        <path
            d="M444.74,287a7.36,7.36,0,0,1-2.7-.47,6.26,6.26,0,0,1-2.15-1.34,6,6,0,0,1-1.42-2,6.76,6.76,0,0,1,0-5.15,5.94,5.94,0,0,1,1.43-2,6.3,6.3,0,0,1,2.16-1.34,7.76,7.76,0,0,1,2.74-.47,7.6,7.6,0,0,1,3,.55,5.9,5.9,0,0,1,2.23,1.6l-1.85,1.7a4.54,4.54,0,0,0-1.47-1.05,4.33,4.33,0,0,0-1.74-.35,4.57,4.57,0,0,0-1.65.28,3.74,3.74,0,0,0-1.29.82,3.69,3.69,0,0,0-.83,1.26,4.25,4.25,0,0,0-.3,1.62,4.18,4.18,0,0,0,.3,1.6,3.69,3.69,0,0,0,.83,1.26,3.54,3.54,0,0,0,1.28.83,4.45,4.45,0,0,0,1.62.28,5.16,5.16,0,0,0,1.66-.27,4.75,4.75,0,0,0,1.57-.93l1.64,2.07a7.74,7.74,0,0,1-2.35,1.18A9.26,9.26,0,0,1,444.74,287Zm2.4-2v-4.67h2.63v5Z"
            transform="translate(-92.25 -52.5)" fill="#fff" />
        <path
            d="M458,287a5.15,5.15,0,0,1-5.62-5.68v-7h2.87v6.86a3.7,3.7,0,0,0,.73,2.55,2.67,2.67,0,0,0,2,.78,2.64,2.64,0,0,0,2-.78,3.65,3.65,0,0,0,.73-2.55v-6.86h2.84v7A5.15,5.15,0,0,1,458,287Z"
            transform="translate(-92.25 -52.5)" fill="#fff" />
        <path
            d="M472.46,287a7.73,7.73,0,0,1-2.72-.47,6.42,6.42,0,0,1-2.17-1.35,6.13,6.13,0,0,1-1.42-2,6.66,6.66,0,0,1,0-5.11,6.08,6.08,0,0,1,1.43-2,6.58,6.58,0,0,1,2.16-1.35,7.86,7.86,0,0,1,5.41,0A6.53,6.53,0,0,1,477.3,276a6.15,6.15,0,0,1,1.94,4.6,6.36,6.36,0,0,1-.51,2.56,6,6,0,0,1-1.43,2,6.53,6.53,0,0,1-2.15,1.35A7.56,7.56,0,0,1,472.46,287Zm0-2.45a4.06,4.06,0,0,0,1.54-.28,3.54,3.54,0,0,0,1.23-.82,3.64,3.64,0,0,0,.83-1.26,4.35,4.35,0,0,0,.29-1.61,4.45,4.45,0,0,0-.29-1.62,4,4,0,0,0-.82-1.26,3.69,3.69,0,0,0-1.23-.82,4.15,4.15,0,0,0-1.55-.28,4,4,0,0,0-1.53.28,3.68,3.68,0,0,0-2.06,2.08,4.25,4.25,0,0,0-.3,1.62,4.18,4.18,0,0,0,.3,1.6,3.69,3.69,0,0,0,.81,1.27,3.49,3.49,0,0,0,1.24.82A4.09,4.09,0,0,0,472.44,284.52Zm-3.57-11.2,2.37-2h2.41l2.36,2h-2l-2.4-1.6h1.74l-2.39,1.6Zm6.77-1.7-2.79-2.15h2.82l2,2.15Z"
            transform="translate(-92.25 -52.5)" fill="#fff" />
        <path
            d="M481.41,286.76V274.33h2.38l7.33,8.95H490v-8.95h2.84v12.43h-2.36l-7.35-8.95h1.15v8.95Z"
            transform="translate(-92.25 -52.5)" fill="#fff" />
        <path
            d="M506.78,287a7.46,7.46,0,0,1-2.71-.47,6.31,6.31,0,0,1-2.14-1.34,6,6,0,0,1-1.42-2,6.76,6.76,0,0,1,0-5.15,5.94,5.94,0,0,1,1.43-2,6.3,6.3,0,0,1,2.16-1.34,7.76,7.76,0,0,1,2.74-.47,7.6,7.6,0,0,1,3,.55,6,6,0,0,1,2.23,1.6l-1.85,1.7a4.54,4.54,0,0,0-1.47-1.05,4.33,4.33,0,0,0-1.74-.35,4.53,4.53,0,0,0-1.65.28,3.74,3.74,0,0,0-1.29.82,3.87,3.87,0,0,0-.84,1.26,4.45,4.45,0,0,0-.29,1.62,4.38,4.38,0,0,0,.29,1.6,3.87,3.87,0,0,0,.84,1.26,3.54,3.54,0,0,0,1.28.83,4.45,4.45,0,0,0,1.62.28,5.2,5.2,0,0,0,1.66-.27,4.85,4.85,0,0,0,1.57-.93l1.64,2.07a7.68,7.68,0,0,1-2.36,1.18A9.15,9.15,0,0,1,506.78,287Zm2.4-2v-4.67h2.63v5Z"
            transform="translate(-92.25 -52.5)" fill="#fff" />
        <path
            d="M520.51,287a7.83,7.83,0,0,1-2.73-.47,6.48,6.48,0,0,1-2.16-1.35,6,6,0,0,1-1.42-2,6.66,6.66,0,0,1,0-5.11,6,6,0,0,1,1.42-2,6.62,6.62,0,0,1,2.17-1.35,7.86,7.86,0,0,1,5.41,0,6.53,6.53,0,0,1,2.15,1.35,6.44,6.44,0,0,1,1.43,2,6.71,6.71,0,0,1,0,5.13,6.16,6.16,0,0,1-1.43,2,6.53,6.53,0,0,1-2.15,1.35A7.6,7.6,0,0,1,520.51,287Zm0-2.45a4.06,4.06,0,0,0,1.54-.28,3.64,3.64,0,0,0,1.23-.82,3.79,3.79,0,0,0,.83-1.26,4.35,4.35,0,0,0,.29-1.61,4.45,4.45,0,0,0-.29-1.62,4,4,0,0,0-.82-1.26,3.63,3.63,0,0,0-1.24-.82,4.37,4.37,0,0,0-3.08,0,3.79,3.79,0,0,0-1.23.82,3.84,3.84,0,0,0-.83,1.26,4.45,4.45,0,0,0-.29,1.62,4.38,4.38,0,0,0,.29,1.6,3.71,3.71,0,0,0,.82,1.27,3.49,3.49,0,0,0,1.24.82A4.06,4.06,0,0,0,520.49,284.52Zm-3.57-11.2,2.36-2h2.42l2.36,2h-2l-2.4-1.6h1.74l-2.4,1.6Zm5.7-1.7,2-2.15h2.82l-2.78,2.15Z"
            transform="translate(-92.25 -52.5)" fill="#fff" />
        <path
            d="M535.41,287a7.37,7.37,0,0,1-2.68-.47,6.21,6.21,0,0,1-4.05-5.95,6.38,6.38,0,0,1,.5-2.58,6.19,6.19,0,0,1,1.42-2,6.31,6.31,0,0,1,2.14-1.34,7.51,7.51,0,0,1,2.68-.47,7.38,7.38,0,0,1,2.92.56,5.69,5.69,0,0,1,2.2,1.64L538.69,278a4.43,4.43,0,0,0-1.42-1.1,4,4,0,0,0-1.7-.36,4.34,4.34,0,0,0-1.6.28,3.62,3.62,0,0,0-1.26.82,3.84,3.84,0,0,0-.83,1.26,4.45,4.45,0,0,0-.29,1.62,4.35,4.35,0,0,0,.29,1.61,3.64,3.64,0,0,0,.83,1.26,3.48,3.48,0,0,0,1.26.82,4.34,4.34,0,0,0,1.6.28,4,4,0,0,0,1.7-.36,4.2,4.2,0,0,0,1.42-1.11l1.85,1.71a5.81,5.81,0,0,1-2.2,1.65A7.26,7.26,0,0,1,535.41,287Z"
            transform="translate(-92.25 -52.5)" fill="#fff" />
        <path
            d="M382.61,154.54c.14-.12.28-.24.41-.37L398.19,139a5.82,5.82,0,0,0,.4-.5l2.11,2.21,1.43-1.56a18.16,18.16,0,0,1,2.92-26,18.12,18.12,0,0,1,25.47,25.33,17.67,17.67,0,0,1-12.46,7.09,17.85,17.85,0,0,1-13.67-4.15l-1.45,1.5,2.16,2-.5.52-15.21,15.21-.33.37H389a2.78,2.78,0,0,0-.21-.27q-2.92-2.94-5.87-5.87a2.78,2.78,0,0,0-.27-.21Zm30.44-21H410v-3h-3v6h6v-3h3v3h3v-6h-6Zm6-15.09h-6v3h3v6h3Zm6.05,6.05h-3v12h3Zm-12.12,3v-3h-6v3Zm-3-9h-3v3h3Zm15.13,0h-3v3h3Z"
            transform="translate(-92.25 -52.5)" fill="url(#linear-gradient-15)" />
    </g>
    <g id="dichvuvanhanh">
        <path
            d="M678,195.87,537.9,115l4.39,2.54a43,43,0,0,1,21.5,37.23V286.62a43,43,0,0,1-21.5,37.23L406.61,402.19l135.68,78.33a43,43,0,0,0,43,0L699.46,414.6A43,43,0,0,0,721,377.36v-107A86,86,0,0,0,678,195.87Z"
            transform="translate(-92.25 -52.5)" fill="url(#linear-gradient-16)" />
        <circle cx="637.84" cy="268.69" r="52.02"
            transform="matrix(0.26, -0.97, 0.97, 0.26, 119.94, 761.94)" fill="#fff" />
        <path d="M637.84,219.09a49.6,49.6,0,1,0,49.6,49.6A49.59,49.59,0,0,0,637.84,219.09Z"
            transform="translate(-92.25 -52.5)" fill="url(#linear-gradient-17)" />
        <path
            d="M497.43,386.43V374h5.65a7.82,7.82,0,0,1,3.57.78,5.85,5.85,0,0,1,2.41,2.15,6.62,6.62,0,0,1,0,6.56,5.83,5.83,0,0,1-2.41,2.17,8,8,0,0,1-3.57.77Zm2.88-2.36h2.63a4.67,4.67,0,0,0,2.15-.47,3.34,3.34,0,0,0,1.42-1.34,4.36,4.36,0,0,0,0-4.09,3.4,3.4,0,0,0-1.42-1.34,4.67,4.67,0,0,0-2.15-.47h-2.63Z"
            transform="translate(-92.25 -52.5)" fill="#fff" />
        <path
            d="M512.1,386.43V374H515v12.43Zm1.44,3.73a1.24,1.24,0,0,1-.87-.32,1.1,1.1,0,0,1-.36-.87,1.21,1.21,0,0,1,.36-.9,1.18,1.18,0,0,1,.87-.34,1.21,1.21,0,0,1,.87.34,1.24,1.24,0,0,1,.35.9,1.12,1.12,0,0,1-.35.87A1.28,1.28,0,0,1,513.54,390.16Z"
            transform="translate(-92.25 -52.5)" fill="#fff" />
        <path
            d="M523.87,386.65a7.28,7.28,0,0,1-2.67-.48,6.21,6.21,0,0,1-2.14-1.34,6.28,6.28,0,0,1-1.92-4.61,6.39,6.39,0,0,1,.51-2.58,6.19,6.19,0,0,1,1.42-2,6.31,6.31,0,0,1,2.14-1.34,7.47,7.47,0,0,1,2.68-.47,7.38,7.38,0,0,1,2.92.56A5.65,5.65,0,0,1,529,376l-1.84,1.71a4.43,4.43,0,0,0-1.42-1.1,4.06,4.06,0,0,0-1.71-.36,4.37,4.37,0,0,0-1.6.28,3.63,3.63,0,0,0-2.08,2.08,4.25,4.25,0,0,0-.3,1.62,4.16,4.16,0,0,0,.3,1.61,3.62,3.62,0,0,0,.82,1.26,3.66,3.66,0,0,0,1.26.82,4.37,4.37,0,0,0,1.6.28,4.06,4.06,0,0,0,1.71-.36,4.2,4.2,0,0,0,1.42-1.11l1.84,1.71a5.78,5.78,0,0,1-2.19,1.65A7.27,7.27,0,0,1,523.87,386.65Z"
            transform="translate(-92.25 -52.5)" fill="#fff" />
        <path
            d="M533.81,386.43h-2.87V374h2.87Zm5.86-5.09H533.6V378.9h6.07Zm-.21-7.34h2.88v12.43h-2.88Z"
            transform="translate(-92.25 -52.5)" fill="#fff" />
        <path d="M554,386.43,548.68,374h3.1l4.69,11h-1.83l4.76-11h2.86l-5.38,12.43Z"
            transform="translate(-92.25 -52.5)" fill="#fff" />
        <path
            d="M569.08,386.65a5.16,5.16,0,0,1-5.63-5.69v-7h2.87v6.86a3.7,3.7,0,0,0,.73,2.55,3.07,3.07,0,0,0,4.09,0,3.7,3.7,0,0,0,.72-2.55V374h2.85v7a5.17,5.17,0,0,1-5.63,5.69Zm0,3.51a1.28,1.28,0,0,1-.87-.32,1.12,1.12,0,0,1-.35-.87,1.24,1.24,0,0,1,.35-.9,1.21,1.21,0,0,1,.87-.34,1.18,1.18,0,0,1,.87.34,1.21,1.21,0,0,1,.36.9,1.1,1.1,0,0,1-.36.87A1.24,1.24,0,0,1,569.09,390.16Z"
            transform="translate(-92.25 -52.5)" fill="#fff" />
        <path d="M586.3,386.43,580.94,374H584l4.69,11H586.9l4.76-11h2.86l-5.38,12.43Z"
            transform="translate(-92.25 -52.5)" fill="#fff" />
        <path
            d="M593.51,386.43,599.05,374h2.84l5.56,12.43h-3l-4.55-11H601l-4.56,11Zm2.77-2.66.76-2.19h6.39l.79,2.19ZM596.9,373l2.34-2.56h2.45L604,373h-2l-2.45-2.13h1.81L598.92,373Zm3.57,17.17a1.28,1.28,0,0,1-.87-.32,1.1,1.1,0,0,1-.36-.87,1.23,1.23,0,1,1,2.45,0,1.09,1.09,0,0,1-.35.87A1.28,1.28,0,0,1,600.47,390.16Z"
            transform="translate(-92.25 -52.5)" fill="#fff" />
        <path d="M608.74,386.43V374h2.38l7.34,8.95H617.3V374h2.84v12.43h-2.36l-7.35-8.95h1.15v8.95Z"
            transform="translate(-92.25 -52.5)" fill="#fff" />
        <path d="M631,386.43h-2.88V374H631Zm5.86-5.09h-6.07V378.9h6.07Zm-.21-7.34h2.87v12.43h-2.87Z"
            transform="translate(-92.25 -52.5)" fill="#fff" />
        <path
            d="M640.83,386.43,646.37,374h2.84l5.56,12.43h-3l-4.55-11h1.14l-4.56,11Zm2.77-2.66.76-2.19h6.39l.78,2.19ZM647.24,373,644,370.43h3L649.4,373Z"
            transform="translate(-92.25 -52.5)" fill="#fff" />
        <path d="M656.06,386.43V374h2.38l7.34,8.95h-1.16V374h2.84v12.43H665.1l-7.35-8.95h1.15v8.95Z"
            transform="translate(-92.25 -52.5)" fill="#fff" />
        <path
            d="M673.29,386.43h-2.88V374h2.88Zm5.86-5.09h-6.08V378.9h6.08Zm-.22-7.34h2.88v12.43h-2.88Z"
            transform="translate(-92.25 -52.5)" fill="#fff" />
        <path d="M501.16,407.74l-5.36-12.43h3.11l4.68,11h-1.82l4.75-11h2.86L504,407.74Z"
            transform="translate(-92.25 -52.5)" fill="#fff" />
        <path
            d="M508.37,407.74l5.54-12.43h2.84l5.56,12.43h-3l-4.55-11h1.14l-4.56,11Zm2.77-2.66.76-2.19h6.4l.78,2.19Zm3.64-10.78-3.21-2.56h3l2.4,2.56Z"
            transform="translate(-92.25 -52.5)" fill="#fff" />
        <path d="M531.2,407.74V397.65h-4v-2.34h10.83v2.34h-4v10.09Z"
            transform="translate(-92.25 -52.5)" fill="#fff" />
        <path
            d="M539.6,407.74V395.31H545a7,7,0,0,1,2.88.54,4.21,4.21,0,0,1,1.86,1.56,4.31,4.31,0,0,1,.66,2.41,4.26,4.26,0,0,1-.66,2.39,4.15,4.15,0,0,1-1.86,1.53,7,7,0,0,1-2.88.54H541.2l1.28-1.26v4.72Zm2.88-4.4L541.2,402h3.62a3,3,0,0,0,2-.58,2,2,0,0,0,.66-1.59,2,2,0,0,0-.66-1.6,3,3,0,0,0-2-.57H541.2l1.28-1.36Zm5,4.4-3.1-4.51h3.07l3.14,4.51Z"
            transform="translate(-92.25 -52.5)" fill="#fff" />
        <path
            d="M558.18,408a5.15,5.15,0,0,1-5.63-5.68v-7h2.87v6.85a3.71,3.71,0,0,0,.73,2.56,3.07,3.07,0,0,0,4.09,0,3.71,3.71,0,0,0,.72-2.56v-6.85h2.84v7a5.15,5.15,0,0,1-5.62,5.68Z"
            transform="translate(-92.25 -52.5)" fill="#fff" />
        <path
            d="M569.56,407.74v-5.08l.65,1.74-5.47-9.09h3.06l4.19,7h-1.76l4.21-7h2.82l-5.47,9.09.64-1.74v5.08Z"
            transform="translate(-92.25 -52.5)" fill="#fff" />
        <path
            d="M582.07,407.74l5.35-7.37v2.1l-5.11-7.16h3.26l3.54,5-1.37,0,3.48-5h3.12l-5.07,7v-2.06l5.38,7.46h-3.33l-3.65-5.27H589l-3.6,5.27Z"
            transform="translate(-92.25 -52.5)" fill="#fff" />
        <path
            d="M601.52,408a5.15,5.15,0,0,1-5.63-5.68v-7h2.88v6.85a3.71,3.71,0,0,0,.72,2.56,3.07,3.07,0,0,0,4.09,0,3.71,3.71,0,0,0,.72-2.56v-6.85h2.85v7a5.16,5.16,0,0,1-5.63,5.68Z"
            transform="translate(-92.25 -52.5)" fill="#fff" />
        <path
            d="M608.09,407.74l5.54-12.43h2.84L622,407.74h-3l-4.55-11h1.14l-4.57,11Zm2.77-2.66.76-2.19H618l.78,2.19Zm.62-10.78,2.36-2h2.41l2.37,2h-2l-2.39-1.6h1.74l-2.4,1.6Zm5.7-1.71,2-2.15H622l-2.79,2.15Z"
            transform="translate(-92.25 -52.5)" fill="#fff" />
        <path d="M625.28,407.74V397.65h-4v-2.34h10.83v2.34h-4v10.09Z"
            transform="translate(-92.25 -52.5)" fill="#fff" />
        <path
            d="M497.43,429.05V416.62h2.38l7.34,8.95H506v-8.95h2.84v12.43h-2.36l-7.35-8.95h1.15v8.95Z"
            transform="translate(-92.25 -52.5)" fill="#fff" />
        <path
            d="M517.78,429.26a7.67,7.67,0,0,1-2.71-.47,6.35,6.35,0,0,1-2.15-1.34,6.19,6.19,0,0,1-1.42-2,6.88,6.88,0,0,1,0-5.15,6.22,6.22,0,0,1,1.43-2,6.62,6.62,0,0,1,2.17-1.35,8.26,8.26,0,0,1,5.71.08,6,6,0,0,1,2.23,1.6l-1.85,1.71a4.24,4.24,0,0,0-3.21-1.41,4.63,4.63,0,0,0-1.66.29,3.7,3.7,0,0,0-2.12,2.08,4.59,4.59,0,0,0,0,3.21,3.8,3.8,0,0,0,.84,1.27,3.43,3.43,0,0,0,1.28.82,4.45,4.45,0,0,0,1.62.29,5,5,0,0,0,1.66-.28,4.68,4.68,0,0,0,1.57-.93l1.64,2.08a7.45,7.45,0,0,1-2.36,1.17A9.16,9.16,0,0,1,517.78,429.26Zm2.4-1.95v-4.67h2.63v5Z"
            transform="translate(-92.25 -52.5)" fill="#fff" />
        <path
            d="M531,429.26a5.15,5.15,0,0,1-5.63-5.68v-7h2.88v6.85A3.68,3.68,0,0,0,529,426a3.06,3.06,0,0,0,4.08,0,3.68,3.68,0,0,0,.73-2.56v-6.85h2.84v7a5.15,5.15,0,0,1-5.63,5.68Z"
            transform="translate(-92.25 -52.5)" fill="#fff" />
        <path
            d="M545.5,429.26a7.61,7.61,0,0,1-2.73-.48,6.48,6.48,0,0,1-2.16-1.35,6,6,0,0,1-1.42-2,6.68,6.68,0,0,1,0-5.12,6,6,0,0,1,1.42-2,6.62,6.62,0,0,1,2.17-1.35,7.86,7.86,0,0,1,5.41,0,6.53,6.53,0,0,1,2.15,1.35,6.37,6.37,0,0,1,1.43,2,6.29,6.29,0,0,1,.51,2.56,6.44,6.44,0,0,1-.51,2.57,6.16,6.16,0,0,1-1.43,2,6.68,6.68,0,0,1-2.15,1.34A7.39,7.39,0,0,1,545.5,429.26Zm0-2.45a4.06,4.06,0,0,0,1.54-.29,3.61,3.61,0,0,0,1.23-.81,3.84,3.84,0,0,0,.83-1.26,4.45,4.45,0,0,0,.29-1.62,4.35,4.35,0,0,0-.29-1.61,3.76,3.76,0,0,0-.82-1.26,3.54,3.54,0,0,0-1.23-.82,4.15,4.15,0,0,0-1.55-.29,4.06,4.06,0,0,0-1.54.29,3.74,3.74,0,0,0-1.23.82,3.79,3.79,0,0,0-.83,1.26,4.35,4.35,0,0,0-.29,1.61,4.43,4.43,0,0,0,.29,1.61,3.91,3.91,0,0,0,.82,1.27,3.47,3.47,0,0,0,1.24.81A4.06,4.06,0,0,0,545.48,426.81Zm-3.57-11.21,2.36-2h2.42l2.36,2h-2l-2.4-1.59h1.74L544,415.6Zm6.77-1.7-2.79-2.15h2.82l1.95,2.15Z"
            transform="translate(-92.25 -52.5)" fill="#fff" />
        <path
            d="M554.45,429.05V416.62h2.38l7.33,8.95H563v-8.95h2.84v12.43h-2.36l-7.36-8.95h1.16v8.95Z"
            transform="translate(-92.25 -52.5)" fill="#fff" />
        <path
            d="M579.82,429.26a7.63,7.63,0,0,1-2.71-.47,6.35,6.35,0,0,1-2.15-1.34,6.19,6.19,0,0,1-1.42-2,6.88,6.88,0,0,1,0-5.15,6.22,6.22,0,0,1,1.43-2,6.62,6.62,0,0,1,2.17-1.35,7.75,7.75,0,0,1,2.73-.47,7.83,7.83,0,0,1,3,.55,6,6,0,0,1,2.23,1.6l-1.85,1.71a4.24,4.24,0,0,0-3.21-1.41,4.63,4.63,0,0,0-1.66.29,3.7,3.7,0,0,0-2.12,2.08,4.59,4.59,0,0,0,0,3.21,3.8,3.8,0,0,0,.84,1.27,3.43,3.43,0,0,0,1.28.82,4.45,4.45,0,0,0,1.62.29,5,5,0,0,0,1.66-.28,4.68,4.68,0,0,0,1.57-.93l1.63,2.08a7.29,7.29,0,0,1-2.35,1.17A9.16,9.16,0,0,1,579.82,429.26Zm2.4-1.95v-4.67h2.62v5Z"
            transform="translate(-92.25 -52.5)" fill="#fff" />
        <path
            d="M593.54,429.26a7.51,7.51,0,0,1-2.72-.48,6.52,6.52,0,0,1-2.17-1.35,6.19,6.19,0,0,1-1.42-2,6.8,6.8,0,0,1,0-5.12,6.22,6.22,0,0,1,1.43-2,6.62,6.62,0,0,1,2.17-1.35,7.86,7.86,0,0,1,5.41,0,6.49,6.49,0,0,1,2.14,1.35,6.22,6.22,0,0,1,1.43,2,6.13,6.13,0,0,1,.52,2.56,6.28,6.28,0,0,1-.52,2.57,6,6,0,0,1-1.43,2,6.63,6.63,0,0,1-2.14,1.34A7.4,7.4,0,0,1,593.54,429.26Zm0-2.45a4,4,0,0,0,1.53-.29,3.65,3.65,0,0,0,1.24-.81,3.81,3.81,0,0,0,.82-1.26,4.25,4.25,0,0,0,.3-1.62,4.16,4.16,0,0,0-.3-1.61,3.62,3.62,0,0,0-2-2.08,4.23,4.23,0,0,0-3.08,0,3.54,3.54,0,0,0-1.23.82,3.64,3.64,0,0,0-.83,1.26,4.35,4.35,0,0,0-.29,1.61,4.43,4.43,0,0,0,.29,1.61,3.91,3.91,0,0,0,.82,1.27,3.52,3.52,0,0,0,1.23.81A4.15,4.15,0,0,0,593.53,426.81ZM590,415.6l2.36-2h2.41l2.37,2h-2.05L592.66,414h1.74L592,415.6Zm5.7-1.7,2-2.15h2.82l-2.79,2.15Z"
            transform="translate(-92.25 -52.5)" fill="#fff" />
        <path
            d="M608.44,429.26a7.49,7.49,0,0,1-2.67-.47,6.21,6.21,0,0,1-2.14-1.34,6.32,6.32,0,0,1-1.41-2,6.76,6.76,0,0,1,0-5.15,6.19,6.19,0,0,1,1.42-2,6.49,6.49,0,0,1,2.14-1.35,7.51,7.51,0,0,1,2.68-.47,7.38,7.38,0,0,1,2.92.56,5.68,5.68,0,0,1,2.19,1.65l-1.84,1.7a4.4,4.4,0,0,0-1.42-1.09,4,4,0,0,0-1.71-.37,4.38,4.38,0,0,0-1.6.29,3.66,3.66,0,0,0-1.26.82,3.62,3.62,0,0,0-.82,1.26,4.16,4.16,0,0,0-.3,1.61,4.25,4.25,0,0,0,.3,1.62,3.81,3.81,0,0,0,.82,1.26,3.64,3.64,0,0,0,1.26.81,4.38,4.38,0,0,0,1.6.29,4,4,0,0,0,1.71-.36,4.47,4.47,0,0,0,1.42-1.11l1.84,1.7a5.78,5.78,0,0,1-2.19,1.65A7.27,7.27,0,0,1,608.44,429.26Z"
            transform="translate(-92.25 -52.5)" fill="#fff" />
        <path
            d="M671.6,277.2c-.47,1.1-1.47,1.3-2.48,1.44a.73.73,0,0,0-.68.62c-.18.71-.46,1.39-.64,2.09a1,1,0,0,0,.13.68,12.59,12.59,0,0,0,.86.94,1.65,1.65,0,0,1,.07,2.32c-.53.69-1.1,1.36-1.68,2a1.57,1.57,0,0,1-2.28.32,2.31,2.31,0,0,0-3-.16,2.07,2.07,0,0,0-1.41,2.25c.07,1.15-.62,1.78-1.78,1.87l-2.18.2a1.69,1.69,0,0,1-2.09-1.52,2.23,2.23,0,0,0-1.9-2.17,2,2,0,0,0-2.38.54c-1,1-1.75,1-2.86.09-.54-.46-1.09-.91-1.62-1.38a1.61,1.61,0,0,1-.35-2.42,2.18,2.18,0,0,0,.18-2.91,1.85,1.85,0,0,0-1.91-1.17c-1.52.06-2.11-.58-2.2-2.11,0-.67-.12-1.33-.15-2a1.61,1.61,0,0,1,1.47-1.94,2.1,2.1,0,0,0,2-1.82,2.22,2.22,0,0,0-.61-2.71,1.62,1.62,0,0,1-.09-2.44c.51-.63,1-1.25,1.57-1.86a1.62,1.62,0,0,1,2.42-.33,1.75,1.75,0,0,0,2.57,0,4.31,4.31,0,0,1,1.26-.6.57.57,0,0,0,.42-.63,8.18,8.18,0,0,1,.06-1.21,1.66,1.66,0,0,1,1.57-1.58c.82-.1,1.65-.17,2.48-.23a1.65,1.65,0,0,1,2,1.45c.14,1.17.68,1.55,1.77,1.91s2,.48,2.93-.54a1.49,1.49,0,0,1,2.16,0c.68.54,1.35,1.1,2,1.69a1.58,1.58,0,0,1,.27,2.33,2,2,0,0,0-.13,2.61c.55,1.06,1,1.62,2.3,1.52,1-.08,1.59.64,1.7,1.68.07.64.16,1.29.23,1.93Zm-15.18,4.63a5.37,5.37,0,1,0-5.31-5.29A5.32,5.32,0,0,0,656.42,281.83Z"
            transform="translate(-92.25 -52.5)" fill="url(#linear-gradient-18)" />
        <path
            d="M614.56,253.44c-.41-.51-.88-1.09-1.33-1.69a1.74,1.74,0,0,1,.14-2.56q1.23-1.26,2.49-2.49a1.78,1.78,0,0,1,2.66-.13c.43.34.83.71,1.29,1a.89.89,0,0,0,.68,0c1-.4,2-.82,3-1.27a.8.8,0,0,0,.4-.48c.11-.53.15-1.08.22-1.63a1.74,1.74,0,0,1,1.9-1.77c1.19,0,2.39,0,3.59,0a1.75,1.75,0,0,1,1.92,1.76c.07.52.08,1,.19,1.56a1,1,0,0,0,.47.57q1.44.66,2.91,1.23a.78.78,0,0,0,.62-.06c.47-.31.9-.7,1.35-1a1.72,1.72,0,0,1,2.51.15c.86.83,1.71,1.68,2.54,2.54a1.73,1.73,0,0,1,.13,2.55c-.34.46-.72.88-1,1.35a.82.82,0,0,0-.09.63c.36,1,.75,1.92,1.16,2.87a.67.67,0,0,0,.43.32c.56.1,1.12.15,1.69.21a1.78,1.78,0,0,1,1.8,1.95c0,1.18,0,2.36,0,3.53a1.77,1.77,0,0,1-1.8,1.95c-.65.07-1.43,0-1.89.29s-.53,1.11-.78,1.7a4.34,4.34,0,0,1-.41.87,1.14,1.14,0,0,0,.17,1.73,6.62,6.62,0,0,1,.8,1,1.74,1.74,0,0,1-.15,2.51q-1.27,1.31-2.58,2.58a1.74,1.74,0,0,1-2.47.15c-.52-.39-1-.79-1.52-1.21a.59.59,0,0,0-.75-.08c-.9.41-1.82.79-2.75,1.12a.64.64,0,0,0-.51.63c-.07.69-.13,1.38-.25,2.05a1.66,1.66,0,0,1-1.71,1.5q-1.92,0-3.84,0a1.69,1.69,0,0,1-1.77-1.58c-.1-.66-.18-1.32-.23-2a.72.72,0,0,0-.55-.74,26.65,26.65,0,0,1-2.46-1,.64.64,0,0,0-.81.1c-.49.42-1,.82-1.53,1.21a1.72,1.72,0,0,1-2.5-.14c-.88-.85-1.74-1.71-2.59-2.59a1.71,1.71,0,0,1-.14-2.46c.41-.55.87-1.07,1.26-1.63a.87.87,0,0,0,.08-.69c-.31-.83-.65-1.66-1-2.46a.91.91,0,0,0-.6-.44c-.68-.13-1.37-.16-2-.27a1.68,1.68,0,0,1-1.56-1.78c0-1.26,0-2.51,0-3.77a1.68,1.68,0,0,1,1.56-1.78c.64-.11,1.29-.13,1.93-.24a.79.79,0,0,0,.53-.36C613.74,255.67,614.13,254.59,614.56,253.44Zm13.28,13.93a6.59,6.59,0,1,0-6.61-6.56A6.61,6.61,0,0,0,627.84,267.37Z"
            transform="translate(-92.25 -52.5)" fill="url(#linear-gradient-19)" />
        <path
            d="M623.76,298.52a15.37,15.37,0,0,1,.94-1.48.89.89,0,0,0,.13-1c-.37-1.07-.82-1.91-2.18-1.93a1.21,1.21,0,0,1-1.1-1.2,11.18,11.18,0,0,1,0-2.24,1.54,1.54,0,0,1,1.42-1.43,1.11,1.11,0,0,1,.36,0c.64,0,.88-.32,1.13-.89.43-1,.72-1.81-.17-2.75a1.29,1.29,0,0,1,.13-1.73,11.84,11.84,0,0,1,1.46-1.46,1.61,1.61,0,0,1,2.3.14c.46.41.86.54,1.37.15a.68.68,0,0,1,.27-.13c1-.23,1.74-.7,1.8-1.92a1.25,1.25,0,0,1,1.25-1.07,11.34,11.34,0,0,1,2.18,0,1.61,1.61,0,0,1,1.46,1.74c0,.62.26.93.84,1a.69.69,0,0,1,.28.11,1.87,1.87,0,0,0,2.57-.09,1.25,1.25,0,0,1,1.59.13,11.77,11.77,0,0,1,1.47,1.44,1.62,1.62,0,0,1-.09,2.36,1,1,0,0,0-.17,1.38,2.48,2.48,0,0,1,.35.9c.09.6.45.76,1,.81a1.76,1.76,0,0,1,1.78,2c0,.37,0,.73,0,1.1-.05,1.23-.56,1.86-1.78,1.94-.7.05-.88.39-1.17.94a2.11,2.11,0,0,0,.15,2.73,1.34,1.34,0,0,1-.18,1.79,12.84,12.84,0,0,1-1.39,1.37,1.6,1.6,0,0,1-2.3-.12,1.37,1.37,0,0,0-1.65-.22c-1,.35-1.73.76-1.78,2a1.34,1.34,0,0,1-1.41,1.19,14.83,14.83,0,0,1-2,0,1.58,1.58,0,0,1-1.5-1.63,1.5,1.5,0,0,0-1.1-1.52,1.86,1.86,0,0,0-2.35.22,1.43,1.43,0,0,1-2-.1,11.82,11.82,0,0,1-1.39-1.44A4.78,4.78,0,0,1,623.76,298.52ZM634,296.1a4.38,4.38,0,1,0-4.55-4A4.39,4.39,0,0,0,634,296.1Z"
            transform="translate(-92.25 -52.5)" fill="url(#linear-gradient-20)" />
    </g>
    <g id="chungchichungthuc">
        <path
            d="M699.46,414.6,585.28,480.52a43,43,0,0,1-43,0L406.61,402.19V558.86a43,43,0,0,0,21.49,37.23L542.29,662a43,43,0,0,0,43,0L678,608.5A86,86,0,0,0,721,534V377.36A43,43,0,0,1,699.46,414.6Z"
            transform="translate(-92.25 -52.5)" fill="url(#linear-gradient-21)" />
        <circle cx="637.84" cy="535.69" r="52.02"
            transform="translate(-22.26 1092.57) rotate(-87.05)" fill="#fff" />
        <path d="M637.84,486.09a49.6,49.6,0,1,0,49.6,49.6A49.59,49.59,0,0,0,637.84,486.09Z"
            transform="translate(-92.25 -52.5)" fill="url(#linear-gradient-22)" />
        <path
            d="M431.82,523.08a7.49,7.49,0,0,1-2.67-.47,6.12,6.12,0,0,1-2.14-1.34,6.19,6.19,0,0,1-1.42-2,6.88,6.88,0,0,1,0-5.15,6.19,6.19,0,0,1,1.42-2,6.41,6.41,0,0,1,2.14-1.34,7.91,7.91,0,0,1,5.61.09,5.65,5.65,0,0,1,2.19,1.64l-1.85,1.7a4.29,4.29,0,0,0-1.42-1.09,4,4,0,0,0-1.7-.36,4.34,4.34,0,0,0-1.6.28,3.48,3.48,0,0,0-1.26.82,3.64,3.64,0,0,0-.83,1.26,4.35,4.35,0,0,0-.29,1.61,4.41,4.41,0,0,0,.29,1.62,3.64,3.64,0,0,0,.83,1.26,3.48,3.48,0,0,0,1.26.82,4.34,4.34,0,0,0,1.6.28,4,4,0,0,0,1.7-.36,4.36,4.36,0,0,0,1.42-1.11l1.85,1.7a5.78,5.78,0,0,1-2.19,1.65A7.27,7.27,0,0,1,431.82,523.08Z"
            transform="translate(-92.25 -52.5)" fill="#fff" />
        <path
            d="M437,522.87l5.54-12.43h2.84l5.56,12.43h-3l-4.54-11h1.13l-4.56,11Zm2.77-2.66.77-2.19h6.39l.78,2.19Zm.62-10.78,2.36-2h2.42l2.36,2h-2l-2.4-1.6h1.74l-2.39,1.6Zm5.7-1.71,2-2.15h2.83l-2.79,2.15Z"
            transform="translate(-92.25 -52.5)" fill="#fff" />
        <path
            d="M452.24,522.87V510.44h5.38a7,7,0,0,1,2.87.54,4.23,4.23,0,0,1,1.87,1.55,4.79,4.79,0,0,1,0,4.82,4.23,4.23,0,0,1-1.87,1.55,7,7,0,0,1-2.87.54h-3.79l1.28-1.29v4.72Zm2.87-4.4-1.28-1.37h3.63a3,3,0,0,0,2-.57,2.27,2.27,0,0,0,0-3.18,3,3,0,0,0-2-.57h-3.63l1.28-1.36Z"
            transform="translate(-92.25 -52.5)" fill="#fff" />
        <path
            d="M476.21,523.08a7.59,7.59,0,0,1-2.68-.47,6.28,6.28,0,0,1-3.55-3.38,6.88,6.88,0,0,1,0-5.15,6.19,6.19,0,0,1,1.42-2,6.41,6.41,0,0,1,2.14-1.34,7.91,7.91,0,0,1,5.61.09,5.65,5.65,0,0,1,2.19,1.64l-1.85,1.7a4.29,4.29,0,0,0-1.42-1.09,4,4,0,0,0-1.7-.36,4.34,4.34,0,0,0-1.6.28,3.48,3.48,0,0,0-1.26.82,3.64,3.64,0,0,0-.83,1.26,4.35,4.35,0,0,0-.29,1.61,4.41,4.41,0,0,0,.29,1.62,3.64,3.64,0,0,0,.83,1.26,3.48,3.48,0,0,0,1.26.82,4.34,4.34,0,0,0,1.6.28,4,4,0,0,0,1.7-.36,4.36,4.36,0,0,0,1.42-1.11l1.85,1.7a5.78,5.78,0,0,1-2.19,1.65A7.27,7.27,0,0,1,476.21,523.08Z"
            transform="translate(-92.25 -52.5)" fill="#fff" />
        <path
            d="M486.15,522.87h-2.88V510.44h2.88Zm5.86-5.1h-6.07v-2.43H492Zm-.21-7.33h2.87v12.43H491.8Z"
            transform="translate(-92.25 -52.5)" fill="#fff" />
        <path
            d="M503.14,523.08a5.15,5.15,0,0,1-5.63-5.68v-7h2.88v6.85a3.66,3.66,0,0,0,.73,2.56,3.06,3.06,0,0,0,4.08,0,3.66,3.66,0,0,0,.73-2.56v-6.85h2.84v7a5.15,5.15,0,0,1-5.63,5.68Zm-1.6-13.65,2.4-2.56h3l-3.21,2.56Zm5.76,2.86v-1.85h.48a1,1,0,0,0,.78-.31,1.16,1.16,0,0,0,.28-.81,1.63,1.63,0,0,0-.1-.59,1.5,1.5,0,0,0-.25-.47l1.63-.61a2.77,2.77,0,0,1,.42.8,3.05,3.05,0,0,1,.15,1,2.8,2.8,0,0,1-.79,2.09,3,3,0,0,1-2.19.77Z"
            transform="translate(-92.25 -52.5)" fill="#fff" />
        <path d="M511.84,522.87V510.44h2.38l7.34,8.95H520.4v-8.95h2.84v12.43h-2.36l-7.35-9h1.15v9Z"
            transform="translate(-92.25 -52.5)" fill="#fff" />
        <path
            d="M532.19,523.08a7.67,7.67,0,0,1-2.71-.47,6.35,6.35,0,0,1-2.15-1.34,6.19,6.19,0,0,1-1.42-2,6.88,6.88,0,0,1,0-5.15,6.22,6.22,0,0,1,1.43-2,6.44,6.44,0,0,1,2.17-1.34,7.53,7.53,0,0,1,2.73-.47,7.61,7.61,0,0,1,3,.55,5.87,5.87,0,0,1,2.23,1.6l-1.85,1.7a4.58,4.58,0,0,0-1.47-1.06,4.39,4.39,0,0,0-1.74-.34,4.53,4.53,0,0,0-1.65.28,3.6,3.6,0,0,0-1.29.82,3.67,3.67,0,0,0-.84,1.26,4.59,4.59,0,0,0,0,3.21,3.8,3.8,0,0,0,.84,1.27,3.68,3.68,0,0,0,1.28.83,4.45,4.45,0,0,0,1.62.28,5.2,5.2,0,0,0,1.66-.27,4.89,4.89,0,0,0,1.57-.94l1.64,2.08a7.45,7.45,0,0,1-2.36,1.17A8.84,8.84,0,0,1,532.19,523.08Zm2.4-2v-4.67h2.63v5Z"
            transform="translate(-92.25 -52.5)" fill="#fff" />
        <path
            d="M550.85,523.08a7.49,7.49,0,0,1-2.67-.47,6.21,6.21,0,0,1-2.14-1.34,6.32,6.32,0,0,1-1.41-2,6.76,6.76,0,0,1,0-5.15,6.19,6.19,0,0,1,1.42-2,6.31,6.31,0,0,1,2.14-1.34,7.29,7.29,0,0,1,2.68-.47,7.21,7.21,0,0,1,2.92.56,5.65,5.65,0,0,1,2.19,1.64l-1.84,1.7a4.4,4.4,0,0,0-1.42-1.09,4,4,0,0,0-1.71-.36,4.37,4.37,0,0,0-1.6.28,3.66,3.66,0,0,0-1.26.82,3.62,3.62,0,0,0-.82,1.26,4.16,4.16,0,0,0-.3,1.61,4.21,4.21,0,0,0,.3,1.62,3.62,3.62,0,0,0,.82,1.26,3.66,3.66,0,0,0,1.26.82,4.37,4.37,0,0,0,1.6.28,4,4,0,0,0,1.71-.36,4.47,4.47,0,0,0,1.42-1.11l1.84,1.7a5.78,5.78,0,0,1-2.19,1.65A7.27,7.27,0,0,1,550.85,523.08Z"
            transform="translate(-92.25 -52.5)" fill="#fff" />
        <path
            d="M560.8,522.87h-2.88V510.44h2.88Zm5.86-5.1h-6.08v-2.43h6.08Zm-.22-7.33h2.88v12.43h-2.88Z"
            transform="translate(-92.25 -52.5)" fill="#fff" />
        <path
            d="M574.24,509.6l-.87-.92a1.94,1.94,0,0,0,.71-.51,1,1,0,0,0,.19-.57.65.65,0,0,0-.23-.54.84.84,0,0,0-.6-.21,1.92,1.92,0,0,0-1.05.34l-.59-1.12a3,3,0,0,1,.92-.45,3.6,3.6,0,0,1,1-.15,2.24,2.24,0,0,1,1.54.52,1.77,1.77,0,0,1,.59,1.38,2.15,2.15,0,0,1-.41,1.31A3,3,0,0,1,574.24,509.6Zm-2,13.27V510.44h2.87v12.43Z"
            transform="translate(-92.25 -52.5)" fill="#fff" />
        <path
            d="M431.82,544.39a7.49,7.49,0,0,1-2.67-.47,6.27,6.27,0,0,1-2.14-1.34,6.19,6.19,0,0,1-1.42-2,6.88,6.88,0,0,1,0-5.15,6.24,6.24,0,0,1,1.42-2,6.57,6.57,0,0,1,2.14-1.34,7.51,7.51,0,0,1,2.68-.47,7.43,7.43,0,0,1,2.93.56,5.68,5.68,0,0,1,2.19,1.65l-1.85,1.7a4.17,4.17,0,0,0-1.42-1.09A4,4,0,0,0,432,534a4.34,4.34,0,0,0-1.6.29,3.6,3.6,0,0,0-1.26.81,3.78,3.78,0,0,0-.83,1.27A4.35,4.35,0,0,0,428,538a4.45,4.45,0,0,0,.29,1.62,3.84,3.84,0,0,0,.83,1.26,3.46,3.46,0,0,0,1.26.81,4.34,4.34,0,0,0,1.6.29,3.88,3.88,0,0,0,1.7-.37,4.11,4.11,0,0,0,1.42-1.11l1.85,1.71a5.78,5.78,0,0,1-2.19,1.65A7.27,7.27,0,0,1,431.82,544.39Z"
            transform="translate(-92.25 -52.5)" fill="#fff" />
        <path
            d="M441.76,544.18h-2.88V531.75h2.88Zm5.86-5.1h-6.07v-2.43h6.07Zm-.21-7.33h2.87v12.43h-2.87Z"
            transform="translate(-92.25 -52.5)" fill="#fff" />
        <path
            d="M458.75,544.39a5.15,5.15,0,0,1-5.63-5.68v-7H456v6.85a3.68,3.68,0,0,0,.73,2.56,3.06,3.06,0,0,0,4.08,0,3.68,3.68,0,0,0,.73-2.56v-6.85h2.84v7a5.69,5.69,0,0,1-1.49,4.21A5.63,5.63,0,0,1,458.75,544.39Zm-1.6-13.66,2.4-2.55h3l-3.21,2.55Zm5.76,2.86v-1.84h.48a1,1,0,0,0,.78-.31,1.16,1.16,0,0,0,.28-.81,1.72,1.72,0,0,0-.1-.6,1.62,1.62,0,0,0-.25-.47l1.63-.6a2.77,2.77,0,0,1,.42.8,3,3,0,0,1,.15,1,2.81,2.81,0,0,1-.79,2.1,3,3,0,0,1-2.19.76Z"
            transform="translate(-92.25 -52.5)" fill="#fff" />
        <path d="M467.45,544.18V531.75h2.38l7.34,9H476v-9h2.84v12.43h-2.36l-7.35-8.95h1.15v8.95Z"
            transform="translate(-92.25 -52.5)" fill="#fff" />
        <path
            d="M487.8,544.39a7.67,7.67,0,0,1-2.71-.47,6.37,6.37,0,0,1-2.14-1.34,6.08,6.08,0,0,1-1.43-2,6.88,6.88,0,0,1,0-5.15,6.26,6.26,0,0,1,1.43-2,6.6,6.6,0,0,1,2.17-1.34,8.26,8.26,0,0,1,5.71.08,6,6,0,0,1,2.23,1.6l-1.85,1.71A4.24,4.24,0,0,0,488,534a4.53,4.53,0,0,0-1.65.29,3.72,3.72,0,0,0-1.29.81,3.8,3.8,0,0,0-.84,1.27,4.59,4.59,0,0,0,0,3.21,3.91,3.91,0,0,0,.84,1.27,3.52,3.52,0,0,0,1.28.82,4.45,4.45,0,0,0,1.62.29,5,5,0,0,0,1.66-.28,4.68,4.68,0,0,0,1.57-.93l1.64,2.08a7.45,7.45,0,0,1-2.36,1.17A9.16,9.16,0,0,1,487.8,544.39Zm2.4-1.95v-4.67h2.63v5Z"
            transform="translate(-92.25 -52.5)" fill="#fff" />
        <path d="M503.09,544.18V534.09h-4v-2.34h10.83v2.34h-4v10.09Z"
            transform="translate(-92.25 -52.5)" fill="#fff" />
        <path
            d="M514.36,544.18h-2.87V531.75h2.87Zm5.86-5.1h-6.07v-2.43h6.07Zm-.21-7.33h2.88v12.43H520Z"
            transform="translate(-92.25 -52.5)" fill="#fff" />
        <path
            d="M531.36,544.39a5.63,5.63,0,0,1-4.14-1.47,5.69,5.69,0,0,1-1.49-4.21v-7h2.88v6.85a3.73,3.73,0,0,0,.72,2.56,3.07,3.07,0,0,0,4.09,0,3.73,3.73,0,0,0,.72-2.56v-6.85H537v7a5.16,5.16,0,0,1-5.63,5.68Zm0,3.51a1.23,1.23,0,0,1-.87-.32,1.12,1.12,0,0,1-.35-.87,1.2,1.2,0,0,1,1.22-1.24,1.21,1.21,0,0,1,1.23,1.24,1.1,1.1,0,0,1-.36.87A1.2,1.2,0,0,1,531.37,547.9Zm4.14-14.31v-1.84H536a1,1,0,0,0,.78-.31,1.16,1.16,0,0,0,.29-.81,2,2,0,0,0-.1-.6,1.63,1.63,0,0,0-.26-.47l1.63-.6a2.77,2.77,0,0,1,.42.8,3,3,0,0,1,.15,1,2.77,2.77,0,0,1-.79,2.1,3,3,0,0,1-2.19.76Z"
            transform="translate(-92.25 -52.5)" fill="#fff" />
        <path
            d="M546,544.39a7.59,7.59,0,0,1-2.68-.47,6.47,6.47,0,0,1-2.14-1.34,6.32,6.32,0,0,1-1.41-2,6.88,6.88,0,0,1,0-5.15,6.24,6.24,0,0,1,1.42-2,6.57,6.57,0,0,1,2.14-1.34,7.51,7.51,0,0,1,2.68-.47,7.38,7.38,0,0,1,2.92.56,5.71,5.71,0,0,1,2.2,1.65l-1.85,1.7a4.26,4.26,0,0,0-1.42-1.09,4,4,0,0,0-1.7-.37,4.34,4.34,0,0,0-1.6.29,3.6,3.6,0,0,0-1.26.81,3.78,3.78,0,0,0-.83,1.27,4.35,4.35,0,0,0-.29,1.61,4.45,4.45,0,0,0,.29,1.62,3.84,3.84,0,0,0,.83,1.26,3.46,3.46,0,0,0,1.26.81,4.34,4.34,0,0,0,1.6.29,3.88,3.88,0,0,0,1.7-.37,4.2,4.2,0,0,0,1.42-1.11l1.85,1.71a5.81,5.81,0,0,1-2.2,1.65A7.26,7.26,0,0,1,546,544.39Z"
            transform="translate(-92.25 -52.5)" fill="#fff" />
        <path
            d="M430,565.7a10.45,10.45,0,0,1-2.86-.4,6.93,6.93,0,0,1-2.2-1l1-2.17a6.94,6.94,0,0,0,1.89.93,6.79,6.79,0,0,0,2.21.37,4.7,4.7,0,0,0,1.38-.17,1.61,1.61,0,0,0,.77-.47,1.08,1.08,0,0,0,.25-.69.92.92,0,0,0-.39-.79,3.08,3.08,0,0,0-1-.48q-.65-.19-1.41-.36A14.85,14.85,0,0,1,428,560a6.44,6.44,0,0,1-1.41-.63,3.3,3.3,0,0,1-1-1,3,3,0,0,1-.4-1.64,3.4,3.4,0,0,1,.58-1.94,3.89,3.89,0,0,1,1.74-1.41,7.27,7.27,0,0,1,2.92-.52,9.48,9.48,0,0,1,2.31.28,6.42,6.42,0,0,1,2,.82l-.88,2.19a7.22,7.22,0,0,0-1.74-.74,6.41,6.41,0,0,0-1.71-.24,4.07,4.07,0,0,0-1.37.19,1.59,1.59,0,0,0-.76.51,1.21,1.21,0,0,0-.23.72.91.91,0,0,0,.39.77,3,3,0,0,0,1,.47q.65.18,1.41.36c.52.12,1,.25,1.55.41a6,6,0,0,1,1.41.62,3.2,3.2,0,0,1,1,1,3,3,0,0,1,.4,1.61,3.37,3.37,0,0,1-.59,1.92,4,4,0,0,1-1.75,1.4A7,7,0,0,1,430,565.7Z"
            transform="translate(-92.25 -52.5)" fill="#fff" />
        <path
            d="M435.56,565.48l5.54-12.43h2.84l5.56,12.43h-3l-4.54-11h1.13l-4.56,11Zm2.77-2.66.77-2.18h6.39l.78,2.18Zm4.73-10.6-.87-.92a1.94,1.94,0,0,0,.71-.52,1,1,0,0,0,.19-.57.68.68,0,0,0-.23-.54.89.89,0,0,0-.6-.2,1.91,1.91,0,0,0-1.05.33l-.59-1.11a2.84,2.84,0,0,1,.92-.46,3.6,3.6,0,0,1,1-.15,2.25,2.25,0,0,1,1.54.53,1.75,1.75,0,0,1,.59,1.37,2.18,2.18,0,0,1-.41,1.32A3.14,3.14,0,0,1,443.06,552.22Z"
            transform="translate(-92.25 -52.5)" fill="#fff" />
        <path d="M450.8,565.48V553.05h2.38l7.33,9h-1.15v-9h2.84v12.43h-2.36l-7.36-9h1.16v9Z"
            transform="translate(-92.25 -52.5)" fill="#fff" />
        <path
            d="M470.17,565.48V553.05h5.38a6.88,6.88,0,0,1,2.88.55,4.19,4.19,0,0,1,1.86,1.55,4.71,4.71,0,0,1,0,4.81,4.19,4.19,0,0,1-1.86,1.55,6.88,6.88,0,0,1-2.88.55h-3.78l1.28-1.3v4.72Zm2.88-4.4-1.28-1.37h3.62a3,3,0,0,0,2-.57,2,2,0,0,0,.66-1.58,2,2,0,0,0-.66-1.59,3,3,0,0,0-2-.57h-3.62l1.28-1.37Z"
            transform="translate(-92.25 -52.5)" fill="#fff" />
        <path
            d="M485.87,565.48H483V553.05h2.88Zm5.86-5.09h-6.08V558h6.08Zm-.22-7.34h2.88v12.43h-2.88Z"
            transform="translate(-92.25 -52.5)" fill="#fff" />
        <path
            d="M495.7,565.48l5.54-12.43h2.84l5.56,12.43h-3l-4.54-11h1.13l-4.56,11Zm2.77-2.66.77-2.18h6.39l.78,2.18Zm.62-10.78,2.37-2h2.41l2.36,2h-2l-2.4-1.6h1.74l-2.39,1.6Zm6.73-1.37-.67-.65a1.57,1.57,0,0,0,.51-.38.61.61,0,0,0,.15-.37.47.47,0,0,0-.17-.37.63.63,0,0,0-.44-.14,1.69,1.69,0,0,0-.78.21l-.46-.85a2.4,2.4,0,0,1,.69-.3,3.46,3.46,0,0,1,.78-.09,1.72,1.72,0,0,1,1.19.38,1.26,1.26,0,0,1,.45,1,1.38,1.38,0,0,1-.36.94A2.07,2.07,0,0,1,505.82,550.67Z"
            transform="translate(-92.25 -52.5)" fill="#fff" />
        <path
            d="M510.94,565.48V553.05h2.38l5.29,8.78h-1.26l5.2-8.78h2.36l0,12.43h-2.7l0-8.29h.5l-4.16,7h-1.29l-4.25-7h.61v8.29Z"
            transform="translate(-92.25 -52.5)" fill="#fff" />
        <path
            d="M535.14,567.74A12.74,12.74,0,0,1,533.5,564a18.37,18.37,0,0,1,0-9.16,12.17,12.17,0,0,1,1.64-3.72h2.64a16.78,16.78,0,0,0-1.63,4,18.13,18.13,0,0,0,0,8.54,16.94,16.94,0,0,0,1.63,4Z"
            transform="translate(-92.25 -52.5)" fill="#fff" />
        <path
            d="M538,565.48l5.54-12.43h2.84l5.56,12.43h-3l-4.55-11h1.14l-4.56,11Zm2.77-2.66.76-2.18h6.4l.78,2.18Z"
            transform="translate(-92.25 -52.5)" fill="#fff" />
        <path
            d="M553.21,565.48V553.05h5.38a6.85,6.85,0,0,1,2.88.55,4.08,4.08,0,0,1,1.86,1.55,4.71,4.71,0,0,1,0,4.81,4.08,4.08,0,0,1-1.86,1.55,6.85,6.85,0,0,1-2.88.55h-3.78l1.28-1.3v4.72Zm2.88-4.4-1.28-1.37h3.62a3,3,0,0,0,2-.57,2,2,0,0,0,.66-1.58,2,2,0,0,0-.66-1.59,3,3,0,0,0-2-.57h-3.62l1.28-1.37Z"
            transform="translate(-92.25 -52.5)" fill="#fff" />
        <path d="M566,565.48V553.05h2.88v12.43Z" transform="translate(-92.25 -52.5)" fill="#fff" />
        <path
            d="M573.38,567.74h-2.64a15.9,15.9,0,0,0,1.66-4,18.13,18.13,0,0,0,0-8.54,15.75,15.75,0,0,0-1.66-4h2.64a11.53,11.53,0,0,1,1.67,3.72,18.69,18.69,0,0,1,0,9.16A12,12,0,0,1,573.38,567.74Z"
            transform="translate(-92.25 -52.5)" fill="#fff" />
        <path
            d="M616.4,547.36V517.83a.9.9,0,0,0,.08-.21,4.92,4.92,0,0,1,2.56-3.57,11.91,11.91,0,0,1,1.79-.65h38.39a.9.9,0,0,0,.21.08,5,5,0,0,1,4.21,5q0,14.13,0,28.28a4.87,4.87,0,0,1-2.79,4.45,3.32,3.32,0,0,1-.35.13c0-1.66,0-3.26,0-4.86a11.19,11.19,0,0,0-.12-1.92,8.58,8.58,0,0,0-17,.49c-.13,2-.06,4.08-.08,6.13v.55a3.15,3.15,0,0,1-.37,0c-7.1,0-14.21,0-21.31,0a5.06,5.06,0,0,1-4.94-3.52C616.56,547.94,616.49,547.65,616.4,547.36ZM640,531.3H625.54c-.62,0-1.23,0-1.85,0a1.38,1.38,0,0,0-1.35,1.26,1.4,1.4,0,0,0,1.08,1.46,3.44,3.44,0,0,0,.64,0H656a3.49,3.49,0,0,0,.46,0,1.38,1.38,0,0,0,.23-2.71,2.76,2.76,0,0,0-.64,0Zm0-5.93H623.74a1.38,1.38,0,0,0-1.41,1.35,1.42,1.42,0,0,0,1.36,1.41H656a2.62,2.62,0,0,0,.68-.07,1.36,1.36,0,0,0,0-2.63,2.92,2.92,0,0,0-.73-.06Zm0-3.18h10.24a1.38,1.38,0,0,0,1.51-1.38,1.4,1.4,0,0,0-1.51-1.39H630a2.76,2.76,0,0,0-.64.05,1.36,1.36,0,0,0-1.06,1.71,1.41,1.41,0,0,0,1.52,1Zm-8.78,22.14h1.33c2,0,4.09,0,6.14,0a1.35,1.35,0,0,0,1.24-2,1.45,1.45,0,0,0-1.42-.76H623.88a1.43,1.43,0,0,0-1.44.87,1.37,1.37,0,0,0,1.34,1.9Z"
            transform="translate(-92.25 -52.5)" fill="url(#linear-gradient-23)" />
        <path d="M651.9,540.08a5.84,5.84,0,1,1-5.85,5.84A5.87,5.87,0,0,1,651.9,540.08Z"
            transform="translate(-92.25 -52.5)" fill="url(#linear-gradient-24)" />
        <path
            d="M646.05,552.31c3.91,3,7.76,3,11.65,0,0,.13,0,.26,0,.39,0,2.09,0,4.18,0,6.27a1.51,1.51,0,0,1-.74,1.48,1.46,1.46,0,0,1-1.64-.21L651.89,558c-1.16.78-2.31,1.53-3.46,2.31a1.43,1.43,0,0,1-2.38-1.26Z"
            transform="translate(-92.25 -52.5)" fill="url(#linear-gradient-25)" />
    </g>
    <g id="tuvangiaiphap">
        <polygon points="497.42 606.98 493.03 609.51 493.03 609.51 497.42 606.98"
            fill="url(#linear-gradient-26)" />
        <path
            d="M542.29,662,428.1,596.09a43,43,0,0,1-21.49-37.23V402.19L270.93,480.52a43,43,0,0,0-21.5,37.24V649.6a43,43,0,0,0,21.5,37.24l92.68,53.51a86,86,0,0,0,86,0L585.28,662A43,43,0,0,1,542.29,662Z"
            transform="translate(-92.25 -52.5)" fill="url(#linear-gradient-27)" />
        <circle cx="406.61" cy="669.19" r="52.02"
            transform="translate(-456.33 755.21) rotate(-68.91)" fill="#fff" />
        <path d="M406.61,619.59a49.6,49.6,0,1,0,49.6,49.6A49.59,49.59,0,0,0,406.61,619.59Z"
            transform="translate(-92.25 -52.5)" fill="url(#linear-gradient-28)" />
        <path d="M281.07,519.14V509.05h-4v-2.34h10.83v2.34h-4v10.09Z"
            transform="translate(-92.25 -52.5)" fill="#fff" />
        <path
            d="M294.77,519.35a5.15,5.15,0,0,1-5.63-5.68v-7H292v6.85a3.66,3.66,0,0,0,.73,2.56,3.06,3.06,0,0,0,4.08,0,3.66,3.66,0,0,0,.73-2.56v-6.85h2.84v7a5.15,5.15,0,0,1-5.63,5.68Zm4.16-10.79v-1.85h.48a1,1,0,0,0,.78-.31,1.16,1.16,0,0,0,.28-.81,1.63,1.63,0,0,0-.1-.59,1.5,1.5,0,0,0-.25-.47l1.63-.61a2.91,2.91,0,0,1,.42.8,3.05,3.05,0,0,1,.15,1,2.77,2.77,0,0,1-.79,2.09,3,3,0,0,1-2.19.77Z"
            transform="translate(-92.25 -52.5)" fill="#fff" />
        <path d="M312.23,519.14l-5.37-12.43H310l4.69,11h-1.83l4.76-11h2.86l-5.38,12.43Z"
            transform="translate(-92.25 -52.5)" fill="#fff" />
        <path
            d="M319.43,519.14,325,506.71h2.85l5.55,12.43h-3l-4.54-11H327l-4.57,11Zm2.77-2.66.77-2.19h6.39l.78,2.19Zm.63-10.78,2.36-2h2.41l2.36,2h-2l-2.39-1.6h1.74l-2.4,1.6Zm5.7-1.71,2-2.14h2.82L330.53,504Z"
            transform="translate(-92.25 -52.5)" fill="#fff" />
        <path
            d="M334.67,519.14V506.71h2.38l7.33,8.95h-1.15v-8.95h2.84v12.43h-2.36l-7.35-8.95h1.15v8.95Z"
            transform="translate(-92.25 -52.5)" fill="#fff" />
        <path
            d="M284.49,540.66a7.67,7.67,0,0,1-2.71-.47,6.31,6.31,0,0,1-3.57-3.38,6.88,6.88,0,0,1,0-5.15,6.22,6.22,0,0,1,1.43-2,6.44,6.44,0,0,1,2.17-1.34,7.53,7.53,0,0,1,2.73-.47,7.61,7.61,0,0,1,3,.55,6,6,0,0,1,2.23,1.59l-1.85,1.71a4.18,4.18,0,0,0-3.21-1.4,4.53,4.53,0,0,0-1.65.28,3.6,3.6,0,0,0-1.29.82,3.67,3.67,0,0,0-.84,1.26,4.59,4.59,0,0,0,0,3.21,3.8,3.8,0,0,0,.84,1.27,3.68,3.68,0,0,0,1.28.83,4.45,4.45,0,0,0,1.62.28,5,5,0,0,0,1.66-.28,4.68,4.68,0,0,0,1.57-.93l1.64,2.08a7.45,7.45,0,0,1-2.36,1.17A9.16,9.16,0,0,1,284.49,540.66Zm2.4-1.95V534h2.63v5Z"
            transform="translate(-92.25 -52.5)" fill="#fff" />
        <path d="M292.18,540.45V528h2.88v12.43Z" transform="translate(-92.25 -52.5)" fill="#fff" />
        <path
            d="M296.37,540.45,301.91,528h2.84l5.56,12.43h-3l-4.55-11h1.14l-4.56,11Zm2.77-2.67.76-2.18h6.4l.78,2.18Zm4.72-10.6-.87-.92a2,2,0,0,0,.71-.51,1,1,0,0,0,.2-.57.68.68,0,0,0-.23-.54.89.89,0,0,0-.61-.21,1.84,1.84,0,0,0-1,.34l-.59-1.12a2.92,2.92,0,0,1,.92-.45,3.5,3.5,0,0,1,1-.15,2.22,2.22,0,0,1,1.53.52,1.75,1.75,0,0,1,.6,1.38,2.15,2.15,0,0,1-.41,1.31A2.93,2.93,0,0,1,303.86,527.18Z"
            transform="translate(-92.25 -52.5)" fill="#fff" />
        <path d="M311.6,540.45V528h2.88v12.43Z" transform="translate(-92.25 -52.5)" fill="#fff" />
        <path
            d="M322.45,540.45V528h5.38a7,7,0,0,1,2.88.54,4.2,4.2,0,0,1,1.86,1.55,4.73,4.73,0,0,1,0,4.82,4.2,4.2,0,0,1-1.86,1.55,7,7,0,0,1-2.88.54h-3.78l1.28-1.3v4.73Zm2.88-4.41-1.28-1.36h3.62a3,3,0,0,0,2-.57,2.25,2.25,0,0,0,0-3.18,3,3,0,0,0-2-.57h-3.62l1.28-1.37Z"
            transform="translate(-92.25 -52.5)" fill="#fff" />
        <path
            d="M338.15,540.45h-2.88V528h2.88Zm5.86-5.1h-6.07v-2.43H344ZM343.8,528h2.87v12.43H343.8Z"
            transform="translate(-92.25 -52.5)" fill="#fff" />
        <path
            d="M348,540.45,353.53,528h2.84l5.55,12.43h-3l-4.55-11h1.14l-4.57,11Zm2.77-2.67.76-2.18h6.39l.78,2.18ZM353.33,527l2.4-2.56h3L355.5,527Z"
            transform="translate(-92.25 -52.5)" fill="#fff" />
        <path
            d="M363.22,540.45V528h5.38a7,7,0,0,1,2.88.54,4.26,4.26,0,0,1,1.86,1.55,4.73,4.73,0,0,1,0,4.82,4.26,4.26,0,0,1-1.86,1.55,7,7,0,0,1-2.88.54h-3.78l1.28-1.3v4.73ZM366.1,536l-1.28-1.36h3.62a3,3,0,0,0,2-.57,2.25,2.25,0,0,0,0-3.18,3,3,0,0,0-2-.57h-3.62L366.1,529Z"
            transform="translate(-92.25 -52.5)" fill="#fff" />
        <path d="M281.35,559.45h6.76v2.3h-9.62V549.33h9.39v2.3h-6.53Zm-.21-5.12h6v2.24h-6Z"
            transform="translate(-92.25 -52.5)" fill="#fff" />
        <path
            d="M290.4,561.75V549.33h5.38a7,7,0,0,1,2.88.54,4.23,4.23,0,0,1,1.87,1.55,4.42,4.42,0,0,1,.65,2.42,4.31,4.31,0,0,1-.65,2.38,4.21,4.21,0,0,1-1.87,1.54,7.15,7.15,0,0,1-2.88.53H292l1.28-1.26v4.72Zm2.88-4.4L292,556h3.62a2.92,2.92,0,0,0,2-.58,2.25,2.25,0,0,0,0-3.18,3,3,0,0,0-2-.57H292l1.28-1.37Zm5,4.4-3.11-4.51h3.07l3.14,4.51Z"
            transform="translate(-92.25 -52.5)" fill="#fff" />
        <path
            d="M303.45,561.75V549.33h5.38a7,7,0,0,1,2.88.54,4.23,4.23,0,0,1,1.87,1.55,4.42,4.42,0,0,1,.65,2.42,4.34,4.34,0,0,1-.65,2.39,4.25,4.25,0,0,1-1.87,1.56,7,7,0,0,1-2.88.54h-3.78l1.28-1.3v4.72Zm2.88-4.4L305.05,556h3.63a3,3,0,0,0,2-.56,2.25,2.25,0,0,0,0-3.18,2.94,2.94,0,0,0-2-.57h-3.63l1.28-1.37Z"
            transform="translate(-92.25 -52.5)" fill="#fff" />
        <path
            d="M385.15,693.79c-.49-.16-1-.28-1.46-.48a5.94,5.94,0,0,1,.67-11.18L385,682v-.65c0-3,0-6,0-9a7,7,0,0,1,7.33-7.3h1.54l.21,2H392a5,5,0,0,0-5,5c0,3.18,0,6.37,0,9.55v.29a17,17,0,0,1,2.23,1,6,6,0,0,1-1.89,10.79l-.46.14Z"
            transform="translate(-92.25 -52.5)" fill="url(#linear-gradient-29)" />
        <path
            d="M428.83,693.79c-.48-.16-1-.28-1.45-.48a5.94,5.94,0,0,1,.66-11.18l.67-.18v-9.7a5,5,0,0,0-5.25-5.26h-1.85l.19-1.89c5.1-.85,8.72,2.39,8.87,6.59.11,3.16,0,6.33,0,9.49v.66a17.81,17.81,0,0,1,2.24,1,6,6,0,0,1-1.9,10.79l-.46.14Z"
            transform="translate(-92.25 -52.5)" fill="url(#linear-gradient-30)" />
        <path
            d="M407,693.79c-.48-.16-1-.28-1.45-.48a5.94,5.94,0,0,1,.66-11.18l.66-.18v-3h2v2.9a18.26,18.26,0,0,1,2.26,1,6,6,0,0,1-1.9,10.79l-.46.14Z"
            transform="translate(-92.25 -52.5)" fill="url(#linear-gradient-31)" />
        <path
            d="M406.89,648.13H399a8.93,8.93,0,0,1-.34-17.85c5.83-.06,11.66,0,17.49,0a8.91,8.91,0,0,1,1,17.71,54.3,54.3,0,0,1-5.57.14h-2.72v3h-2Zm1.37-7.9.43-.15a3,3,0,0,0,2.13-3.33,2.91,2.91,0,0,0-3-2.51H406c-.78,0-1.15.37-1.15,1.13q0,3.81,0,7.62c0,.72.4,1.17,1,1.17s1-.45,1-1.18v-1.43c.8.82,1.44,1.49,2.1,2.14s1.13.61,1.57.17.39-1-.17-1.57S409,641,408.26,640.23Zm-9.31-4h2.84a1,1,0,0,0,1.1-1,1,1,0,0,0-1.06-1c-1.28,0-2.56,0-3.84,0a1,1,0,0,0-1,1c0,2.65,0,5.29,0,7.94a.93.93,0,0,0,1,1c1.32,0,2.65,0,4,0a1,1,0,0,0,1-1,1,1,0,0,0-1.11-1H399v-2h2.65c.79,0,1.24-.35,1.26-1s-.45-1-1.27-1H399Zm15.86,4H416a3,3,0,0,0,0-6c-.64,0-1.28,0-1.92,0-.85,0-1.2.36-1.2,1.21q0,3.75,0,7.5c0,.76.4,1.23,1,1.21s.95-.47,1-1.21Z"
            transform="translate(-92.25 -52.5)" fill="url(#linear-gradient-32)" />
        <path
            d="M419.77,665c0,.22,0,.45,0,.68a2.17,2.17,0,0,1-2.18,2.16c-.52,0-.81.14-.91.65a1.54,1.54,0,0,1-.19.46c-.18.27-.12.45.1.69a2.22,2.22,0,0,1-.06,3.52c-.25.25-.49.5-.76.73a2.14,2.14,0,0,1-3.11,0,.69.69,0,0,0-1-.17,1.53,1.53,0,0,1-.51.21.51.51,0,0,0-.42.57,2.23,2.23,0,0,1-2.54,2.44h-.62a2.26,2.26,0,0,1-2.6-2.45.93.93,0,0,0-.36-.53c-.16-.12-.39-.14-.57-.25a.66.66,0,0,0-1,.15,2.16,2.16,0,0,1-3.2,0,11.91,11.91,0,0,1-1-1,2.12,2.12,0,0,1,.08-3,.82.82,0,0,0,.21-1.05,1.21,1.21,0,0,0-1.31-.95,2.11,2.11,0,0,1-1.92-2.08c0-.48,0-1,0-1.43a2.2,2.2,0,0,1,2.21-2.2c.32,0,.7.11.77-.38s.76-.94.05-1.58a2.09,2.09,0,0,1-.06-3,13,13,0,0,1,1.05-1,2.13,2.13,0,0,1,3.06,0,.85.85,0,0,0,1.06.2A1.2,1.2,0,0,0,405,655a2.09,2.09,0,0,1,2-1.9c.47,0,.95,0,1.42,0a2.19,2.19,0,0,1,2.26,2.22c0,.32-.09.69.39.77s.95.74,1.57,0a2.09,2.09,0,0,1,3-.09,12.69,12.69,0,0,1,1.1,1.1,2.14,2.14,0,0,1-.07,3.06.79.79,0,0,0-.21,1,1.23,1.23,0,0,0,1.35,1,2.09,2.09,0,0,1,1.89,2c0,.27,0,.54,0,.81Zm-7.94-.06a4,4,0,1,0-3.95,4A4,4,0,0,0,411.83,665Z"
            transform="translate(-92.25 -52.5)" fill="url(#linear-gradient-33)" />
        <path
            d="M406.9,636.23c.64,0,1.37-.27,1.76.42a1.32,1.32,0,0,1,0,1.13c-.39.69-1.12.37-1.76.41Z"
            transform="translate(-92.25 -52.5)" fill="url(#linear-gradient-34)" />
        <path
            d="M414.84,636.23c.65,0,1.38-.27,1.77.42a1.32,1.32,0,0,1,0,1.13c-.39.69-1.12.37-1.76.41Z"
            transform="translate(-92.25 -52.5)" fill="url(#linear-gradient-35)" />
    </g>
    <g id="dichvukhac">
        <polygon points="0 379.57 0 374.51 0 374.51 0 379.57" fill="url(#linear-gradient-36)" />
        <polygon points="0 379.57 0 374.51 0 374.51 0 379.57" fill="url(#linear-gradient-36)" />
        <path
            d="M249.43,649.6V517.76a43,43,0,0,1,21.5-37.24l135.68-78.33L270.93,323.85a43,43,0,0,0-43,0L113.75,389.78A43,43,0,0,0,92.25,427V534a86,86,0,0,0,43,74.47l140.06,80.87-4.38-2.53A43,43,0,0,1,249.43,649.6Z"
            transform="translate(-92.25 -52.5)" fill="url(#linear-gradient-38)" />
        <path d="M149.37,490.64a52,52,0,1,0,71.06,19A52,52,0,0,0,149.37,490.64Z"
            transform="translate(-92.25 -52.5)" fill="#fff" />
        <circle cx="175.38" cy="535.69" r="49.6" transform="translate(-478.9 440.21) rotate(-67.5)"
            fill="url(#linear-gradient-39)" />
        <path
            d="M174.54,416.29a7.28,7.28,0,0,1-2.67-.47,6.21,6.21,0,0,1-2.14-1.34,6.28,6.28,0,0,1-1.92-4.61,6.39,6.39,0,0,1,.51-2.58,6.19,6.19,0,0,1,1.42-2,6.31,6.31,0,0,1,2.14-1.34,7.47,7.47,0,0,1,2.68-.47,7.38,7.38,0,0,1,2.92.56,5.65,5.65,0,0,1,2.19,1.64l-1.84,1.71a4.43,4.43,0,0,0-1.42-1.1,4.06,4.06,0,0,0-1.71-.36,4.37,4.37,0,0,0-1.6.28,3.63,3.63,0,0,0-2.08,2.08,4.25,4.25,0,0,0-.3,1.62,4.16,4.16,0,0,0,.3,1.61,3.62,3.62,0,0,0,.82,1.26,3.66,3.66,0,0,0,1.26.82,4.37,4.37,0,0,0,1.6.28,4.06,4.06,0,0,0,1.71-.36,4.2,4.2,0,0,0,1.42-1.11l1.84,1.71a5.78,5.78,0,0,1-2.19,1.65A7.44,7.44,0,0,1,174.54,416.29Z"
            transform="translate(-92.25 -52.5)" fill="#fff" />
        <path
            d="M179.73,416.08l5.54-12.43h2.84l5.55,12.43h-3l-4.55-11h1.14l-4.57,11Zm2.77-2.66.76-2.19h6.39l.78,2.19Zm2.57-10.78,2.4-2.56h3l-3.21,2.56Z"
            transform="translate(-92.25 -52.5)" fill="#fff" />
        <path
            d="M200.73,416.29a7.28,7.28,0,0,1-2.67-.47,6.21,6.21,0,0,1-2.14-1.34,6.28,6.28,0,0,1-1.92-4.61,6.39,6.39,0,0,1,.51-2.58,6.19,6.19,0,0,1,1.42-2,6.31,6.31,0,0,1,2.14-1.34,7.47,7.47,0,0,1,2.68-.47,7.38,7.38,0,0,1,2.92.56,5.65,5.65,0,0,1,2.19,1.64L204,407.35a4.43,4.43,0,0,0-1.42-1.1,4.06,4.06,0,0,0-1.71-.36,4.37,4.37,0,0,0-1.6.28,3.63,3.63,0,0,0-2.08,2.08,4.25,4.25,0,0,0-.3,1.62,4.16,4.16,0,0,0,.3,1.61,3.62,3.62,0,0,0,.82,1.26,3.66,3.66,0,0,0,1.26.82,4.37,4.37,0,0,0,1.6.28,4.06,4.06,0,0,0,1.71-.36,4.2,4.2,0,0,0,1.42-1.11l1.84,1.71a5.78,5.78,0,0,1-2.19,1.65A7.44,7.44,0,0,1,200.73,416.29Z"
            transform="translate(-92.25 -52.5)" fill="#fff" />
        <path
            d="M212.82,416.08V403.65h5.65a8,8,0,0,1,3.57.77,6,6,0,0,1,2.41,2.16,6.62,6.62,0,0,1,0,6.56,5.9,5.9,0,0,1-2.41,2.17,8,8,0,0,1-3.57.77Zm2.88-2.36h2.63a4.67,4.67,0,0,0,2.15-.47,3.34,3.34,0,0,0,1.42-1.34,4.36,4.36,0,0,0,0-4.09,3.4,3.4,0,0,0-1.42-1.34,4.67,4.67,0,0,0-2.15-.47H215.7Z"
            transform="translate(-92.25 -52.5)" fill="#fff" />
        <path
            d="M227.49,416.08V403.65h2.87v12.43Zm1.44,3.73a1.24,1.24,0,0,1-.87-.32,1.1,1.1,0,0,1-.36-.87,1.19,1.19,0,0,1,.36-.9,1.18,1.18,0,0,1,.87-.34,1.21,1.21,0,0,1,.87.34,1.22,1.22,0,0,1,.35.9,1.12,1.12,0,0,1-.35.87A1.28,1.28,0,0,1,228.93,419.81Z"
            transform="translate(-92.25 -52.5)" fill="#fff" />
        <path
            d="M239.26,416.29a7.28,7.28,0,0,1-2.67-.47,6.2,6.2,0,0,1-3.55-3.38,6.76,6.76,0,0,1,0-5.15,6,6,0,0,1,1.42-2,6.31,6.31,0,0,1,2.14-1.34,7.47,7.47,0,0,1,2.68-.47,7.38,7.38,0,0,1,2.92.56,5.65,5.65,0,0,1,2.19,1.64l-1.84,1.71a4.36,4.36,0,0,0-1.43-1.1,4,4,0,0,0-1.7-.36,4.37,4.37,0,0,0-1.6.28,3.63,3.63,0,0,0-2.08,2.08,4.25,4.25,0,0,0-.3,1.62,4.16,4.16,0,0,0,.3,1.61,3.62,3.62,0,0,0,.82,1.26,3.66,3.66,0,0,0,1.26.82,4.37,4.37,0,0,0,1.6.28,4,4,0,0,0,1.7-.36,4.14,4.14,0,0,0,1.43-1.11l1.84,1.71a5.78,5.78,0,0,1-2.19,1.65A7.44,7.44,0,0,1,239.26,416.29Z"
            transform="translate(-92.25 -52.5)" fill="#fff" />
        <path
            d="M249.2,416.08h-2.87V403.65h2.87Zm5.86-5.09H249v-2.44h6.07Zm-.21-7.34h2.88v12.43h-2.88Z"
            transform="translate(-92.25 -52.5)" fill="#fff" />
        <path d="M269.43,416.08l-5.36-12.43h3.1l4.69,11H270l4.76-11h2.86l-5.38,12.43Z"
            transform="translate(-92.25 -52.5)" fill="#fff" />
        <path
            d="M284.47,416.29a5.15,5.15,0,0,1-5.63-5.68v-7h2.87v6.86a3.7,3.7,0,0,0,.73,2.55,3.07,3.07,0,0,0,4.09,0,3.7,3.7,0,0,0,.72-2.55v-6.86h2.85v7a5.16,5.16,0,0,1-5.63,5.68Zm0,3.52a1.28,1.28,0,0,1-.87-.32,1.12,1.12,0,0,1-.35-.87,1.22,1.22,0,0,1,.35-.9,1.21,1.21,0,0,1,.87-.34,1.18,1.18,0,0,1,.87.34,1.19,1.19,0,0,1,.36.9,1.1,1.1,0,0,1-.36.87A1.24,1.24,0,0,1,284.48,419.81Z"
            transform="translate(-92.25 -52.5)" fill="#fff" />
        <path
            d="M298,416.08V403.65h2.86v12.43Zm2.58-2.84-.16-3.32,5.94-6.27h3.2l-5.36,5.77-1.6,1.71Zm5.93,2.84L302,410.67l1.89-2.05,5.89,7.46Z"
            transform="translate(-92.25 -52.5)" fill="#fff" />
        <path
            d="M314,416.08H311.1V403.65H314Zm5.86-5.09h-6.08v-2.44h6.08Zm-.22-7.34h2.88v12.43h-2.88Z"
            transform="translate(-92.25 -52.5)" fill="#fff" />
        <path
            d="M323.81,416.08l5.54-12.43h2.84l5.56,12.43h-3l-4.54-11h1.13l-4.56,11Zm2.77-2.66.77-2.19h6.39l.78,2.19Zm2.58-10.78,2.4-2.56h3l-3.22,2.56Z"
            transform="translate(-92.25 -52.5)" fill="#fff" />
        <path
            d="M344.82,416.29a7.28,7.28,0,0,1-2.67-.47,6.12,6.12,0,0,1-2.14-1.34,6,6,0,0,1-1.41-2,6.76,6.76,0,0,1,0-5.15,6,6,0,0,1,1.42-2,6.31,6.31,0,0,1,2.14-1.34,7.88,7.88,0,0,1,5.6.09,5.65,5.65,0,0,1,2.19,1.64l-1.85,1.71a4.33,4.33,0,0,0-1.42-1.1,4,4,0,0,0-1.7-.36,4.37,4.37,0,0,0-1.6.28,3.81,3.81,0,0,0-1.26.82,4,4,0,0,0-.83,1.26,4.45,4.45,0,0,0-.29,1.62,4.35,4.35,0,0,0,.29,1.61,3.79,3.79,0,0,0,.83,1.26,3.66,3.66,0,0,0,1.26.82,4.37,4.37,0,0,0,1.6.28,4,4,0,0,0,1.7-.36,4.11,4.11,0,0,0,1.42-1.11l1.85,1.71a5.78,5.78,0,0,1-2.19,1.65A7.44,7.44,0,0,1,344.82,416.29Z"
            transform="translate(-92.25 -52.5)" fill="#fff" />
        <path
            d="M204.7,528.31a5.08,5.08,0,0,1-1.51,2.74,4.5,4.5,0,0,1-3,1.14c-5.55,0-11.09,0-16.63,0a4.42,4.42,0,0,1-4.54-4.57q0-8.28,0-16.57a4.44,4.44,0,0,1,4.6-4.57q8.26,0,16.51,0a4.45,4.45,0,0,1,4.51,3.62,2,2,0,0,0,.09.26Z"
            transform="translate(-92.25 -52.5)" fill="url(#linear-gradient-40)" />
        <path
            d="M150.06,565a5.09,5.09,0,0,1-2.79-1.55,4.47,4.47,0,0,1-1.09-3c0-5.54,0-11.08,0-16.63a4.4,4.4,0,0,1,4.5-4.54q8.35-.06,16.69,0a4.41,4.41,0,0,1,4.51,4.54q0,8.31,0,16.63a4.4,4.4,0,0,1-3.67,4.45L168,565Z"
            transform="translate(-92.25 -52.5)" fill="url(#linear-gradient-41)" />
        <path
            d="M182.87,565a5.09,5.09,0,0,1-2.79-1.55,4.63,4.63,0,0,1-1.1-3.05c0-5.5,0-11,0-16.5a4.45,4.45,0,0,1,4.61-4.62q8.25,0,16.5,0a4.44,4.44,0,0,1,4.52,3.67.9.9,0,0,0,.08.21v18a14.86,14.86,0,0,1-.94,2.11,4.46,4.46,0,0,1-2.95,1.78Z"
            transform="translate(-92.25 -52.5)" fill="url(#linear-gradient-42)" />
        <path
            d="M159.09,506.47c2.67,0,5.33,0,8,0a4.5,4.5,0,0,1,4.8,4.79v16.12a4.51,4.51,0,0,1-4.83,4.81H151a4.5,4.5,0,0,1-4.83-4.82V511.25a4.49,4.49,0,0,1,4.8-4.78C153.68,506.46,156.38,506.47,159.09,506.47Z"
            transform="translate(-92.25 -52.5)" fill="url(#linear-gradient-43)" />
    </g>
</svg>