<?xml version="1.0" encoding="UTF-8"?>
<svg xmlns="http://www.w3.org/2000/svg" xmlns:xlink="http://www.w3.org/1999/xlink" viewBox="0 0 218.54 60">
  <defs>
    <style>
      .cls-1 {
        fill: url(#linear-gradient-21);
        stroke: url(#linear-gradient-22);
        stroke-width: .53px;
      }

      .cls-1, .cls-2, .cls-3, .cls-4, .cls-5, .cls-6, .cls-7 {
        stroke-miterlimit: 10;
      }

      .cls-8 {
        fill: url(#linear-gradient-2);
      }

      .cls-8, .cls-9, .cls-10, .cls-11, .cls-12, .cls-13, .cls-14, .cls-15, .cls-16, .cls-17, .cls-18, .cls-19, .cls-20, .cls-21, .cls-22, .cls-23, .cls-24, .cls-25, .cls-26, .cls-27, .cls-28 {
        isolation: isolate;
      }

      .cls-8, .cls-9, .cls-11, .cls-12, .cls-13, .cls-14, .cls-15, .cls-18, .cls-19, .cls-20, .cls-21, .cls-23, .cls-24, .cls-27 {
        mix-blend-mode: multiply;
      }

      .cls-8, .cls-19 {
        opacity: .6;
      }

      .cls-9 {
        fill: url(#linear-gradient-14);
      }

      .cls-9, .cls-11, .cls-13, .cls-15, .cls-21, .cls-23, .cls-24, .cls-27 {
        opacity: .75;
      }

      .cls-10 {
        fill: url(#linear-gradient);
      }

      .cls-10, .cls-16, .cls-17, .cls-25, .cls-26, .cls-28 {
        mix-blend-mode: screen;
      }

      .cls-10, .cls-16, .cls-17, .cls-26 {
        opacity: .26;
      }

      .cls-29 {
        fill: #fee066;
      }

      .cls-11 {
        fill: url(#linear-gradient-6);
      }

      .cls-12 {
        fill: url(#linear-gradient-17);
      }

      .cls-2 {
        fill: url(#linear-gradient-23);
        stroke: url(#linear-gradient-24);
        stroke-width: .55px;
      }

      .cls-30 {
        fill: #fff;
      }

      .cls-13 {
        fill: url(#linear-gradient-15);
      }

      .cls-14 {
        fill: url(#linear-gradient-7);
      }

      .cls-15 {
        fill: url(#linear-gradient-20);
      }

      .cls-16 {
        fill: url(#linear-gradient-11);
      }

      .cls-17 {
        fill: url(#linear-gradient-9);
      }

      .cls-18 {
        fill: url(#linear-gradient-8);
      }

      .cls-19 {
        fill: url(#linear-gradient-12);
      }

      .cls-20 {
        fill: url(#linear-gradient-18);
      }

      .cls-21 {
        fill: url(#linear-gradient-4);
      }

      .cls-3 {
        fill: url(#linear-gradient-31);
        stroke: url(#linear-gradient-32);
        stroke-width: .52px;
      }

      .cls-4 {
        fill: url(#linear-gradient-27);
        stroke: url(#linear-gradient-28);
      }

      .cls-4, .cls-7 {
        stroke-width: .5px;
      }

      .cls-31 {
        fill: url(#linear-gradient-33);
      }

      .cls-23 {
        fill: url(#linear-gradient-10);
      }

      .cls-5 {
        fill: url(#linear-gradient-29);
        stroke: url(#linear-gradient-30);
        stroke-width: .55px;
      }

      .cls-24 {
        fill: url(#linear-gradient-5);
      }

      .cls-25 {
        fill: url(#linear-gradient-3);
      }

      .cls-25, .cls-28 {
        opacity: .42;
      }

      .cls-6 {
        fill: url(#linear-gradient-34);
        stroke: #fff;
        stroke-width: 1px;
      }

      .cls-7 {
        fill: url(#linear-gradient-25);
        stroke: url(#linear-gradient-26);
      }

      .cls-26 {
        fill: url(#linear-gradient-19);
      }

      .cls-27 {
        fill: url(#linear-gradient-16);
      }

      .cls-28 {
        fill: url(#linear-gradient-13);
      }
    </style>
    <linearGradient id="linear-gradient" x1="80.58" y1="14.1" x2="80.58" y2="16.83" gradientTransform="translate(0 62.61) scale(1 -1)" gradientUnits="userSpaceOnUse">
      <stop offset="0" stop-color="#fff"/>
      <stop offset="1" stop-color="#52332a"/>
    </linearGradient>
    <linearGradient id="linear-gradient-2" x1="77.56" y1="12.81" x2="77.56" y2="27.33" gradientTransform="translate(0 62.61) scale(1 -1)" gradientUnits="userSpaceOnUse">
      <stop offset="0" stop-color="#fff"/>
      <stop offset=".99" stop-color="#c8aea6"/>
    </linearGradient>
    <linearGradient id="linear-gradient-3" x1="78.41" y1="9.23" x2="85.49" y2="9.23" xlink:href="#linear-gradient"/>
    <linearGradient id="linear-gradient-4" x1="76.54" y1="9.23" x2="81.48" y2="9.23" gradientTransform="translate(0 62.61) scale(1 -1)" gradientUnits="userSpaceOnUse">
      <stop offset="0" stop-color="#805c52"/>
      <stop offset="1" stop-color="#a7887d"/>
    </linearGradient>
    <linearGradient id="linear-gradient-5" x1="71.59" y1="9.22" x2="76.54" y2="9.22" xlink:href="#linear-gradient-4"/>
    <linearGradient id="linear-gradient-6" x1="83.25" y1="13.94" x2="78.9" y2="12.4" xlink:href="#linear-gradient-4"/>
    <linearGradient id="linear-gradient-7" x1="75.81" y1="12.14" x2="70.2" y2="6.52" xlink:href="#linear-gradient-2"/>
    <linearGradient id="linear-gradient-8" x1="75.42" y1="18.6" x2="77.77" y2="10.45" gradientTransform="translate(0 62.61) scale(1 -1)" gradientUnits="userSpaceOnUse">
      <stop offset="0" stop-color="#fff6ce"/>
      <stop offset=".99" stop-color="#c8aea6"/>
    </linearGradient>
    <linearGradient id="linear-gradient-9" x1="72.47" x2="72.47" y2="16.83" xlink:href="#linear-gradient"/>
    <linearGradient id="linear-gradient-10" x1="75.75" y1="13.49" x2="70.89" y2="13.49" xlink:href="#linear-gradient-4"/>
    <linearGradient id="linear-gradient-11" x1="99.34" x2="99.34" xlink:href="#linear-gradient"/>
    <linearGradient id="linear-gradient-12" x1="96.32" x2="96.32" xlink:href="#linear-gradient-2"/>
    <linearGradient id="linear-gradient-13" x1="97.17" y1="9.23" x2="104.25" y2="9.23" xlink:href="#linear-gradient"/>
    <linearGradient id="linear-gradient-14" x1="95.3" x2="100.24" xlink:href="#linear-gradient-4"/>
    <linearGradient id="linear-gradient-15" x1="90.36" y1="9.22" x2="95.3" y2="9.22" xlink:href="#linear-gradient-4"/>
    <linearGradient id="linear-gradient-16" x1="102.01" y1="13.94" x2="97.66" y2="12.4" xlink:href="#linear-gradient-4"/>
    <linearGradient id="linear-gradient-17" x1="94.57" y1="12.14" x2="88.96" y2="6.52" xlink:href="#linear-gradient-2"/>
    <linearGradient id="linear-gradient-18" x1="94.18" x2="96.53" y2="10.45" xlink:href="#linear-gradient-8"/>
    <linearGradient id="linear-gradient-19" x1="91.23" x2="91.23" y2="16.83" xlink:href="#linear-gradient"/>
    <linearGradient id="linear-gradient-20" x1="94.52" y1="13.49" x2="89.65" y2="13.49" xlink:href="#linear-gradient-4"/>
    <linearGradient id="linear-gradient-21" x1="111.09" y1="-5.82" x2="111.09" y2="31.18" gradientUnits="userSpaceOnUse">
      <stop offset="0" stop-color="#feea77"/>
      <stop offset=".24" stop-color="#c2912f"/>
      <stop offset=".24" stop-color="#c2922f"/>
      <stop offset=".29" stop-color="#ddb84e"/>
      <stop offset=".35" stop-color="#efd465"/>
      <stop offset=".39" stop-color="#fbe573"/>
      <stop offset=".43" stop-color="#feea77"/>
      <stop offset=".63" stop-color="#feea77"/>
      <stop offset=".66" stop-color="#fae472"/>
      <stop offset=".71" stop-color="#efd461"/>
      <stop offset=".76" stop-color="#dab646"/>
      <stop offset=".78" stop-color="#cfa736"/>
      <stop offset=".87" stop-color="#b4902f"/>
      <stop offset="1" stop-color="#feea77"/>
    </linearGradient>
    <linearGradient id="linear-gradient-22" x1="97.54" y1="22.78" x2="124.65" y2="22.78" xlink:href="#linear-gradient-21"/>
    <linearGradient id="linear-gradient-23" x1="138.49" y1="-6.85" x2="138.49" y2="31.48" xlink:href="#linear-gradient-21"/>
    <linearGradient id="linear-gradient-24" x1="127.11" y1="22.78" x2="149.88" y2="22.78" xlink:href="#linear-gradient-21"/>
    <linearGradient id="linear-gradient-25" x1="162.7" y1="-3.24" x2="162.7" y2="31.67" xlink:href="#linear-gradient-21"/>
    <linearGradient id="linear-gradient-26" x1="152.35" y1="28.51" x2="173.04" y2="28.51" xlink:href="#linear-gradient-21"/>
    <linearGradient id="linear-gradient-27" x1="184.67" y1="-3.29" x2="184.67" y2="31.62" xlink:href="#linear-gradient-21"/>
    <linearGradient id="linear-gradient-28" x1="175.54" y1="28.46" x2="193.8" y2="28.46" xlink:href="#linear-gradient-21"/>
    <linearGradient id="linear-gradient-29" x1="207.41" y1="-6.8" x2="207.41" y2="31.38" xlink:href="#linear-gradient-21"/>
    <linearGradient id="linear-gradient-30" x1="196.28" y1="22.72" x2="218.54" y2="22.72" xlink:href="#linear-gradient-21"/>
    <linearGradient id="linear-gradient-31" x1="81.61" y1="-5.04" x2="81.61" y2="31.33" xlink:href="#linear-gradient-21"/>
    <linearGradient id="linear-gradient-32" x1="68.15" y1="22.8" x2="95.06" y2="22.8" xlink:href="#linear-gradient-21"/>
    <linearGradient id="linear-gradient-33" x1="29.8" y1=".29" x2="30.2" y2="59.76" gradientUnits="userSpaceOnUse">
      <stop offset="0" stop-color="#fbf395"/>
      <stop offset=".05" stop-color="#ede27c"/>
      <stop offset=".15" stop-color="#c3a54e"/>
      <stop offset=".24" stop-color="#996d29"/>
      <stop offset=".44" stop-color="#efe87c"/>
      <stop offset=".66" stop-color="#fbf5ad"/>
      <stop offset=".83" stop-color="#fae878"/>
      <stop offset="1" stop-color="#d1ac59"/>
    </linearGradient>
    <linearGradient id="linear-gradient-34" x1="12.43" y1="22.84" x2="60.08" y2="22.84" xlink:href="#linear-gradient-33"/>
  </defs>
  <g class="cls-22">
    <g id="Layer_2">
      <g id="Layer_1-2" data-name="Layer_1">
        <g>
          <g>
            <g>
              <polygon class="cls-29" points="73.12 51 68.41 47.23 74.51 47.07 76.54 41.78 78.56 47.07 84.67 47.23 79.96 51 81.48 56.86 76.54 53.65 71.59 56.86 73.12 51"/>
              <g>
                <polygon class="cls-10" points="84.58 47.23 78.57 47.07 76.58 49.86 84.58 47.23"/>
                <polygon class="cls-8" points="76.58 49.86 78.57 47.07 78.56 47.07 76.54 41.78 76.54 49.87 76.58 49.86"/>
                <polygon class="cls-25" points="76.56 49.89 76.54 49.91 81.48 56.85 81.48 56.86 79.96 51 76.56 49.89"/>
                <polygon class="cls-21" points="76.54 49.91 76.54 53.65 81.48 56.85 76.54 49.91 76.54 49.91"/>
                <polygon class="cls-24" points="71.59 56.85 71.59 56.86 76.54 53.65 76.54 49.91 71.59 56.85"/>
                <polygon class="cls-11" points="76.56 49.89 79.96 51 84.67 47.23 84.58 47.23 76.58 49.86 76.56 49.89"/>
                <polygon class="cls-14" points="76.54 49.91 76.52 49.88 73.12 51 71.59 56.85 76.54 49.91 76.54 49.91"/>
                <polygon class="cls-18" points="76.53 49.88 76.54 49.87 76.54 41.78 74.52 47.06 76.52 49.88 76.53 49.88"/>
                <polygon class="cls-17" points="74.52 47.06 74.51 47.07 68.41 47.23 68.41 47.23 76.52 49.88 74.52 47.06"/>
                <polygon class="cls-23" points="76.52 49.88 68.41 47.23 73.12 51 73.12 51 76.52 49.88 76.52 49.88"/>
              </g>
            </g>
            <g>
              <polygon class="cls-29" points="91.88 51 87.17 47.23 93.28 47.07 95.3 41.78 97.33 47.07 103.43 47.23 98.72 51 100.25 56.86 95.3 53.65 90.36 56.86 91.88 51"/>
              <g>
                <polygon class="cls-16" points="103.34 47.23 97.33 47.07 95.34 49.86 103.34 47.23"/>
                <polygon class="cls-19" points="95.34 49.86 97.33 47.07 97.33 47.07 95.3 41.78 95.3 49.87 95.34 49.86"/>
                <polygon class="cls-28" points="95.32 49.89 95.3 49.91 100.24 56.85 100.25 56.86 98.72 51 95.32 49.89"/>
                <polygon class="cls-9" points="95.3 49.91 95.3 53.65 100.24 56.85 95.3 49.91 95.3 49.91"/>
                <polygon class="cls-13" points="90.36 56.85 90.36 56.86 95.3 53.65 95.3 49.91 90.36 56.85"/>
                <polygon class="cls-27" points="95.32 49.89 98.72 51 103.43 47.23 103.34 47.23 95.34 49.86 95.32 49.89"/>
                <polygon class="cls-12" points="95.3 49.91 95.28 49.88 91.88 51 90.36 56.85 95.3 49.91 95.3 49.91"/>
                <polygon class="cls-20" points="95.29 49.88 95.3 49.87 95.3 41.78 93.28 47.06 95.28 49.88 95.29 49.88"/>
                <polygon class="cls-26" points="93.28 47.06 93.28 47.07 87.17 47.23 87.17 47.23 95.28 49.88 93.28 47.06"/>
                <polygon class="cls-15" points="95.28 49.88 87.17 47.23 91.88 51 91.88 51 95.28 49.88 95.28 49.88"/>
              </g>
            </g>
          </g>
          <g>
            <path class="cls-1" d="M113.07,39.57c-3.07,0-5.75-.67-8.04-2.01-2.29-1.34-4.07-3.25-5.33-5.74-1.26-2.49-1.89-5.44-1.89-8.86s.67-6.57,2.01-9.09c1.34-2.52,3.2-4.47,5.57-5.83,2.37-1.36,5.05-2.04,8.04-2.04,1.59,0,2.95.11,4.08.32,1.13.21,2.23.53,3.32.96,1.32.51,2.14,1.17,2.45,1.98.31.82.31,1.85,0,3.09l-.41,1.69c-.12.51-.37.76-.76.76-.23,0-.54-.1-.93-.29-1.17-.58-2.28-1.06-3.35-1.43-1.07-.37-2.46-.55-4.17-.55-2.56,0-4.67.84-6.32,2.51-1.65,1.67-2.48,4.31-2.48,7.93,0,3.42.86,5.97,2.59,7.64,1.73,1.67,3.9,2.51,6.5,2.51,1.36,0,2.58-.2,3.67-.61,1.09-.41,2.03-.88,2.83-1.43.8-.54,1.41-1.01,1.84-1.4.23-.23.44-.38.61-.44.17-.06.32-.09.44-.09.7,0,1.05.52,1.05,1.57,0,.74-.19,1.61-.58,2.62-.39,1.01-1.02,1.99-1.89,2.94-.87.95-2.04,1.74-3.5,2.36-1.46.62-3.23.93-5.33.93Z"/>
            <path class="cls-2" d="M134.26,18.56c1.41-1.85,3.42-2.78,6.04-2.78s4.92.86,6.67,2.57c1.75,1.71,2.63,4.36,2.63,7.94v12.5c0,.52-.26.79-.79.79h-5.37c-.52,0-.78-.26-.78-.79v-11.9c0-1.77-.43-3-1.3-3.68-.87-.68-1.84-1.03-2.93-1.03s-2.05.34-2.9,1.03c-.85.69-1.27,1.93-1.27,3.74v11.84c0,.52-.26.79-.78.79h-5.31c-.52,0-.79-.26-.79-.79V6.78c0-.52.26-.79.79-.79h.3c1.89,0,3.33.44,4.32,1.33.99.89,1.48,2.42,1.48,4.59v6.64Z"/>
            <path class="cls-7" d="M159.09,30.73c.44,2.38,2.26,3.58,5.45,3.58,1.25,0,2.33-.1,3.24-.3.92-.2,1.91-.54,2.97-1.02.44-.18.75-.28.94-.28.44,0,.66.28.66.82,0,.73-.27,1.58-.8,2.53-.53.95-1.42,1.78-2.67,2.48-1.25.7-2.99,1.04-5.22,1.04-3.34,0-6.01-1-8.03-3-2.02-2-3.02-4.72-3.02-8.17,0-2.13.42-4.02,1.26-5.67.84-1.65,2.05-2.95,3.63-3.91,1.58-.95,3.46-1.43,5.66-1.43s4.06.46,5.47,1.37c1.41.92,2.46,2.1,3.14,3.55.68,1.45,1.02,2.98,1.02,4.59,0,.7,0,1.28-.03,1.76-.02.48-.05.88-.08,1.21-.04.55-.39.82-1.05.82h-12.54ZM159.15,26.33h7.37c.07-.44.02-.93-.17-1.48-.18-.55-.52-1.03-1.02-1.43-.49-.4-1.22-.6-2.17-.6-1.25,0-2.21.32-2.89.96-.68.64-1.05,1.49-1.13,2.56Z"/>
            <path class="cls-4" d="M185.85,39.54c-3.01,0-5.44-.98-7.29-2.94-1.85-1.96-2.78-4.68-2.78-8.17s.99-6.2,2.97-8.14c1.98-1.94,4.58-2.91,7.81-2.91,1.47,0,2.82.22,4.07.66,1.1.37,1.81.92,2.12,1.65.31.73.32,1.74.03,3.03l-.33,1.37c-.11.37-.28.55-.5.55-.18,0-.38-.05-.6-.16-.84-.4-1.58-.7-2.2-.88-.62-.18-1.36-.28-2.2-.28-1.25,0-2.34.42-3.27,1.27-.93.84-1.4,2.18-1.4,4.01,0,1.69.44,3.03,1.32,4.04s2.24,1.51,4.07,1.51c1.06,0,1.98-.17,2.75-.52.77-.35,1.36-.65,1.76-.91.33-.22.59-.33.77-.33.4,0,.6.29.6.88,0,.73-.21,1.6-.63,2.59-.42.99-1.19,1.85-2.31,2.58-1.12.73-2.7,1.1-4.76,1.1Z"/>
            <path class="cls-5" d="M203.41,32.65v6.02c0,.52-.26.78-.78.78h-5.29c-.52,0-.78-.26-.78-.78V6.78c0-.52.26-.78.78-.78h.3c1.89,0,3.32.44,4.3,1.32.98.88,1.47,2.41,1.47,4.57v12.33l6.14-6.98c.48-.52.96-.78,1.44-.78h6.08c.24,0,.39.09.45.27.06.18,0,.35-.15.51l-6.86,7.64,7.7,13.78c.08.16.08.33,0,.51-.08.18-.22.27-.42.27h-6.02c-.64,0-1.1-.26-1.38-.78l-4.57-8.66-2.41,2.65Z"/>
            <path class="cls-3" d="M75.48,19.3v19.5c0,.52-.26.78-.78.78h-5.49c-.52,0-.79-.26-.79-.78V6.8c0-.52.26-.79.79-.79h2.42c1.33,0,2.39.23,3.2.7.81.46,1.57,1.28,2.29,2.45l10.63,17.27V6.8c0-.52.26-.79.79-.79h.6c1.89,0,3.31.45,4.26,1.36.95.91,1.42,2.49,1.42,4.74v26.69c0,.52-.26.78-.79.78h-5.19c-.56,0-1.01-.26-1.33-.78l-12.02-19.5Z"/>
          </g>
          <g>
            <path class="cls-31" d="M30,0C13.43,0,0,13.43,0,30s13.43,30,30,30,30-13.43,30-30S46.57,0,30,0ZM30,50.12c-11.11,0-20.12-9.01-20.12-20.12S18.89,9.88,30,9.88s20.12,9.01,20.12,20.12-9.01,20.12-20.12,20.12Z"/>
            <g>
              <g>
                <path class="cls-30" d="M52.43,22.39l4.2-.25.48,1.42h-5.89s-.47-1.38-.47-1.38l4.69-3.55.48,1.41-3.49,2.35Z"/>
                <path class="cls-30" d="M54.55,28.63l-.26-2.1-1.32.17.31,2.48-1.03.13-.48-3.81,5.53-.69.48,3.82-1.03.13-.31-2.49-1.17.15.26,2.1-.99.12Z"/>
                <path class="cls-30" d="M54.08,31.79l.05-.73-1.97-.15.1-1.34,5.56.42-.17,2.19c-.05.66-.24,1.16-.56,1.51-.32.35-.75.5-1.28.46-.38-.03-.7-.13-.94-.31-.24-.18-.43-.44-.56-.78l-2.33.99h-.06s.11-1.44.11-1.44l2.04-.83ZM55.16,31.14l-.06.85c-.02.25.03.45.16.59.12.14.31.22.55.24.24.02.43-.03.58-.15s.23-.31.25-.56l.06-.85-1.53-.12Z"/>
                <path class="cls-30" d="M51.4,35.83l.31-1.3,5.42,1.3-.31,1.3-5.42-1.3Z"/>
                <path class="cls-30" d="M52.02,40.65l.8-2.02-2.06-.82.5-1.25,5.18,2.06-1.38,3.47-.96-.38.88-2.22-1.19-.47-.8,2.01-.96-.38Z"/>
                <path class="cls-30" d="M48.91,41.58l.67-1.16,4.84,2.77-.67,1.16-4.84-2.77Z"/>
                <path class="cls-30" d="M48.32,46.41l1.3-1.67-1.05-.82-1.53,1.97-.82-.64,2.36-3.03,4.4,3.42-2.36,3.04-.82-.64,1.54-1.98-.93-.72-1.3,1.67-.79-.61Z"/>
                <path class="cls-30" d="M46.01,45.48l3.63,4.24-1.37,1.17c-.37.32-.78.52-1.23.61-.44.09-.88.05-1.31-.12-.43-.17-.82-.44-1.15-.82l-.17-.19c-.33-.39-.55-.81-.65-1.25-.1-.45-.07-.89.08-1.31.15-.43.41-.8.77-1.12l1.39-1.19ZM47.94,49.8l-2.28-2.66-.35.3c-.29.25-.43.55-.41.89.02.34.21.72.56,1.13l.16.18c.35.41.69.65,1.03.72.33.07.65-.02.95-.28l.34-.29Z"/>
              </g>
              <g>
                <path class="cls-30" d="M11.67,15l-2.43-3.43.95-1.16,3.12,4.99-.93,1.14-5.49-2.1.94-1.15,3.84,1.72Z"/>
                <path class="cls-30" d="M15.84,9.9l-1.64,1.33.84,1.03,1.94-1.58.65.8-2.98,2.42-3.52-4.33,2.99-2.43.66.81-1.94,1.58.74.91,1.64-1.33.63.77Z"/>
                <path class="cls-30" d="M18.8,8.61l-.65.34.91,1.75-1.19.62-2.58-4.95,1.95-1.02c.59-.31,1.11-.41,1.58-.33.47.09.82.37,1.07.84.18.34.26.67.24.96s-.14.6-.37.89l2.07,1.46.03.05-1.28.67-1.79-1.29ZM17.68,8.03l.75-.39c.23-.12.37-.27.42-.45.05-.18.02-.38-.09-.59-.11-.21-.26-.35-.43-.41-.18-.06-.38-.03-.61.08l-.75.39.71,1.36Z"/>
                <path class="cls-30" d="M23.65,8.75l-1.27.42-1.76-5.29,1.27-.42,1.76,5.29Z"/>
                <path class="cls-30" d="M27.41,5.68l-2.13.39.39,2.19-1.32.24-.99-5.49,3.67-.66.18,1.02-2.35.42.23,1.26,2.13-.38.18,1.02Z"/>
                <path class="cls-30" d="M29.82,7.82l-1.34.05-.21-5.57,1.34-.05.21,5.57Z"/>
                <path class="cls-30" d="M34.22,5.77l-2.1-.22-.14,1.33,2.48.26-.11,1.03-3.82-.4.58-5.55,3.83.4-.11,1.03-2.49-.26-.12,1.17,2.1.22-.1.99Z"/>
                <path class="cls-30" d="M34.65,8.22l1.67-5.32,1.71.54c.47.15.86.39,1.17.72.31.33.51.72.59,1.18.09.46.06.92-.09,1.41l-.08.25c-.15.49-.39.89-.72,1.21-.33.32-.71.53-1.16.63-.44.1-.89.08-1.36-.06l-1.75-.55ZM37.3,4.29l-1.05,3.34.45.14c.37.12.69.07.97-.13.28-.2.5-.56.66-1.07l.07-.23c.16-.51.18-.93.07-1.25-.12-.32-.36-.54-.74-.66l-.43-.14Z"/>
              </g>
              <g>
                <path class="cls-30" d="M22.9,52.6l-2.28,3.54-1.43-.45,3.47-4.75,1.4.44.1,5.88-1.42-.45.17-4.21Z"/>
                <path class="cls-30" d="M16.58,50.61l1.85,1.03.65-1.16-2.18-1.22.5-.9,3.36,1.87-2.71,4.87-3.36-1.88.51-.91,2.19,1.22.57-1.03-1.85-1.03.48-.87Z"/>
                <path class="cls-30" d="M14.32,48.35l.55.47,1.29-1.5,1.02.88-3.63,4.23-1.67-1.43c-.5-.43-.8-.88-.89-1.34-.09-.47.04-.9.39-1.31.25-.29.52-.49.81-.58.29-.09.61-.09.96,0l.58-2.47.04-.04,1.09.94-.54,2.14ZM14.2,49.61l-.65-.55c-.19-.17-.38-.24-.57-.22-.18.02-.36.12-.51.3-.16.18-.23.37-.22.56,0,.19.11.37.3.53l.64.55,1-1.17Z"/>
                <path class="cls-30" d="M12.64,43.8l.87,1.02-4.26,3.6-.87-1.02,4.26-3.6Z"/>
                <path class="cls-30" d="M8.39,41.45l1.15,1.84,1.88-1.18.71,1.14-4.72,2.96-1.98-3.16.88-.55,1.27,2.02,1.09-.68-1.15-1.84.88-.55Z"/>
                <path class="cls-30" d="M9.49,38.43l.55,1.22-5.09,2.27-.55-1.22,5.09-2.27Z"/>
                <path class="cls-30" d="M5.94,35.06l.58,2.03,1.28-.36-.68-2.4.99-.28,1.05,3.7-5.37,1.52-1.05-3.7,1-.28.69,2.41,1.13-.32-.58-2.03.96-.27Z"/>
                <path class="cls-30" d="M8.06,33.79l-5.56.43-.14-1.79c-.04-.49.04-.94.23-1.35.19-.41.48-.74.87-.99.39-.25.84-.4,1.34-.44l.26-.02c.51-.04.97.03,1.39.22s.76.46,1.02.84.41.8.45,1.28l.14,1.83ZM3.43,32.79l3.49-.27-.04-.47c-.03-.38-.19-.67-.48-.85-.29-.19-.7-.26-1.24-.21l-.24.02c-.54.04-.94.17-1.19.4-.26.23-.37.54-.34.93l.04.45Z"/>
              </g>
            </g>
            <path class="cls-30" d="M30,9.1c11.52,0,20.9,9.38,20.9,20.9s-9.38,20.9-20.9,20.9-20.9-9.38-20.9-20.9S18.48,9.1,30,9.1M30,8.86c-11.67,0-21.14,9.46-21.14,21.14s9.46,21.14,21.14,21.14,21.14-9.46,21.14-21.14-9.46-21.14-21.14-21.14h0Z"/>
            <path class="cls-30" d="M30,1.33c15.81,0,28.67,12.86,28.67,28.67s-12.86,28.67-28.67,28.67S1.33,45.81,1.33,30,14.19,1.33,30,1.33M30,1.07C14.02,1.07,1.07,14.02,1.07,30s12.95,28.93,28.93,28.93,28.93-12.95,28.93-28.93S45.98,1.07,30,1.07h0Z"/>
            <path class="cls-6" d="M59.95,4.19c-.72.69-1.44,1.38-2.17,2.07-6.43,6.09-12.09,12.84-17.41,19.91h0c-2.91,3.87-5.56,7.96-8.17,12.03-.54.85-1.09,1.71-1.67,2.54-1.06,1.56-3.19,1.96-4.75.9-.37-.25-.68-.57-.92-.93-1.46-2.2-3.9-5.2-5.87-7-1.58-1.43-3.69-3.01-5.9-4.17-.85-.45-.92-1.66-.11-2.2,1.68-1.12,4.35-1.77,7.29-.41,1.71.78,5.66,4.26,7.17,6,2.47-3.59,5.18-7,8.15-10.19,5.43-5.85,11.5-11.13,18.09-15.6,1.03-.7,2.11-1.38,3.16-2.06.85-.52,1.72-1.03,2.57-1.54.19-.11.45-.07.57.12.12.18.09.41-.05.55h0Z"/>
          </g>
          <path class="cls-30" d="M29.12,57.77c.12-.11.24-.22.36-.33,1.07-.99,2.02-2.1,2.91-3.26h0c.48-.63.93-1.3,1.37-1.97.09-.14.19-.28.28-.42.18-.26.53-.32.79-.14.07.05.11.09.15.16.24.36.63.86.96,1.17.26.24.6.5.97.7.14.07.15.28.02.36-.28.19-.73.29-1.21.06-.28-.13-.93-.72-1.17-1-.41.59-.86,1.14-1.37,1.67-.91.96-1.91,1.82-3.01,2.55-.18.11-.35.22-.52.33-.14.08-.29.17-.43.25-.03.02-.07,0-.09-.02s-.02-.07,0-.09h0Z"/>
          <path class="cls-30" d="M5.26,17.42c.05.16.1.31.14.47.43,1.39,1.02,2.73,1.68,4.04h0c.36.71.77,1.4,1.18,2.09.09.14.17.29.26.43.16.27.05.61-.22.77-.07.04-.13.06-.21.07-.43.06-1.05.19-1.47.35-.33.13-.71.33-1.05.57-.13.09-.32.01-.33-.14-.05-.33.06-.78.47-1.11.24-.19,1.05-.53,1.41-.62-.35-.62-.65-1.28-.91-1.96-.47-1.24-.81-2.52-.99-3.82-.02-.21-.05-.42-.08-.61-.01-.16-.03-.33-.04-.49,0-.03.02-.07.06-.08s.07.01.08.05h.01Z"/>
        </g>
      </g>
    </g>
  </g>
</svg>